<svg xmlns="http://www.w3.org/2000/svg" width="343" height="380" fill="none" xmlns:v="https://vecta.io/nano"><g clip-path="url(#B)"><path d="M339.407 216.544c0 59.699-36.193 116.537-53.417 130.671s-23.075 15.383-30.374 18.634c-20.156 7.075-43.27 15.673-87.221 2.044-41.175-14.621-102.892-39.181-133.557-62.008C12.35 286.124.232 273.81 5.198 226.16c10.219-54.173 55.91-113.371 79.254-139.172 15.138-34.902 66.213-36.15 106.193-36.15 33.065 0 41.892 7.277 68.217 23.289 50.188 30.528 68.216 75.297 80.545 142.417z" fill="#121212"/><g fill="#fff"><path fill-rule="evenodd" d="M66.646 267.859c11.587 7.658 23.229 15.232 35.123 22.412l10.47 5.775.307.17.011.006.01.006.01.005.041.022 24.636 13.572c11.664 6.404 21.857 14.793 31.834 23.48 1.268 1.104 2.597 2.141 3.932 3.163.207.159.482.231.765.305.133.035.268.07.4.115.504-.946.136-1.695-.21-2.4-.086-.176-.171-.349-.241-.522-3.504-8.673-9.223-15.769-15.795-22.295-10.29-10.218-22.734-17.254-35.203-24.305l-.44-.249c-18.317-10.357-35.688-22.049-50.231-37.45-15.017-15.902-25.872-34.163-30.429-55.778-2.095-9.935-2.322-20.007-1.273-30.095 2.922-28.086 14.788-52.335 31.959-74.297.168-.215.328-.442.489-.669.382-.542.766-1.085 1.266-1.478a17.55 17.55 0 0 0 1.377-1.201c4.962-4.807 5.441-11.175 5.42-17.782-.046-14.857 1.763-29.495 5.527-43.874 1.39-5.31 3.325-10.425 6.144-15.161 3.022-5.075 5.456-6.132 11.052-4.482 8.052 2.374 15.496 6.123 22.486 10.716 8.169 5.368 16.077 11.115 23.092 17.961 2.061 2.011 4.337 1.803 6.713 1.587l.594-.053 4.625-.423c3.73-.354 7.46-.709 11.198-.84 14.329-.505 27.722 3.278 40.779 8.901 17.458 7.518 33.142 17.874 48.328 29.132 15.008 11.125 27.06 24.727 35.213 41.594 4.534 9.379 6.995 19.375 8.352 29.706 2.079 15.825-.163 31.124-5.002 46.17l-.004.011c-.254.792-.256.798-1.137 1.775-.822-.597-.683-1.351-.545-2.095.044-.217.076-.435.097-.655.147-2.064.353-4.123.56-6.182v-.001c.388-3.875.777-7.75.769-11.653-.041-20.636-5.868-39.61-16.656-57.093-7.605-12.325-17.161-22.83-29.347-30.849-10.768-7.086-22.253-8.784-34.679-5.435-16.419 4.426-31.436 11.935-45.957 20.541-20.697 12.266-39.413 27.039-55.767 44.725-9.979 10.792-18.98 22.279-25.558 35.547-4.505 9.088-6.999 18.527-6.215 28.717.341 4.43 1.81 8.532 3.757 12.471 6.566 13.286 16.455 23.933 27.097 33.971 10.889 10.272 22.686 19.434 34.484 28.597l.005.004.003.003 10.034 7.834c11.403 8.999 22.249 18.597 30.407 30.772 7.888 11.771 12.414 24.914 15.004 38.764.462 2.468.821 4.973.975 7.476.153 2.478-.751 3.116-3.193 2.873-21.893-2.186-42.827-8.191-63.394-15.744-26.301-9.659-51.039-22.612-75.78-35.567l-.191-.1-3.426-1.793-16.989-8.955-.008-.004-8.913-4.711-.159-.083-.006-.004c-.762-.399-1.533-.803-2.2-1.675 1.425-2.773 3.591-4.988 5.736-7.18l.001-.001 1.41-1.456 6.013-6.237.002-.002c5.555-5.718 11.109-11.435 16.157-17.621 1.408-1.726 2.61-1.537 4.285-.43l-.001.001zm159.529-62.482l1.412.981c3.819 2.2 6.187 5.092 7.528 8.944.898 2.58.413 4.732-1.1 6.877-4.22 5.987-10.154 9.774-16.592 12.84-3.032 1.444-6.131 2.75-9.229 4.055l-.002.001-.003.001-4.428 1.884c-.224.097-.455.186-.685.275-.932.361-1.872.724-2.485 1.656.346.826 1.023.82 1.663.813h.096c.052-.001.103-.001.154 0 10.878.148 21.031-2.486 30.18-8.395 4.031-2.604 7.763-2.408 11.518.096 2.168 1.444 4.261 3 6.393 4.584l2.898 2.139c-2.051 3.642-5.139 6.232-8.231 8.761-6.861 5.612-14.436 9.816-23.242 11.62-8.292 1.699-16.36.477-24.419-1.439-3.736-.888-7.377-2.101-11.017-3.313-4.256-1.418-8.51-2.836-12.91-3.731l-4.097-.796c-4.906-.93-9.809-1.86-14.5-3.632-13.726-5.185-23.146-15.229-30.609-27.432-3.723-6.087-5.784-12.798-6.075-19.819-.291-7.048 1.624-13.811 4.825-20.15 4.368-8.648 10.371-16.137 16.768-23.308l1.344-1.511c3.794-4.268 8.278-8.195 12.601-11.968s45.859-35.99 72.278-32.216c10.513 1.501 18.028 3.594 25.438 9.613 6.406 5.203 11.821 11.257 15.664 18.613.181.347.43.7.683 1.058.737 1.046 1.504 2.134.698 3.227-1.144 1.551-3.271 1.834-5.289 1.46-3.859-.714-7.641-.357-11.472.468-6.237 1.344-9.347 5.371-10.085 11.371-.398 3.236-.405 6.54.805 9.715 1.812 4.753 5.88 6.444 10.34 4.006 5.099-2.788 9.355-6.351 10.061-12.681.047-.427.15-.849.254-1.269l.054-.222.012-.052.015-.062.015-.067.012-.052c1.064-4.675 3.244-5.913 7.944-4.609 1.053.292 1.518 1.005 1.83 1.897 4.984 14.256 7.104 28.668 2.423 43.472-.259.818-.608 1.21-1.152 1.554l-.003.001c-.393.249-.889.561-1.526.556l-.088-.001-.197-.002c-1.542-.02-3.589-.045-3.833 1.435-.225 1.369.934 1.665 2.099 1.961.521.133 1.043.266 1.444.496a4.29 4.29 0 0 0 .242.128c.068.035.141.069.218.107l.141.068c.049.023.099.048.153.075.005.064.008-.064.011 0 .058 1.464-.487 2.963-1.03 4.266l-.397.978c-.163.423-.456.697-.83.865-.228.103-.486.167-.763.202-.743.095-1.484.244-2.211.427l-.183.045c-.765.185-1.599.387-1.555 1.423.043 1.015.843 1.427 1.743 1.494 1.141.086 1.679.471 1.818 1.101.096.441-.003 1.003-.229 1.667-2.423 7.12-6.383 13.325-11.181 19.05-.913 1.089-1.732 1.14-2.726.137l-3.426-3.376c-2.291-2.234-4.583-4.468-6.715-6.844-4.572-5.095-3.566-12.514 2.043-16.587 3.296-2.393 5.551-5.385 5.726-9.596.213-5.155-1.154-6.974-6.29-7.523l-2.76-.308c-5.923-.675-11.863-1.352-17.835-.291l-.715.122c-2.274.375-4.666.77-5.446 3.414-.867 2.939.649 5.235 2.908 7.013 1.002.79 2.056 1.515 3.109 2.24zm14.709 81.518c14.897-18.804 23.653-24.813 35.231-45.935 2.999-5.039 5.001-10.074 5.934-15.765 1.378 2.316 1.492 6.862 1.11 10.669-1.082 10.791-.157 7.059-5.115 16.282l-.002.004-1.927 3.604c-5.496 10.392-11.874 20.248-18.253 30.105l-8.226 12.866c-5.572 8.93-11.062 17.928-13.118 28.472-1.413 7.246-1.02 14.568-.558 21.87l.903 11.821v.002l.161 1.942.147 1.797c.134 1.652-.387 2.752-2.166 3.1-4.117.805-8.261 1.398-12.44 1.76-1.899.165-2.582-.605-2.78-2.579l-1.284-11.2-.001-.01v-.002l-1.529-13.769c-.826-9.186.385-18.096 4.516-26.503 5.125-10.431 12.235-19.491 19.397-28.531zm46.119 53.107c-3.18 3.509-6.617 6.694-10.426 9.491a101.69 101.69 0 0 1-29.347 15.079c-2.882.933-3.52.555-3.571-2.689l-.029-1.778c-.094-5.718-.189-11.444.058-17.152.365-8.457 2.201-16.647 5.977-24.279 3.395-6.863 7.499-13.321 11.742-19.689 1.201-1.802 2.326-2.1 3.948-.359 9.537 10.237 17.596 21.419 22.787 34.534 1.059 2.674.809 4.692-1.139 6.842zM186.442 149.259c-4.386-.957-8.84-.82-13.512-.375-5.401.585-10.512 1.331-14.946 4.018-.143.716.115 1.103.36 1.47l.103.157c3.215 5.087 8.047 7.461 13.84 8.078 2.841.302 5.244.559 6.068 4.188.77 3.39 3.495 5.405 6.866 6.428 2.812.854 5.713.832 8.494.358 3.823-.652 7.112-.072 10.143 2.393 1.933 1.572 3.986.6 4.335-1.902.157-1.122-.163-2.157-.544-3.192-.885-2.402-2.28-4.507-3.675-6.612-.787-1.187-1.574-2.375-2.269-3.615-3.392-6.054-8.478-9.914-15.263-11.394zm-26.418 54.937c6.651-.135 13.131.517 19.575 1.164l9.278.844c.414.03.848.098 1.225.26l.301.124h.002c.69.278 1.432.575 1.439 1.466.009 1.038-.943 1.309-1.73 1.534l-.012.003c-3.3.942-6.662.72-10.004.5l-1.528-.097c-4.764-.276-9.521-.683-14.278-1.09h-.004l-3.275-.278-11.768-1.138-.083-.01c-.879-.104-1.986-.235-2.55-1.668 3.03-1.751 6.253-1.676 9.55-1.598 1.279.029 2.568.06 3.862-.016zm8.589 24.614l2.85-.727 5.934-1.555c4.55-1.172 9.032-2.325 13.424-3.796l.215-.072c1.572-.523 3.2-1.065 3.764-2.884-.417-.883-1.097-.892-1.764-.9-.165-.002-.328-.004-.487-.02-1.652-.157-3.275.073-4.896.303l-1.619.215c-9.721 1.118-18.85 3.985-27.124 9.317l-.261.164c-.789.488-1.643 1.017-1.459 2.438 3.913-.547 7.627-1.504 11.423-2.483z"/><path d="M266.152 213.663c.043 1.015.843 1.427 1.743 1.494 1.141.086 1.679.471 1.818 1.101 7.083 1.608 16.604 5.116 23.131 7.8.183.076.371.16.56.246 1.179.533 2.479 1.121 3.823-.058.25-1.96-1.011-2.623-2.553-3.432-.485-.255-1-.525-1.504-.855-4.821-2.167-14.673-6.042-22.306-8.393-.228.103-.486.167-.763.202-.743.095-1.484.244-2.211.427l-.183.045c-.765.185-1.599.387-1.555 1.423zm6.779-12.473l-.088-.001-.197-.002c-1.542-.02-3.589-.045-3.833 1.435-.225 1.369.934 1.665 2.099 1.961.521.133 1.043.266 1.444.496l.242.128.218.107.141.068.153.075c.005.064.008-.064.011 0l12.853.334 12.605.833c1.177.044.564-1.35-1.352-2.215-4.976-2.246-15.238-3.622-22.767-3.776l-.003.001c-.393.249-.889.561-1.526.556zM260.95 19.405c6.563-3.797 10.394-.822 13.046 4.47 2.233 4.426.974 12.934 1.549 17.406l.001.004v.004l-.484 25.497c-.173 4.607-.627 9.207-1.099 13.795l-.032.372c-.072.933-.159 2.07-1.335 2.37-.911.232-1.477-.404-2.022-1.016-.146-.164-.291-.326-.44-.47-13.617-13.082-28.986-23.518-46.441-30.82-.155-.065-.32-.124-.487-.184-.793-.285-1.64-.589-1.752-1.604-.117-1.053.599-1.565 1.33-2.088a10.74 10.74 0 0 0 .51-.38c9.453-7.635 22.935-19.947 33.819-25.435.446-.225.899-.44 1.351-.655.841-.4 1.683-.801 2.486-1.266z"/></g><mask id="A" maskUnits="userSpaceOnUse" x="0" y="-1" width="344" height="380"><path d="M.094-.168h343v379h-343v-379z" fill="#fff"/><g fill="#000"><path d="M339.407 216.544c0 59.699-36.193 116.537-53.417 130.671s-23.075 15.383-30.374 18.634c-20.156 7.075-43.27 15.673-87.221 2.044-41.175-14.621-102.892-39.181-133.557-62.008C12.35 286.124.232 273.81 5.198 226.16c10.219-54.173 55.91-113.371 79.254-139.172 15.138-34.902 66.213-36.15 106.193-36.15 33.065 0 41.892 7.277 68.217 23.289 50.188 30.528 68.216 75.297 80.545 142.417z"/><path fill-rule="evenodd" d="M66.646 267.859c11.587 7.658 23.229 15.232 35.123 22.412l10.47 5.775.307.17.011.006.01.006.01.005.041.022 24.636 13.572c11.664 6.404 21.857 14.793 31.834 23.48 1.268 1.104 2.597 2.141 3.932 3.163.207.159.482.231.765.305.133.035.268.07.4.115.504-.946.136-1.695-.21-2.4-.086-.176-.171-.349-.241-.522-3.504-8.673-9.223-15.769-15.795-22.295-10.29-10.218-22.734-17.254-35.203-24.305l-.44-.249c-18.317-10.357-35.688-22.049-50.231-37.45-15.017-15.902-25.872-34.163-30.429-55.778-2.095-9.935-2.322-20.007-1.273-30.095 2.922-28.086 14.788-52.335 31.959-74.297.168-.215.328-.442.489-.669.382-.542.766-1.085 1.266-1.478a17.55 17.55 0 0 0 1.377-1.201c4.962-4.807 5.441-11.175 5.42-17.782-.046-14.857 1.763-29.495 5.527-43.874 1.39-5.31 3.325-10.425 6.144-15.161 3.022-5.075 5.456-6.132 11.052-4.482 8.052 2.374 15.496 6.123 22.486 10.716 8.169 5.368 16.077 11.115 23.092 17.961 2.061 2.011 4.337 1.803 6.713 1.587l.594-.053 4.625-.423c3.73-.354 7.46-.709 11.198-.84 14.329-.505 27.722 3.278 40.779 8.901 17.458 7.518 33.142 17.874 48.328 29.132 15.008 11.125 27.06 24.727 35.213 41.594 4.534 9.379 6.995 19.375 8.352 29.706 2.079 15.825-.163 31.124-5.002 46.17l-.004.011c-.254.792-.256.798-1.137 1.775-.822-.597-.683-1.351-.545-2.095.044-.217.076-.435.097-.655.147-2.064.353-4.123.56-6.182v-.001c.388-3.875.777-7.75.769-11.653-.041-20.636-5.868-39.61-16.656-57.093-7.605-12.325-17.161-22.83-29.347-30.849-10.768-7.086-22.253-8.784-34.679-5.435-16.419 4.426-31.436 11.935-45.957 20.541-20.697 12.266-39.413 27.039-55.767 44.725-9.979 10.792-18.98 22.279-25.558 35.547-4.505 9.088-6.999 18.527-6.215 28.717.341 4.43 1.81 8.532 3.757 12.471 6.566 13.286 16.455 23.933 27.097 33.971 10.889 10.272 22.686 19.434 34.484 28.597l.005.004.003.003 10.034 7.834c11.403 8.999 22.249 18.597 30.407 30.772 7.888 11.771 12.414 24.914 15.004 38.764.462 2.468.821 4.973.975 7.476.153 2.478-.751 3.116-3.193 2.873-21.893-2.186-42.827-8.191-63.394-15.744-26.301-9.659-51.039-22.612-75.78-35.567l-.191-.1-3.426-1.793-16.989-8.955-.008-.004-8.913-4.711-.159-.083-.006-.004c-.762-.399-1.533-.803-2.2-1.675 1.425-2.773 3.591-4.988 5.736-7.18l.001-.001 1.41-1.456 6.013-6.237.002-.002c5.555-5.718 11.109-11.435 16.157-17.621 1.408-1.726 2.61-1.537 4.285-.43l-.001.001zm159.529-62.482l1.412.981c3.819 2.2 6.187 5.092 7.528 8.944.898 2.58.413 4.732-1.1 6.877-4.22 5.987-10.154 9.774-16.592 12.84-3.032 1.444-6.131 2.75-9.229 4.055l-.002.001-.003.001-4.428 1.884c-.224.097-.455.186-.685.275-.932.361-1.872.724-2.485 1.656.346.826 1.023.82 1.663.813h.096c.052-.001.103-.001.154 0 10.878.148 21.031-2.486 30.18-8.395 4.031-2.604 7.763-2.408 11.518.096 2.168 1.444 4.261 3 6.393 4.584l2.898 2.139c-2.051 3.642-5.139 6.232-8.231 8.761-6.861 5.612-14.436 9.816-23.242 11.62-8.292 1.699-16.36.477-24.419-1.439-3.736-.888-7.377-2.101-11.017-3.313-4.256-1.418-8.51-2.836-12.91-3.731l-4.097-.796c-4.906-.93-9.809-1.86-14.5-3.632-13.726-5.185-23.146-15.229-30.609-27.432-3.723-6.087-5.784-12.798-6.075-19.819-.291-7.048 1.624-13.811 4.825-20.15 4.368-8.648 10.371-16.137 16.768-23.308l1.344-1.511c3.794-4.268 7.593-8.542 11.916-12.315 3.232-2.822 6.966-3.743 11.047-2.953 4.335.839 7.917-.046 11.502-2.809 10.27-7.917 20.777-15.538 32.546-21.166 5.652-2.703 11.553-4.888 17.868-4.941 9.641-.08 18.028 3.594 25.438 9.613 6.406 5.203 11.821 11.257 15.664 18.613.181.347.43.7.683 1.058.737 1.046 1.504 2.134.698 3.227-1.144 1.551-3.271 1.834-5.289 1.46-3.859-.714-7.641-.357-11.472.468-6.237 1.344-9.347 5.371-10.085 11.371-.398 3.236-.405 6.54.805 9.715 1.812 4.753 5.88 6.444 10.34 4.006 5.099-2.788 9.355-6.351 10.061-12.681.047-.427.15-.849.254-1.269l.054-.222.012-.052.015-.062.015-.067.012-.052c1.064-4.675 3.244-5.913 7.944-4.609 1.053.292 1.518 1.005 1.83 1.897 4.984 14.256 7.104 28.668 2.423 43.472-.259.818-.608 1.21-1.152 1.554l-.003.001c-.393.249-.889.561-1.526.556l-.088-.001-.197-.002c-1.542-.02-3.589-.045-3.833 1.435-.225 1.369.934 1.665 2.099 1.961.521.133 1.043.266 1.444.496a4.29 4.29 0 0 0 .242.128c.068.035.141.069.218.107l.141.068c.049.023.099.048.153.075.005.064.008-.064.011 0 .058 1.464-.487 2.963-1.03 4.266l-.397.978c-.163.423-.456.697-.83.865-.228.103-.486.167-.763.202-.743.095-1.484.244-2.211.427l-.183.045c-.765.185-1.599.387-1.555 1.423.043 1.015.843 1.427 1.743 1.494 1.141.086 1.679.471 1.818 1.101.096.441-.003 1.003-.229 1.667-2.423 7.12-6.383 13.325-11.181 19.05-.913 1.089-1.732 1.14-2.726.137l-3.426-3.376c-2.291-2.234-4.583-4.468-6.715-6.844-4.572-5.095-3.566-12.514 2.043-16.587 3.296-2.393 5.551-5.385 5.726-9.596.213-5.155-1.154-6.974-6.29-7.523l-2.76-.308c-5.923-.675-11.863-1.352-17.835-.291l-.715.122c-2.274.375-4.666.77-5.446 3.414-.867 2.939.649 5.235 2.908 7.013 1.002.79 2.056 1.515 3.109 2.24zm14.709 81.518c14.897-18.804 23.653-24.813 35.231-45.935 2.999-5.039 5.001-10.074 5.934-15.765 1.378 2.316 1.492 6.862 1.11 10.669-1.082 10.791-.157 7.059-5.115 16.282l-.002.004-1.927 3.604c-5.496 10.392-11.874 20.248-18.253 30.105l-8.226 12.866c-5.572 8.93-11.062 17.928-13.118 28.472-1.413 7.246-1.02 14.568-.558 21.87l.903 11.821v.002l.161 1.942.147 1.797c.134 1.652-.387 2.752-2.166 3.1-4.117.805-8.261 1.398-12.44 1.76-1.899.165-2.582-.605-2.78-2.579l-1.284-11.2-.001-.01v-.002l-1.529-13.769c-.826-9.186.385-18.096 4.516-26.503 5.125-10.431 12.235-19.491 19.397-28.531zm46.119 53.107c-3.18 3.509-6.617 6.694-10.426 9.491a101.69 101.69 0 0 1-29.347 15.079c-2.882.933-3.52.555-3.571-2.689l-.029-1.778c-.094-5.718-.189-11.444.058-17.152.365-8.457 2.201-16.647 5.977-24.279 3.395-6.863 7.499-13.321 11.742-19.689 1.201-1.802 2.326-2.1 3.948-.359 9.537 10.237 17.596 21.419 22.787 34.534 1.059 2.674.809 4.692-1.139 6.842zM186.442 149.259c-4.386-.957-8.84-.82-13.512-.375-5.401.585-10.512 1.331-14.946 4.018-.143.716.115 1.103.36 1.47l.103.157c3.215 5.087 8.047 7.461 13.84 8.078 2.841.302 5.244.559 6.068 4.188.77 3.39 3.495 5.405 6.866 6.428 2.812.854 5.713.832 8.494.358 3.823-.652 7.112-.072 10.143 2.393 1.933 1.572 3.986.6 4.335-1.902.157-1.122-.163-2.157-.544-3.192-.885-2.402-2.28-4.507-3.675-6.612-.787-1.187-1.574-2.375-2.269-3.615-3.392-6.054-8.478-9.914-15.263-11.394zm-26.418 54.937c6.651-.135 13.131.517 19.575 1.164l9.278.844c.414.03.848.098 1.225.26l.301.124h.002c.69.278 1.432.575 1.439 1.466.009 1.038-.943 1.309-1.73 1.534l-.012.003c-3.3.942-6.662.72-10.004.5l-1.528-.097c-4.764-.276-9.521-.683-14.278-1.09h-.004l-3.275-.278-11.768-1.138-.083-.01c-.879-.104-1.986-.235-2.55-1.668 3.03-1.751 6.253-1.676 9.55-1.598 1.279.029 2.568.06 3.862-.016zm8.589 24.614l2.85-.727 5.934-1.555c4.55-1.172 9.032-2.325 13.424-3.796l.215-.072c1.572-.523 3.2-1.065 3.764-2.884-.417-.883-1.097-.892-1.764-.9-.165-.002-.328-.004-.487-.02-1.652-.157-3.275.073-4.896.303l-1.619.215c-9.721 1.118-18.85 3.985-27.124 9.317l-.261.164c-.789.488-1.643 1.017-1.459 2.438 3.913-.547 7.627-1.504 11.423-2.483z"/><path d="M266.152 213.663c.043 1.015.843 1.427 1.743 1.494 1.141.086 1.679.471 1.818 1.101 7.083 1.608 16.604 5.116 23.131 7.8.183.076.371.16.56.246 1.179.533 2.479 1.121 3.823-.058.25-1.96-1.011-2.623-2.553-3.432-.485-.255-1-.525-1.504-.855-4.821-2.167-14.673-6.042-22.306-8.393-.228.103-.486.167-.763.202-.743.095-1.484.244-2.211.427l-.183.045c-.765.185-1.599.387-1.555 1.423zm6.779-12.473l-.088-.001-.197-.002c-1.542-.02-3.589-.045-3.833 1.435-.225 1.369.934 1.665 2.099 1.961.521.133 1.043.266 1.444.496l.242.128.218.107.141.068.153.075c.005.064.008-.064.011 0l12.853.334 12.605.833c1.177.044.564-1.35-1.352-2.215-4.976-2.246-15.238-3.622-22.767-3.776l-.003.001c-.393.249-.889.561-1.526.556zM260.95 19.405c6.563-3.797 10.394-.822 13.046 4.47 2.233 4.426.974 12.934 1.549 17.406l.001.004v.004l-.484 25.497c-.173 4.607-.627 9.207-1.099 13.795l-.032.372c-.072.933-.159 2.07-1.335 2.37-.911.232-1.477-.404-2.022-1.016-.146-.164-.291-.326-.44-.47-13.617-13.082-28.986-23.518-46.441-30.82-.155-.065-.32-.124-.487-.184-.793-.285-1.64-.589-1.752-1.604-.117-1.053.599-1.565 1.33-2.088a10.74 10.74 0 0 0 .51-.38c9.453-7.635 22.935-19.947 33.819-25.435.446-.225.899-.44 1.351-.655.841-.4 1.683-.801 2.486-1.266z"/></g></mask><g mask="url(#A)"><path d="M270.101 211.768l-.22-1.736h-.001l.221 1.736zm3.009-6.311l1.745-.132-.075-.992-.891-.443-.779 1.567zm-.267-4.268l-.019 1.75h.001l.018-1.75zm-3.79 14.923l-.377 1.709.01.002.367-1.711zm-.184-.038l-.364 1.712.008.001.007.002.349-1.715zm.844.184l-.388 1.707 2.687.609-.59-2.691-1.709.375zm4.744-15.624l.934 1.48h.001l-.935-1.48zM155.742 34.817l-.151-1.743-.007.001.158 1.742zm.003 0l-.159-1.743-.002.001.161 1.742zm-.003 0l.153 1.743.009-.001-.161-1.743-.001.001zm12.654 333.076l.737-1.587-133.557-62.008-.737 1.587-.737 1.587 133.557 62.009.737-1.588zm99.5-152.736l.131-1.745c-.115-.008-.198-.026-.249-.043s-.053-.024-.026-.004a.43.43 0 0 1 .116.141c.036.068.034.107.033.083l-1.748.074-1.75.074c.043 1.021.504 1.869 1.25 2.429.679.508 1.468.688 2.112.736l.131-1.745zm-.006-2.962l.426 1.697a17.07 17.07 0 0 1 2.006-.388l-.221-1.736-.22-1.736c-.826.105-1.636.269-2.416.465l.425 1.698zm5.042-11.005l.015-1.75c-.028 0-.056 0-.085-.001l-.018 1.75-.019 1.75.092.001.015-1.75zm-.088-.001l.019-1.75c-.063 0-.127-.001-.195-.002l-.021 1.75-.022 1.75.2.002.019-1.75zm-.197-.002l.022-1.75c-.713-.009-1.845-.034-2.833.203-1.018.244-2.458.93-2.748 2.698l1.726.284 1.727.284c-.01.062-.064.161-.132.217-.028.023.02-.026.243-.079.481-.116 1.144-.118 1.973-.107l.022-1.75zm-3.833 1.435l-1.726-.284c-.098.593-.067 1.215.184 1.808s.663 1.012 1.074 1.297c.72.5 1.651.713 2.135.836l.432-1.696.432-1.695-.723-.202c-.195-.066-.27-.111-.283-.12-.001 0 .023.016.056.055s.072.095.1.161c.061.144.031.215.046.123l-1.727-.283zm2.099 1.961l-.432 1.696c.588.15.853.231 1.003.318l.873-1.518.871-1.518c-.65-.373-1.429-.558-1.883-.673l-.432 1.695zm1.444.496l-.871 1.518.333.177.78-1.567.78-1.566-.151-.08-.871 1.518zm.242.128l-.78 1.567.24.117.757-1.577.76-1.578-.197-.095-.78 1.566zm.217.107l-.757 1.577.135.065.764-1.574.765-1.575-.147-.071-.76 1.578zm.142.068l-.764 1.574.137.067.78-1.566.779-1.567-.167-.083-.765 1.575zm-5.068 6.813l-.425-1.698-.169.042.412 1.701.412 1.7.196-.048-.426-1.697zm-.182.045l-.412-1.701c-.3.072-1.04.229-1.653.646-.399.267-.722.632-.938 1.06-.24.479-.323.991-.302 1.492l1.75-.074 1.748-.074c-.001-.018.005.081-.067.224s-.173.232-.223.266c-.036.025-.029.011.074-.023l.433-.116-.41-1.7zm-155.13 83.992l.847-1.532-.857 1.527-.844 1.532.854-1.527zm-.01-.005l.846-1.533-.856 1.527-.846 1.532.856-1.526zm-.01-.006l.846-1.533-.857 1.527-.845 1.532.856-1.526zm-.011-.006l.847-1.532-.308-.17-.845 1.532-.846 1.532.307.17.845-1.532zm-77.303 6.245l-.812 1.551.818-1.547.812-1.551-.818 1.547zm29.502 15.55l-.812 1.55.191.1.812-1.55.812-1.55-.191-.1-.812 1.55zm57.552-30.892l-.862 1.524.441.249.861-1.524.861-1.523-.44-.249-.861 1.523zm28.583-5.419l1.074-1.382-1.079 1.378-1.074 1.382 1.079-1.378zm149.092-92.385l1.666.536c.019-.058-.015.049.004-.012l-1.666-.535-1.666-.536 1.662.547zm-27.129 11.875l-.016 1.75.088.001.016-1.75.017-1.75-.088-.001-.017 1.75zm-9.428-42.87l-1.706-.387-.011.044 1.705.395 1.705.395.014-.059-1.707-.388zm-.027.119l-1.704-.401-.013.056 1.702.407 1.702.407.016-.068-1.703-.401zm-114.225 49.039l-.205 1.738.079.01.209-1.738.209-1.737-.087-.011-.205 1.738zm40.952 2.11l-.48-1.683.468 1.686.481 1.683-.469-1.686zm73.246-51.035l1.701.409.013-.054-1.702-.407-1.702-.407-.012.049 1.702.41zm-150.784 137.68l-.845 1.532.022.012.02.011.845-1.533.846-1.532-.022-.011c-.006-.004-.013-.008-.019-.011l-.847 1.532zm156.475-80.12l.377-1.709-.212-.044-.348 1.715-.349 1.715.156.032.376-1.709zm-.183-.038l.363-1.712-.238-.048-.334 1.718-.333 1.718.178.036.364-1.712zm1.231-4.306l.221 1.736c.399-.05.835-.15 1.263-.342l-.72-1.596-.72-1.595a.92.92 0 0 1-.264.061l.22 1.736zm-.388 4.49l.388-1.707-.68-.15-.368 1.711-.366 1.711.638.142.388-1.707zm0 0l1.71-.375c-.167-.763-.61-1.419-1.309-1.86-.633-.399-1.372-.557-2.087-.611l-.131 1.745-.131 1.745a2.35 2.35 0 0 1 .417.064c.082.022.094.036.066.018-.034-.021-.095-.07-.153-.152s-.082-.157-.091-.199l1.709-.375zm3.398-10.801l-1.745.131.007.074c.001.016.004.037.008.062l.017.1.019.08.034.119.03.083.046.108.075.143a1.56 1.56 0 0 0 .129.191l.099.116c.038.041.082.085.134.13a1.7 1.7 0 0 0 .416.27c.094.044.192.079.293.105.108.028.22.046.337.053a1.65 1.65 0 0 0 .66-.088c.168-.055.326-.137.469-.241.054-.039.106-.081.155-.126l.116-.116c.055-.061.106-.125.152-.194.038-.055.067-.105.09-.146l.055-.111.036-.086.043-.121.023-.081.014-.057.015-.075.007-.047.008-.052.003-.024-.006.039c-.001.011-.004.027-.007.046l-.007.038-.012.054c-.004.021-.012.05-.021.084l-.019.061-.029.083-.049.115c-.027.058-.057.115-.09.169l-.074.113-.111.138c-.044.05-.099.107-.167.166a1.8 1.8 0 0 1-.253.182c-.103.06-.226.119-.368.163a1.76 1.76 0 0 1-.472.08c-.169.004-.335-.015-.492-.056a1.72 1.72 0 0 1-.408-.164c-.116-.065-.212-.134-.289-.2s-.139-.131-.188-.188a1.8 1.8 0 0 1-.122-.159l-.08-.13-.054-.105-.038-.085-.046-.129-.027-.09-.016-.067-.017-.091-.009-.058-.007-.069c-.002-.015-.002-.028-.003-.037l-.002-.034 1.749-.069 1.748-.07-.002-.054-.004-.044-.008-.073-.009-.06c-.003-.023-.009-.055-.017-.092l-.016-.067-.027-.092-.047-.129-.037-.085-.055-.105-.079-.13-.122-.159c-.05-.057-.112-.122-.189-.188-.089-.076-.186-.143-.288-.201a1.83 1.83 0 0 0-.409-.163 1.74 1.74 0 0 0-.492-.056 1.8 1.8 0 0 0-.472.079c-.142.045-.265.103-.368.164-.09.053-.174.114-.253.182-.068.058-.123.115-.167.165l-.111.139-.075.113a1.96 1.96 0 0 0-.09.169l-.049.115-.029.083-.019.062-.022.086-.012.055-.007.039-.008.05-.004.03-.004.029.007-.046c.001-.011.004-.025.007-.042l.014-.072.014-.055.022-.08.043-.12.036-.085.055-.11c.027-.05.057-.099.089-.146.045-.068.096-.133.152-.194l.115-.116.156-.126c.118-.086.274-.176.468-.241a1.79 1.79 0 0 1 .316-.074 1.73 1.73 0 0 1 .345-.014c.116.007.229.025.336.053s.205.064.293.105a1.76 1.76 0 0 1 .416.27c.052.044.096.088.134.129l.099.117c.055.071.097.137.128.19l.075.143.046.107.03.083.034.117.018.078.017.096.007.054.004.055-1.744.132zm1.35-4.824l-.934-1.48-.003.002.934 1.479.935 1.48.002-.001-.934-1.48zm-.003.001l-.934-1.479-.428.244c-.089.039-.13.041-.149.041l-.015 1.75-.015 1.75c1.216.01 2.119-.601 2.475-.826l-.934-1.48zm32.254-57.85l1.736-.228c-1.397-10.633-5.855-20.8-10.393-30.189l-1.576.762-1.576.761c4.528 9.369 8.757 19.095 10.074 29.122l1.735-.228zm-10.233-29.655l1.576-.762c-8.293-17.157-20.545-30.97-35.747-42.239l-1.043 1.406-1.041 1.406c14.813 10.981 26.666 24.373 34.679 40.95l1.576-.761zm-35.214-41.595l1.043-1.406c-15.23-11.29-31.039-21.737-48.678-29.334l-.692 1.607-.693 1.607c17.278 7.44 32.836 17.706 47.979 28.932l1.042-1.407-.001.001zm-48.327-29.133l.692-1.606c-13.188-5.679-26.85-9.56-41.532-9.043l.06 1.749.062 1.749c13.974-.492 27.1 3.193 40.025 8.76l.693-1.607v-.002zm-63.909-9.171l1.222-1.252c-7.131-6.959-15.145-12.777-23.354-18.171l-.961 1.463-.96 1.463c8.129 5.342 15.931 11.018 22.831 17.751l1.222-1.252v-.002zm-23.092-17.961l.961-1.463c-7.1-4.666-14.701-8.5-22.953-10.932l-.495 1.679-.494 1.679c7.853 2.315 15.14 5.98 22.02 10.501l.961-1.464zM103.45 4.553l.495-1.679c-2.904-.856-5.398-1.146-7.651-.221-2.236.918-3.846 2.877-5.399 5.486l1.504.895 1.504.895c1.468-2.466 2.586-3.573 3.722-4.039 1.118-.459 2.639-.453 5.331.34l.495-1.679-.001.002zM92.398 9.035l-1.504-.895c-2.923 4.91-4.913 10.186-6.334 15.613l1.694.443 1.693.443c1.36-5.194 3.239-10.147 5.955-14.709l-1.504-.895zm-6.144 15.161l-1.694-.443c-3.804 14.529-5.63 29.318-5.583 44.323l1.75-.006 1.75-.004c-.046-14.71 1.745-29.197 5.47-43.425l-1.693-.443v-.002zM72.175 89.199l-1.379-1.078c-17.273 22.092-30.931 46.689-33.9 75.233l1.741.181 1.741.181c2.874-27.627 16.107-51.607 33.176-73.44l-1.379-1.077zm0 0l1.379 1.077c.199-.255.384-.516.539-.736l-1.43-1.009-1.43-1.009-.438.6 1.379 1.078.001-.001zm.489-.669l1.43 1.009c.413-.585.654-.904.918-1.111l-1.082-1.376-1.082-1.376c-.736.579-1.262 1.346-1.613 1.844l1.43 1.009-.001.001zm76.364-55.299l-1.222 1.251c2.701 2.636 5.787 2.287 8.094 2.077l-.159-1.743-.158-1.743c-2.446.223-3.913.289-5.333-1.096l-1.222 1.252v.002zm7.308 1.533l.148 1.744 4.641-.425-.164-1.742-.166-1.742-4.608.422.148 1.744.001-.001zm4.625-.423l.164 1.742c3.739-.355 7.418-.704 11.095-.833l-.062-1.749-.061-1.749c-3.799.134-7.581.494-11.302.847l.166 1.742zm-4.626.424l-.148-1.744-.601.053.159 1.743.157 1.743.582-.052-.149-1.743zm-.59.052l-.162-1.744-.001.001.16 1.743.161 1.743.001-.001-.159-1.742zm-.003 0l-.151-1.743h-.001l.151 1.742.152 1.745-.151-1.744zM80.727 68.07l-1.75.005c.021 6.609-.502 12.27-4.888 16.518l1.218 1.258 1.218 1.257c5.539-5.365 5.973-12.441 5.953-19.045l-1.75.005-.001.002zm-5.42 17.781l-1.218-1.258a16 16 0 0 1-1.241 1.083l1.082 1.376 1.082 1.376a19.48 19.48 0 0 0 1.513-1.32l-1.218-1.257zm264.101 130.693h3.5v-.318l-.058-.314-3.442.632zM168.396 367.893l-1.172 3.299.067.023.067.021 1.038-3.343zM5.198 226.16l-3.439-.649-.027.142-.015.144 3.481.363zM84.452 86.988l2.595 2.348.386-.427.229-.528-3.211-1.393h.001zM34.839 305.885l-2.311 2.629.106.094.114.084 2.091-2.807zm220.777 59.964l1.159 3.303.134-.048.131-.058-1.424-3.197zM101.77 290.27l-1.809 2.996.059.035.06.034 1.69-3.065zm-68.727 10.515l-3.113-1.601-1.011 1.967 1.343 1.758 2.781-2.124zm265.792-109.696l-2.056 2.832 2.547 1.849 2.107-2.337-2.598-2.344zm1.142-1.786l3.331 1.072v-.001l-3.331-1.071zM173.736 333.968l3.245-1.31v-.001l-3.245 1.311zm.451 2.922l-1.14 3.309 2.824.972 1.404-2.634-3.088-1.647zm53.402-130.532l-2.022 2.857.133.094.142.082 1.747-3.033zm48.024-7.278l-3.337-1.055h-.001l3.338 1.055zm-12.197-40.76l3.412.783.001-.006-3.413-.777zm-.362 1.724l3.478.388v-.001l-3.478-.387zm-9.559 82.084l3.05 1.717 1.529-2.714-2.519-1.833-2.06 2.83zm-20.809-6.819l1.898 2.94h.001l-1.899-2.94zm-32.093 7.582l-2.924-1.924-1.024 1.557.719 1.719 3.229-1.352zm75.524-1.931l-3.008-1.79-.031.053-.03.054 3.069 1.683zm5.934-15.765l3.007-1.79-4.909-8.249-1.552 9.473 3.454.566zm-5.472 124.298l-2.072-2.821-.005.004 2.077 2.817zM172.932 148.884l-.332-3.484-.023.002-.022.003.377 3.479zm5.425 17.911l3.413-.775v-.001l-3.413.776zm-20.371-13.893l-1.814-2.993-1.318.799-.301 1.512 3.433.682zm2.04 51.294l-.071-3.5-.067.002-.067.004.205 3.494zm30.078 5.395l.961 3.366.008-.002-.969-3.364zm-40.857-2.103l.417-3.475h-.004l-.413 3.475zm-2.633-1.678l-1.751-3.031-2.611 1.508 1.105 2.805 3.257-1.282zm24.851 22.273l.85 3.395.033-.008.033-.009-.916-3.378zm-14.273 3.21l-3.47.451.456 3.504 3.499-.489-.485-3.466zm37.61-11.517l3.343 1.037.404-1.301-.582-1.232-3.165 1.496zm-82.254 76.44l1.692-3.064-.001-.001-1.691 3.065zm.011.006l-1.692 3.063.001.001 1.691-3.064zm.01.006l1.703-3.059-.012-.006-1.691 3.065zm.01.005l-1.702 3.058.012.007 1.69-3.065zm43.31-261.117l-.303-3.487h-.007l-.007.001.317 3.486zm144.083 154.199l-3.331-1.072-.001.001 3.332 1.071zm-1.025-7.157l3.482.349.004-.037.003-.037-3.489-.275zm0-.001l-3.483-.349-.004.036-.002.037 3.489.276zm-148.072 99.539l2.163-2.752-.008-.006-.009-.006-2.146 2.764zm.005.004l-2.163 2.752.015.012.016.012 2.132-2.776zm.003.003l2.147-2.765-.007-.005-.007-.006-2.133 2.776zm-86.138 36.308l1.624-3.1v-.001l-1.624 3.101zm-20.423-10.752l-1.637 3.094.008.004.008.004 1.621-3.102zm-9.073-4.794l1.624-3.101-.009-.004-1.615 3.105zm-.006-.004l-1.624 3.101.009.004 1.615-3.105zm3.536-8.855l-2.49-2.46-.006.006-.006.006 2.502 2.448zm.001-.001l2.49 2.46.006-.007.006-.006-2.502-2.447zm7.424-7.693l2.51 2.439.002-.002-2.512-2.437zm.002-.002l-2.51-2.439-.002.002 2.512 2.437zm161.988-46.835l1.358 3.226.039-.017.038-.017-1.435-3.192zm55.114-80.3l-3.4-.834v.001l3.4.833zm.054-.223l3.402.821.001-.005-3.403-.816zm14.684 93.594l3.077 1.669.006-.012-3.083-1.657zm-.002.004l-3.076-1.669-.006.012 3.082 1.657zm-41.179 108.738l3.489-.276-.001-.014-3.488.29zm0 .002l-3.489.276.001.014 3.488-.29zm-18.363-5.19l3.477-.403-.01-.082-.013-.082-3.454.567zM155.89 35.115l.304 3.487h.007l.007-.001-.318-3.486zm107.514 123.256l3.41.787.001-.004-3.411-.783zm-.016.067l3.405.807.001-.004-3.406-.803zm-.015.062l3.404.815.002-.008-3.406-.807zm-55.178 80.573l-1.359-3.225-.039.016-.038.017 1.436 3.192zm-59.032-31.596l.413-3.475-.002-.001-.411 3.476zm15.126 1.426l-.298 3.487.022.002.021.002.255-3.491zm25.827.684l-.962-3.366-.007.003.969 3.363zm.29-3l-1.369 3.222.032.014.033.013 1.304-3.249zM44.33 307.262l1.637-3.094-.008-.004-.008-.004-1.621 3.102zm174.172 48.447l-3.477.403.001.01.002.009 3.474-.422zm-.001-.012l-3.475.423.009.072.012.072 3.454-.567zm-28.097-149.11l1.368-3.222-.031-.013-.033-.013-1.304 3.248zm-26.111 2.316l.298-3.487-.021-.002-.021-.001-.256 3.49zm128.877 11.056l1.918-2.928-.231-.151-.252-.114-1.435 3.193zm1.504.855l1.627-3.099h-.001l-1.626 3.099zm2.553 3.432l2.308 2.632.997-.875.167-1.315-3.472-.442zm-3.823.058l-1.452 3.185.011.005 1.441-3.19zm-.56-.246l1.341-3.233-.009-.004-1.332 3.237zm5.735-17.434l-.231 3.492.051.004.05.002.13-3.498zm-12.605-.833l.231-3.492-.05-.003-.051-.002-.13 3.497zm-15.109 5.775l-1.44-3.19-8.445 3.809 8.854 2.727 1.031-3.346zm-1.152 4.692l.774-3.413-5.373-1.22 1.18 5.382 3.419-.749zm4.747-15.625l-1.868-2.96-9.859 6.221 11.655.238.072-3.499zm-1.339 4.824l.111-3.499-3.758-.119.15 3.757 3.497-.139zm.875-181.582l-3.13 1.568.005.009 3.125-1.577zm1.55 17.413l3.499.105.008-.28-.036-.278-3.471.453zm-.001-.008l3.473-.439-.001-.006-3.472.446v-.001zm.001.004l-3.473.439.001.007.001.007 3.471-.453zM5.198 226.16l3.439.648c4.992-26.461 18.709-54.37 34.227-79.008 15.491-24.595 32.621-45.686 44.183-58.464l-2.595-2.348-2.595-2.347c-11.782 13.022-29.17 34.432-44.915 59.429-15.718 24.955-29.955 53.73-35.183 81.441l3.439.649zM84.452 86.988l3.21 1.393c6.928-15.973 22.177-24.585 41.38-29.151s41.57-4.892 61.603-4.892v-3.5-3.5c-19.946 0-43.107.298-63.222 5.082S89.451 66.666 81.241 85.596l3.211 1.392zm106.193-36.15v3.5c16.254 0 26.254 1.787 35.345 5.393 9.274 3.679 17.702 9.266 31.053 17.386l1.819-2.99 1.818-2.99c-12.973-7.891-22.121-13.95-32.108-17.912-10.171-4.035-21.116-5.887-37.927-5.887v3.5zm68.217 23.289l-1.819 2.99c48.888 29.736 66.65 73.248 78.921 140.059l3.443-.633 3.442-.632c-12.385-67.43-30.68-113.456-82.169-144.774l-1.818 2.99zm-90.466 293.766l1.17-3.298c-20.534-7.292-46.169-17.055-70.472-27.828-24.361-10.8-47.16-22.519-62.166-33.69l-2.089 2.808-2.091 2.807c15.659 11.657 39.051 23.632 63.509 34.474 24.515 10.868 50.326 20.696 70.967 28.026l1.172-3.299zM34.839 305.885l2.309-2.629c-11.293-9.923-19.371-17.493-24.238-28.221-4.849-10.688-6.686-24.958-4.231-48.512l-3.481-.363-3.481-.363c-2.511 24.095-.772 39.808 4.818 52.13 5.572 12.281 14.798 20.749 25.993 30.587l2.309-2.629h.002zm304.569-89.341h-3.501c0 29.177-8.856 57.789-19.908 80.914-11.096 23.219-24.18 40.446-32.229 47.052l2.22 2.705 2.22 2.706c9.175-7.528 22.799-25.787 34.105-49.445 11.351-23.753 20.593-53.41 20.593-83.932h-3.5zM285.99 347.215l-2.22-2.705c-8.505 6.979-14.092 10.686-18.373 13.035-4.365 2.396-7.269 3.354-11.205 5.107l1.424 3.197 1.424 3.197c3.364-1.498 7.034-2.79 11.725-5.364 4.776-2.621 10.726-6.606 19.445-13.761l-2.22-2.706zm-30.374 18.634l-1.16-3.302c-10.113 3.55-20.552 7.32-33.863 8.604-13.272 1.28-29.57.094-51.161-6.601l-1.036 3.343-1.038 3.343c22.36 6.934 39.594 8.263 53.907 6.883 14.272-1.377 25.468-5.442 35.51-8.967l-1.159-3.303zM101.77 290.27l1.808-2.997c-11.83-7.141-23.425-14.683-35.001-22.335l-1.93 2.92-1.93 2.919c11.597 7.666 23.287 15.272 35.244 22.489l1.809-2.996zm-35.123-22.412l1.93-2.92c-.947-.626-2.466-1.506-4.326-1.424-2.084.092-3.575 1.305-4.6 2.561l2.711 2.213 2.712 2.213c.19-.233.247-.242.154-.185-.053.033-.143.08-.269.12a1.51 1.51 0 0 1-.4.071c-.273.012-.42-.054-.377-.037.022.009.077.032.171.084s.214.124.364.223l1.93-2.919zm74.069 85.819l-1.206 3.286c20.713 7.607 41.954 13.714 64.253 15.94l.347-3.482.348-3.483c-21.488-2.145-42.115-8.047-62.535-15.546l-1.207 3.285zm63.394 15.744l-.347 3.482c1.253.125 3.471.237 5.195-1.241 1.86-1.594 1.926-3.922 1.839-5.329l-3.494.215-3.493.215c.027.437-.013.543.007.462.014-.055.054-.187.151-.357.114-.197.261-.373.434-.521.387-.331.731-.384.736-.385-.056.006-.113.009-.169.007-.121-.001-.288-.009-.511-.031l-.348 3.483zm3.193-2.873l3.494-.215c-.166-2.689-.549-5.343-1.028-7.904l-3.441.643-3.44.644c.444 2.374.779 4.729.922 7.047l3.493-.215zm-.975-7.476l3.441-.643c-2.652-14.178-7.317-27.802-15.537-40.07l-2.908 1.949-2.907 1.948c7.554 11.274 11.942 23.937 14.471 37.46l3.44-.644zm-15.004-38.764l2.908-1.949c-8.472-12.642-19.671-22.513-31.147-31.57l-2.168 2.747-2.168 2.748c11.329 8.941 21.823 18.265 29.668 29.972l2.907-1.948zm-74.933-67.21l2.401-2.546c-10.559-9.96-20.077-20.261-26.36-32.975l-3.138 1.55-3.138 1.551c6.848 13.858 17.109 24.85 27.833 34.966l2.402-2.546zm-27.097-33.971l3.138-1.55c-1.835-3.714-3.11-7.366-3.405-11.19l-3.49.269-3.49.268c.388 5.037 2.051 9.59 4.109 13.754l3.138-1.551zm-3.757-12.471l3.49-.269c-.724-9.413 1.561-18.221 5.861-26.893l-3.136-1.555-3.136-1.554c-4.711 9.502-7.413 19.573-6.569 30.539l3.49-.268zm6.215-28.717l3.136 1.555c6.373-12.854 15.132-24.063 24.991-34.725l-2.569-2.377-2.57-2.376c-10.098 10.921-19.341 22.687-26.124 36.369l3.136 1.554zm25.558-35.547l2.569 2.377c16.107-17.419 34.553-31.983 54.982-44.091l-1.784-3.011-1.785-3.011c-20.963 12.425-39.95 27.405-56.552 45.36l2.57 2.376zm55.767-44.725l1.784 3.011c14.393-8.53 29.1-15.864 45.084-20.173l-.911-3.379-.911-3.379c-16.854 4.543-32.182 12.227-46.831 20.909l1.785 3.011zm45.957-20.541l.911 3.379c11.489-3.097 21.938-1.539 31.844 4.979l1.924-2.923 1.924-2.924c-11.63-7.653-24.152-9.492-37.514-5.89l.911 3.379zm34.679 5.435l-1.924 2.923c11.698 7.698 20.914 17.807 28.293 29.764l2.978-1.838 2.979-1.837c-7.832-12.692-17.729-23.596-30.402-31.936l-1.924 2.925v-.001zm29.347 30.849l-2.978 1.838c10.473 16.974 16.094 35.321 16.134 55.262l3.5-.007 3.5-.007c-.043-21.33-6.076-40.932-17.177-58.923l-2.979 1.837zm16.917 75.893l3.331 1.071c4.955-15.408 7.302-31.238 5.14-47.697l-3.47.456-3.47.455c1.995 15.193-.142 29.959-4.864 44.643l3.333 1.072zm5.001-46.17l3.47-.456c-1.39-10.577-3.928-20.961-8.671-30.773l-3.151 1.523-3.151 1.524c4.324 8.945 6.708 18.554 8.033 28.637l3.47-.455zm-8.352-29.706l3.151-1.523c-8.432-17.446-20.884-31.47-36.279-42.883l-2.085 2.812-2.084 2.812c14.619 10.838 26.273 24.017 34.146 40.306l3.151-1.524zm-35.213-41.594l2.085-2.812c-15.274-11.323-31.208-21.861-49.029-29.535l-1.384 3.215-1.385 3.215c17.096 7.362 32.529 17.536 47.629 28.729l2.084-2.812zm-48.328-29.132l1.384-3.215c-13.319-5.736-27.249-9.714-42.286-9.184l.123 3.498.123 3.498c13.621-.48 26.476 3.108 39.271 8.618l1.385-3.215zm-63.909-9.171l2.445-2.505c-7.247-7.072-15.366-12.961-23.615-18.381l-1.922 2.925-1.922 2.924c8.09 5.316 15.786 10.921 22.57 17.541l2.444-2.504zm-23.092-17.961l1.922-2.925c-7.211-4.739-14.967-8.658-23.418-11.149l-.99 3.356-.99 3.358c7.653 2.256 14.784 5.835 21.554 10.284l1.922-2.924zM103.598 4.851l.99-3.357c-3.01-.887-5.99-1.32-8.811-.161-2.786 1.144-4.642 3.529-6.238 6.21l3.007 1.79 3.007 1.79c1.425-2.394 2.297-3.075 2.883-3.316.551-.226 1.586-.362 4.172.4l.99-3.356zM92.546 9.334l-3.007-1.791c-3.027 5.084-5.072 10.522-6.523 16.066l3.386.886 3.386.886c1.329-5.077 3.153-9.869 5.765-14.257l-3.007-1.79zm-6.144 15.161l-3.386-.886c-3.843 14.679-5.688 29.619-5.641 44.771l3.5-.011 3.5-.011c-.046-14.563 1.727-28.899 5.413-42.977l-3.386-.886zM72.323 89.499l-2.757-2.156c-17.465 22.338-29.677 47.192-32.683 76.09l3.481.362 3.481.362c2.837-27.274 14.359-50.918 31.235-72.504l-2.757-2.156v.002zm-31.959 74.296l-3.481-.362c-1.08 10.377-.854 20.822 1.329 31.179l3.425-.722 3.425-.722c-2.006-9.514-2.236-19.213-1.217-29.011l-3.48-.362h-.001zm1.273 30.095l-3.425.722c4.715 22.365 15.941 41.186 31.309 57.459l2.545-2.403 2.545-2.403c-14.666-15.531-25.15-33.232-29.549-54.097l-3.425.722zm30.429 55.778l-2.545 2.403c14.886 15.764 32.596 27.657 51.053 38.094l1.724-3.047 1.721-3.046c-18.176-10.278-35.207-21.768-49.408-36.807l-2.545 2.403zm85.875 62.005l-2.466 2.483c6.406 6.361 11.762 13.067 15.016 21.122l3.245-1.311 3.245-1.311c-3.753-9.291-9.836-16.776-16.573-23.466l-2.467 2.483zm15.081 24.797l2.128-2.78c-1.326-1.015-2.581-1.996-3.761-3.023l-2.299 2.64-2.298 2.639c1.356 1.18 2.757 2.273 4.102 3.302l2.128-2.778zm-3.932-3.163l2.299-2.64c-10.001-8.708-20.432-17.31-32.448-23.908l-1.685 3.067-1.684 3.068c11.312 6.211 21.266 14.385 31.22 23.052l2.298-2.639zm53.978-130.17l2.165-2.75c-.886-.698-1.39-1.32-1.63-1.824-.196-.413-.267-.835-.086-1.449l-3.357-.99-3.357-.991c-1.465 4.967 1.373 8.606 4.099 10.753l2.166-2.749zm23.848-9.95l-.372 3.479c2.379.254 2.78.729 2.816.773.077.094.451.663.349 3.125l3.497.145 3.497.145c.111-2.694-.092-5.611-1.929-7.853-1.879-2.292-4.729-3.001-7.486-3.295l-.372 3.481zm6.29 7.522l-3.497-.145c-.116 2.794-1.527 4.907-4.285 6.91l2.056 2.832 2.057 2.831c3.832-2.782 6.932-6.654 7.166-12.283l-3.497-.145zm-5.726 9.597l-2.056-2.832c-7.172 5.208-8.645 15.01-2.592 21.755l2.605-2.337 2.605-2.338c-3.09-3.443-2.553-8.478 1.495-11.417l-2.057-2.831zm8.098 26.806l-2.485 2.465c.763.769 2.138 1.848 4.063 1.746 1.897-.1 3.152-1.289 3.83-2.099l-2.682-2.248-2.683-2.249c-.235.28.154-.341 1.165-.394 1.038-.055 1.507.548 1.276.315l-2.484 2.464zm2.726-.136l2.682 2.248c4.987-5.949 9.211-12.527 11.812-20.171l-3.313-1.127-3.313-1.129c-2.246 6.598-5.941 12.43-10.551 17.93l2.683 2.249zm17.309-37.897l3.337 1.056c4.994-15.794 2.665-31.035-2.456-45.683l-3.304 1.155-3.304 1.155c4.847 13.864 6.758 27.448 2.39 41.263l3.337 1.054zm-2.423-43.472l3.304-1.155c-.23-.658-.609-1.529-1.313-2.33-.752-.855-1.727-1.463-2.885-1.784l-.936 3.373-.935 3.373c-.079-.024-.154-.06-.223-.105-.11-.068-.205-.151-.277-.234-.131-.148-.121-.217-.039.017l3.304-1.155zm-1.83-1.896l.936-3.373c-2.587-.718-5.493-1.057-8.022.404-2.562 1.479-3.675 4.184-4.271 6.801l3.413.776 3.413.777c.222-.975.46-1.572.66-1.925.059-.11.131-.212.214-.306.041-.043.064-.057.072-.062s.537-.305 2.65.281l.935-3.373zm-8.306 6.332l-3.479-.388c-.513 4.596-3.481 7.384-8.261 9.998l1.679 3.071 1.679 3.071c5.418-2.962 10.961-7.301 11.86-15.364l-3.478-.388zm-10.061 12.681l-1.679-3.071c-1.525.833-2.563.76-3.197.51-.667-.264-1.543-.986-2.193-2.692l-3.271 1.248-3.27 1.245c1.161 3.047 3.225 5.547 6.16 6.708 2.968 1.174 6.194.727 9.129-.877l-1.679-3.071zm-10.34-4.005l3.271-1.248c-.917-2.406-.97-5.051-.602-8.04l-3.474-.427-3.474-.429c-.429 3.485-.494 7.446 1.009 11.389l3.27-1.245zm-.805-9.715l3.474.427c.308-2.511 1.075-4.311 2.164-5.582 1.068-1.246 2.677-2.255 5.184-2.795l-.737-3.421-.737-3.422c-3.731.804-6.795 2.48-9.025 5.083-2.21 2.579-3.368 5.792-3.797 9.281l3.474.429zm10.085-11.371l.737 3.421c3.581-.772 6.861-1.048 10.098-.448l.637-3.441.637-3.441c-4.48-.83-8.764-.393-12.846.487l.737 3.422zm11.472-.468l-.637 3.441c2.46.455 6.386.373 8.743-2.824l-2.817-2.078-2.817-2.077c-.001.002-.004.008-.029.024-.033.019-.115.061-.271.098-.336.079-.865.099-1.535-.025l-.637 3.441zm3.908-5.745l3.102-1.622c-4.109-7.866-9.87-14.275-16.559-19.709l-2.207 2.718-2.206 2.717c6.121 4.972 11.192 10.671 14.768 17.516l3.102-1.62zm-15.664-18.613l2.207-2.718c-7.891-6.409-17.044-10.484-27.674-10.396l.029 3.501.03 3.5c8.651-.072 16.272 3.2 23.202 8.83l2.206-2.717zm-25.438-9.613l-.029-3.501c-7.089.06-13.55 2.511-19.349 5.284l1.51 3.158 1.51 3.156c5.505-2.633 10.847-4.55 16.388-4.597l-.03-3.5zm-17.868 4.941l-1.51-3.158c-12.123 5.798-22.874 13.612-33.173 21.551l2.137 2.773 2.137 2.771c10.242-7.895 20.504-15.321 31.919-20.781l-1.51-3.156zm-32.546 21.166l-2.137-2.773c-2.819 2.173-5.387 2.786-8.7 2.144l-.665 3.437-.665 3.436c5.358 1.037 9.953-.119 14.304-3.473l-2.137-2.771zm-11.502 2.808l.665-3.437c-5.105-.988-9.942.199-14.014 3.754l2.302 2.636 2.302 2.636c2.392-2.088 5.022-2.745 8.08-2.153l.665-3.436zm-24.307 16.779l-2.612-2.33c-6.461 7.243-12.705 15.002-17.28 24.06l3.124 1.578 3.124 1.579c4.161-8.238 9.923-15.458 16.256-22.558l-2.612-2.329zm-16.768 23.308l-3.124-1.578c-3.396 6.725-5.52 14.082-5.198 21.873l3.497-.145 3.497-.144c-.261-6.307 1.446-12.474 4.452-18.427l-3.124-1.579zm-4.825 20.15l-3.497.145c.316 7.627 2.559 14.915 6.586 21.5l2.986-1.826 2.986-1.826c-3.418-5.589-5.299-11.723-5.564-18.137l-3.497.144zm6.075 19.819l-2.986 1.826c7.698 12.588 17.648 23.323 32.358 28.88l1.237-3.274 1.237-3.274c-12.743-4.814-21.633-14.166-28.86-25.984l-2.986 1.826zm73.133 38.905l-.81 3.405c8.203 1.951 16.877 3.317 25.931 1.462l-.702-3.428-.703-3.43c-7.529 1.543-14.991.467-22.907-1.415l-.809 3.406zm24.419 1.439l.702 3.428c9.497-1.946 17.577-6.468 24.755-12.34l-2.215-2.709-2.216-2.709c-6.543 5.351-13.613 9.238-21.729 10.9l.703 3.43zm23.242-11.621l2.215 2.709c3.048-2.492 6.648-5.459 9.066-9.753l-3.05-1.717-3.049-1.718c-1.685 2.991-4.261 5.204-7.398 7.77l2.216 2.709zm-1.06-15.483l1.941-2.914c-2.29-1.526-4.802-2.497-7.53-2.55-2.738-.052-5.353.829-7.828 2.427l1.899 2.94 1.899 2.941c1.556-1.005 2.823-1.329 3.897-1.309 1.084.021 2.316.399 3.781 1.376l1.941-2.911zm-11.518-.097l-1.899-2.94c-8.517 5.501-17.98 7.975-28.233 7.835l-.048 3.501-.048 3.5c11.504.156 22.347-2.638 32.126-8.955l-1.898-2.941zm-15.261-.289l1.505 3.159c6.664-3.174 13.223-7.281 17.948-13.982l-2.861-2.018-2.861-2.016c-3.716 5.272-9.023 8.739-15.236 11.697l1.505 3.16zm16.592-12.841l2.861 2.018c.971-1.377 1.731-2.927 2.04-4.688.314-1.784.126-3.571-.495-5.356l-3.306 1.149-3.305 1.151c.277.795.295 1.372.212 1.845-.087.497-.326 1.097-.868 1.865l2.861 2.016zm1.1-6.877l3.306-1.149c-1.626-4.67-4.56-8.22-9.087-10.828l-1.747 3.033-1.747 3.033c3.112 1.793 4.913 4.026 5.97 7.062l3.305-1.151zm41 25.658l-3.069-1.682c-11.403 20.803-19.556 26.069-34.906 45.444l2.744 2.173 2.743 2.174c14.445-18.234 23.804-24.985 35.557-46.427l-3.069-1.682zm-35.231 45.935l-2.744-2.173c-7.133 9.004-14.479 18.343-19.795 29.161l3.142 1.543 3.141 1.545c4.936-10.045 11.809-18.827 18.999-27.902l-2.743-2.174zm-19.397 28.531l-3.142-1.543c-4.461 9.078-5.733 18.652-4.86 28.359l3.486-.313 3.486-.314c-.779-8.663.37-16.91 4.171-24.644l-3.141-1.545zm-1.702 51.485l-3.483.349c.117 1.159.431 2.932 1.803 4.258 1.507 1.457 3.411 1.575 4.763 1.458l-.303-3.487-.302-3.487c-.247.021-.243-.009-.092.027.301.08.577.237.799.456.271.262.36.501.369.527.003.008-.038-.112-.072-.452l-3.482.351zm2.78 2.578l.303 3.487c4.308-.374 8.574-.983 12.808-1.811l-.671-3.435-.671-3.436c-4.001.782-8.022 1.357-12.071 1.708l.302 3.487zm12.44-1.759l.671 3.435c1.522-.297 3.08-1.05 4.078-2.611.927-1.45 1-3.035.905-4.207l-3.488.282-3.489.283c.017.212.003.286.006.265.006-.032.039-.191.169-.394.137-.216.312-.368.457-.455.126-.075.162-.062.02-.034l.671 3.436zm.955-18.663l3.493-.221c-.464-7.345-.814-14.235.5-20.978l-3.435-.671-3.435-.67c-1.511 7.75-1.075 15.501-.616 22.761l3.493-.221zm.558-21.87l3.435.671c1.915-9.818 7.041-18.298 12.652-27.29l-2.969-1.852-2.97-1.854c-5.533 8.869-11.386 18.386-13.583 29.655l3.435.67zm46.641-91.332l3.483.348c.206-2.054.285-4.361.111-6.523-.166-2.06-.591-4.426-1.697-6.284l-3.007 1.789-3.008 1.79c.272.458.594 1.522.734 3.266.132 1.641.078 3.513-.098 5.265l3.482.349zm-1.11-10.67l-3.454-.565c-.851 5.192-2.675 9.815-5.488 14.541l3.008 1.789 3.008 1.789c3.185-5.352 5.365-10.798 6.38-16.988l-3.454-.566zm-5.472 124.298l2.072 2.821c4.022-2.954 7.631-6.303 10.947-9.962l-2.593-2.35-2.594-2.35c-3.044 3.359-6.309 6.38-9.904 9.02l2.072 2.821zm10.426-9.491l2.593 2.35c1.298-1.431 2.255-3.076 2.562-5.033.302-1.928-.092-3.757-.761-5.447l-3.255 1.289-3.254 1.288c.389.983.399 1.5.354 1.786-.04.259-.181.698-.833 1.417l2.594 2.35zm1.139-6.841l3.255-1.289c-5.401-13.644-13.751-25.188-23.481-35.632l-2.561 2.387-2.56 2.385c9.344 10.03 17.11 20.849 22.093 33.436l3.254-1.287zm-22.787-34.534l2.561-2.387c-.987-1.06-2.74-2.545-5.142-2.234-2.264.293-3.604 2.023-4.28 3.039l2.913 1.94 2.913 1.941c.202-.304.289-.369.246-.333-.062.053-.367.287-.894.355-.55.071-.951-.088-1.102-.168-.107-.058-.032-.044.225.232l2.56-2.385zm-3.948.358l-2.913-1.94c-4.261 6.396-8.468 13.006-11.966 20.077l3.137 1.552 3.137 1.552c3.292-6.654 7.294-12.96 11.518-19.3l-2.913-1.941zm-11.742 19.689l-3.137-1.552c-4.023 8.132-5.954 16.812-6.337 25.681l3.497.151 3.497.15c.347-8.045 2.088-15.745 5.617-22.878l-3.137-1.552zm-6.006 43.209l-3.5.056c.014.866.065 1.807.267 2.665.2.852.663 2.121 1.896 3.019 1.247.908 2.605.947 3.478.863.864-.084 1.745-.337 2.508-.584l-1.078-3.33-1.079-3.329c-.315.102-.555.171-.741.217-.091.023-.16.037-.21.047l-.056.009h.072c.093.004.186.014.277.031a2.4 2.4 0 0 1 .951.418c.706.515.82 1.139.796 1.038-.006-.026-.026-.127-.045-.34a11.89 11.89 0 0 1-.037-.834l-3.499.054zm3.571 2.689l1.078 3.33c10.838-3.509 20.875-8.611 30.346-15.591l-2.077-2.818-2.077-2.817a98.18 98.18 0 0 1-28.349 14.567l1.079 3.329zm-74.3-215.688l.332 3.485c4.563-.435 8.585-.529 12.434.31l.746-3.42.746-3.42c-4.923-1.074-9.81-.893-14.59-.438l.332 3.483zm13.512.375l-.746 3.42c5.778 1.261 10.038 4.478 12.956 9.685l3.053-1.711 3.053-1.711c-3.867-6.899-9.777-11.403-17.57-13.103l-.746 3.42zm21.207 21.621l-3.285 1.211c.369 1.001.389 1.312.363 1.498l3.466.483 3.467.484c.287-2.058-.334-3.817-.727-4.886l-3.284 1.21zm.544 3.192l-3.466-.483c-.061.436-.149.042.457-.23.289-.13.577-.143.782-.103.189.036.215.096.1.003l-2.208 2.716-2.208 2.714c1.721 1.4 4.11 2.086 6.405 1.054 2.203-.991 3.316-3.121 3.605-5.187l-3.467-.484zm-4.335 1.903l2.208-2.716c-3.962-3.223-8.328-3.914-12.939-3.127l.588 3.45.588 3.449c3.035-.517 5.247-.049 7.347 1.658l2.208-2.714zm-10.143-2.393l-.588-3.45c-2.415.411-4.739.395-6.889-.257l-1.017 3.348-1.016 3.349c3.474 1.055 6.951.995 10.098.459l-.588-3.449zm-8.494-.359l1.017-3.348c-2.724-.827-4.087-2.168-4.47-3.855l-3.413.776-3.413.774c1.157 5.093 5.244 7.782 9.263 9.002l1.016-3.349zm-6.866-6.427l3.413-.776c-.598-2.633-1.947-4.555-4.064-5.666-1.767-.927-3.808-1.096-5.047-1.228l-.37 3.482-.371 3.479c.743.079 1.272.138 1.737.228.449.087.68.175.798.238.084.044.118.075.161.135.057.081.203.321.33.882l3.413-.774zm-6.068-4.188l.37-3.482c-4.979-.53-8.73-2.476-11.252-6.466l-2.958 1.869-2.959 1.87c3.909 6.184 9.822 8.985 16.429 9.688l.37-3.479zm-14.303-9.705l1.814 2.993c3.696-2.24 8.082-2.944 13.508-3.532l-.376-3.48-.377-3.478c-5.375.582-11.211 1.37-16.383 4.504l1.814 2.993zm30.893 53.302l-.251 3.49c.053.004.096.008.131.013l.068.01c-.037-.011-.074-.024-.11-.04l1.387-3.214 1.386-3.214c-.905-.39-1.793-.495-2.361-.536l-.25 3.491zm-27.864 2.421l.294-3.488-11.645-1.125-.417 3.475-.417 3.475c3.982.478 7.968.821 11.892 1.15l.293-3.487zm-2.103 20.066l1.896 2.941c7.748-4.993 16.344-7.713 25.628-8.781l-.4-3.477-.4-3.478c-10.159 1.168-19.821 4.182-28.62 9.853l1.896 2.942zm-57.141 61.579l-1.691 3.065 10.47 5.775 1.691-3.065 1.691-3.064-10.472-5.777-1.689 3.066zm10.47 5.775l-1.691 3.064.307.17 1.691-3.063 1.691-3.065-.307-.17-1.691 3.064zm.307.171l-1.691 3.063.01.006 1.691-3.064 1.693-3.064-.012-.006-1.691 3.065zm.01.005l-1.691 3.064.012.006 1.689-3.064 1.692-3.065-.011-.006-1.691 3.065zm.01.006l-1.701 3.058.01.005 1.702-3.057 1.702-3.059-.01-.006-1.703 3.059zm60.454 40.243l-2.128 2.778c.874.669 1.898.883 2.008.912l.885-3.386.885-3.386-.135-.037c-.022-.006-.006-.002.03.011.065.024.303.114.583.328l-2.128 2.78zm.765.304l-.885 3.386.136.036c.027.008.026.009.009.003l1.14-3.31 1.139-3.309c-.278-.096-.542-.162-.654-.192l-.885 3.386zm.4.115l3.088 1.647c1.425-2.673.143-4.981-.156-5.59l-3.142 1.543-3.142 1.543c.054.106.105.213.152.321.017.042-.008-.009-.029-.123-.03-.171-.032-.346-.007-.518.022-.163.072-.322.147-.469l3.089 1.646zm-.21-2.4l3.142-1.543-.138-.289-3.245 1.31-3.245 1.311c.125.312.269.601.344.754l3.142-1.543zm-16.036-22.816l2.467-2.483c-10.679-10.605-23.546-17.857-35.947-24.869l-1.723 3.046-1.723 3.047c12.537 7.088 24.559 13.909 34.46 23.742l2.466-2.483zm-35.203-24.306l1.723-3.046-.442-.249-1.721 3.046-1.724 3.047.441.249 1.723-3.047zM72.323 89.499l2.757 2.154c.23-.294.439-.591.591-.805l-2.859-2.019-2.859-2.019-.387.533 2.757 2.156zm.489-.67l2.859 2.019a11.15 11.15 0 0 1 .441-.6c.108-.132.147-.159.128-.145l-2.163-2.751-2.163-2.751c-.973.765-1.641 1.755-1.961 2.209l2.859 2.019zm76.364-55.299l-2.444 2.504c3.342 3.261 7.238 2.771 9.476 2.567l-.319-3.485-.317-3.487c-1.273.116-2 .164-2.627.068-.473-.073-.866-.227-1.324-.674l-2.445 2.505v.002zm7.307 1.534l.296 3.487 4.66-.427-.331-3.484-.331-3.485-4.589.42.295 3.489zm4.625-.424l.331 3.484c3.747-.356 7.374-.698 10.99-.826l-.123-3.498-.123-3.498c-3.859.136-7.693.5-11.406.853l.331 3.485zm138.868 154.664l-3.332-1.073-.003.012 3.331 1.072 3.332 1.073.004-.012-3.332-1.072zm-.004.011l-3.332-1.071-.071.221-.017.049c.015-.037.031-.074.049-.11.029-.057.06-.111.09-.158.053-.083.079-.105-.006-.005s-.217.247-.449.505l2.599 2.343 2.598 2.345c.345-.381.816-.886 1.153-1.414.432-.674.621-1.33.718-1.633l-3.332-1.072zm-1.137 1.774l2.055-2.832c.124.09.318.266.49.55.148.245.245.516.287.798.029.203.013.33.015.317.003-.028.01-.08.049-.29l-3.441-.637-3.442-.637c-.046.248-.257 1.207-.111 2.232.185 1.3.867 2.479 2.042 3.331l2.056-2.832zm-.545-2.094l3.441.637c.034-.183.115-.599.147-1.043l-3.491-.25-3.492-.248c.002-.024.003-.02-.005.031a8.94 8.94 0 0 1-.042.236l3.442.637zm.097-.656l3.491.25c.143-2.005.344-4.014.551-6.082l-3.482-.349-3.483-.349-.569 6.282 3.492.248zm.56-6.181l3.489.275-3.489-.276-3.489-.276-.001.001 3.49.276zm0-.001l3.482.349c.386-3.845.795-7.899.787-12.01l-3.5.007-3.5.008c.007 3.695-.36 7.392-.752 11.297l3.483.349zm-182.556 70.941l-2.402 2.547c11.032 10.406 22.963 19.669 34.739 28.815l2.147-2.764 2.146-2.764c-11.819-9.18-23.482-18.243-34.229-28.38l-2.401 2.546zm34.484 28.598l-2.164 2.751.006.005 2.163-2.752 2.164-2.751-.006-.005-2.163 2.752zm.005.004l-2.132 2.776.003.002 2.132-2.775 2.133-2.776-.003-.002-2.133 2.775zm.003.003l-2.147 2.764 10.013 7.817 2.168-2.747 2.168-2.747-10.055-7.852-2.147 2.765zm-10.167 71.975l1.207-3.286c-26.051-9.567-50.589-22.409-75.363-35.381l-1.624 3.1-1.624 3.101c24.707 12.937 49.645 26.001 76.197 35.752l1.206-3.286h.001zm-75.78-35.567l1.624-3.1-.191-.1-1.624 3.1-1.624 3.101.191.1 1.624-3.101zm-.191-.1l1.624-3.101-3.427-1.793-1.623 3.101-1.623 3.101 3.425 1.793 1.624-3.101zm-20.423-10.752l1.637-3.094-8.917-4.712-1.633 3.095-1.633 3.096 8.909 4.709 1.637-3.094zm-8.913-4.711l1.633-3.095-.169-.089-1.624 3.101-1.623 3.1.15.079 1.633-3.096zm-.16-.083l1.616-3.105-.006-.004-1.616 3.105-1.614 3.105.006.004 1.614-3.105zm-.006-.004l1.625-3.1c-.766-.401-.893-.504-1.042-.7l-2.781 2.125-2.781 2.124c1.184 1.55 2.599 2.254 3.357 2.652l1.624-3.101h-.002zm-2.198-1.675l3.112 1.6c1.144-2.226 2.918-4.076 5.125-6.333l-2.503-2.447-2.502-2.448c-2.082 2.129-4.639 4.708-6.346 8.027l3.114 1.601zm5.734-7.18l2.491 2.46v-.001l-2.49-2.46-2.489-2.46-.002.001 2.49 2.46zm.001-.001l2.502 2.447 1.447-1.493-2.538-2.41-2.538-2.41-1.374 1.419 2.501 2.447zm7.425-7.693l2.511 2.437.003-.002-2.513-2.437-2.512-2.437-.001.002 2.512 2.437zm.001-.002l2.51 2.439c5.537-5.7 11.2-11.524 16.359-17.847l-2.712-2.213-2.712-2.213c-4.936 6.049-10.383 11.659-15.955 17.395l2.51 2.439zm179.971-80.533l-1.985 2.883 1.375.955 2.022-2.857 2.022-2.857-1.449-1.007-1.985 2.883zm-17.982 33.698l-1.358-3.226-.005.002 1.36 3.225 1.358 3.226.002-.001-1.357-3.226zm-.003.001l-1.36-3.225-4.46 1.897 1.392 3.212 1.392 3.211 4.394-1.869-1.358-3.226zm-4.428 1.884l-1.392-3.212c-.149.065-.315.129-.557.223l1.263 3.264 1.263 3.265c.22-.085.515-.199.815-.329l-1.392-3.211zm-.686.275l-1.263-3.264c-.794.307-2.83.996-4.146 2.996l2.924 1.924 2.924 1.924c-.051.078-.103.096-.023.049.052-.031.138-.075.283-.139a17.42 17.42 0 0 1 .564-.225l-1.263-3.265zm-2.485 1.656l-3.228 1.352c.55 1.314 1.554 2.243 2.81 2.676.966.333 1.927.287 2.114.285l-.032-3.5-.034-3.499h-.196c.021.002.19.014.429.096.319.112.612.29.857.523.282.265.434.537.509.715l-3.229 1.352zm1.664.813l.034 3.5h.084l-.023-3.5-.022-3.5-.107.001.034 3.499zm.095 0l.023 3.5c.028-.001.056-.001.084 0l.048-3.5.048-3.5a8.44 8.44 0 0 0-.225 0l.022 3.5zm41.853-8.299l-1.941 2.912c2.08 1.386 4.102 2.888 6.246 4.481l2.088-2.809 2.086-2.809c-2.119-1.575-4.284-3.185-6.539-4.688l-1.94 2.913zm6.393 4.584l-2.088 2.809 2.926 2.16 2.06-2.83 2.06-2.83-2.872-2.118-2.086 2.809zm-52.994 21.081l.809-3.405c-3.56-.846-7.057-2.008-10.721-3.229l-1.105 3.321-1.106 3.32c3.615 1.205 7.402 2.469 11.313 3.398l.81-3.405zm-11.017-3.313l1.105-3.321c-4.223-1.407-8.675-2.895-13.317-3.84l-.698 3.43-.699 3.429c4.159.847 8.213 2.193 12.503 3.622l1.106-3.32zm-12.91-3.731l.698-3.43-4.144-.805-.651 3.439-.652 3.439 4.05.786.699-3.429zm-4.097-.796l.651-3.439c-4.956-.94-9.556-1.821-13.914-3.467l-1.237 3.274-1.237 3.274c5.024 1.898 10.229 2.876 15.085 3.797l.652-3.439zm-29.592-94.341l2.612 2.329 1.349-1.514-2.617-2.326-2.616-2.325-1.339 1.506 2.611 2.33zm1.344-1.511l2.617 2.326c3.818-4.296 7.474-8.401 11.602-12.005l-2.303-2.636-2.301-2.637c-4.517 3.943-8.461 8.387-12.231 12.627l2.616 2.325zm125.982-15.958l-3.102 1.621c.309.592.704 1.142.923 1.453l2.862-2.016 2.86-2.017c-.285-.405-.388-.561-.441-.662l-3.102 1.621zm.683 1.058l-2.861 2.017c.197.279.316.45.41.603s.089.172.065.102c-.029-.085-.099-.338-.06-.695.042-.384.189-.689.327-.877l2.817 2.077 2.817 2.077c1.217-1.649 1.2-3.442.727-4.834-.378-1.112-1.092-2.076-1.382-2.487l-2.86 2.017zm-4.942 17.566l3.477.387c.018-.163.063-.364.176-.823l-3.4-.833-3.399-.833c-.094.382-.256 1.024-.333 1.714l3.479.388zm.253-1.269l3.4.833.057-.235-3.402-.82-3.403-.82-.051.208 3.399.834zm8.784 50.949l-3.23-1.346-.434 1.067 3.268 1.257 3.266 1.257.362-.889-3.232-1.346zm-16.514 27.389l2.484-2.464-3.466-3.418-2.443 2.506-2.443 2.506 3.384 3.335 2.484-2.465zm-3.425-3.376l2.443-2.506c-2.305-2.248-4.513-4.401-6.554-6.676l-2.604 2.338-2.605 2.337c2.223 2.478 4.6 4.793 6.877 7.013l2.443-2.506zm-5.236-40.55l.372-3.48-2.737-.306-.396 3.478-.395 3.477 2.784.311.372-3.48zm-2.761-.308l.396-3.478c-5.839-.665-12.286-1.424-18.842-.259l.612 3.446.613 3.446c5.387-.957 10.819-.362 16.826.322l.395-3.477zm-17.834-.291l-.612-3.446-.675.114.571 3.454.571 3.453.758-.129-.613-3.446zm-.716.122l-.571-3.454c-1.021.169-2.72.423-4.242 1.163-.965.454-1.82 1.109-2.508 1.923a7.41 7.41 0 0 0-1.481 2.792l3.356.99 3.358.991c.059-.201.114-.256.117-.259.009-.011.057-.063.219-.142.176-.086.443-.18.856-.278.42-.099.877-.176 1.467-.273l-.571-3.453zm-2.537 10.427l-2.166 2.75c1.106.871 2.252 1.659 3.289 2.373l1.985-2.883 1.985-2.883c-1.068-.735-2.03-1.398-2.929-2.106l-2.164 2.749zm60.092 32.727l-3.481-.349-.556 5.77c-.136 1.253-.246 1.782-.385 2.2-.146.435-.376.912-1.004 2.028l-2.77 4.976 3.082 1.657 3.083 1.657 2.707-4.859c.627-1.116 1.163-2.109 1.541-3.242.385-1.152.556-2.289.705-3.659l.562-5.83-3.484-.349zm-5.114 16.282l-3.076-1.668-.002.003 3.076 1.669 3.077 1.669.002-.004-3.077-1.669zm-.002.004l-3.082-1.657-1.94 3.625 3.095 1.636 3.094 1.637 1.916-3.584-3.083-1.657zm-1.927 3.604l-3.095-1.636c-5.412 10.233-11.704 19.961-18.097 29.84l2.938 1.901 2.939 1.902c6.365-9.835 12.829-19.82 18.409-30.37l-3.094-1.637zm-18.254 30.105l-2.938-1.901-8.257 12.914 2.97 1.853 2.969 1.853 8.195-12.817-2.939-1.902zm-21.902 63.208l-3.492.221.908 11.889 3.487-.289 3.489-.29-.899-11.752-3.493.221zm.903 11.821l-3.489.275v.003l3.489-.276 3.49-.275-.001-.003-3.489.276zm0 .002l-3.487.29.159 1.939 3.489-.287 3.489-.288-.161-1.943-3.489.289zm.161 1.942l-3.489.287.148 1.793 3.488-.283 3.489-.282-.147-1.803-3.489.288zm6.636-.949l3.498-.055-.028-1.781-3.5.058-3.5.057.03 1.777 3.5-.056zm-.03-1.778l3.5-.058c-.094-5.735-.186-11.357.056-16.943l-3.498-.151-3.496-.151c-.252 5.829-.156 11.66-.062 17.36l3.5-.057zm-85.645-207.203l-3.433-.682c-.183.921-.133 1.814.146 2.653.247.742.641 1.3.734 1.44l2.913-1.941 2.912-1.942c-.151-.226-.009-.045.083.233.055.163.091.342.101.525a1.55 1.55 0 0 1-.024.397l-3.432-.683zm.36 1.47l-2.913 1.941.057.086 2.958-1.87 2.959-1.87-.149-.229-2.912 1.942zm49.304 16.508l3.285-1.21c-1.049-2.848-2.684-5.286-4.043-7.335l-2.916 1.933-2.918 1.933c1.432 2.161 2.588 3.932 3.308 5.889l3.284-1.21zm-3.674-6.612l2.916-1.933c-.799-1.206-1.511-2.286-2.132-3.394l-3.054 1.712-3.052 1.711c.769 1.373 1.63 2.668 2.404 3.837l2.918-1.933zM46.204 285.911l-2.51-2.439-6.042 6.266 2.539 2.41 2.538 2.41 5.986-6.208-2.51-2.439h-.001zM156.483 35.064l-.295-3.489-.616.055.318 3.485.318 3.486.571-.05-.296-3.487zm-.593.051l-.303-3.486h-.001l.303 3.487.304 3.487.001-.001-.304-3.487zm-18.634 274.711l1.684-3.068-24.63-13.568-1.69 3.064-1.692 3.065 24.643 13.575 1.685-3.068zm-24.636-13.572l1.69-3.064-.042-.023-1.69 3.065-1.69 3.065.04.022 1.692-3.065zm150.784-137.883l-3.411-.787-.012.051 3.407.803 3.406.803c.007-.026.013-.054.02-.083l-3.41-.787zm-.031.129l-3.404-.815-.012.051 3.404.816 3.403.815.013-.052-3.404-.815zm-55.178 80.573l1.358 3.226 9.377-4.121-1.506-3.16-1.505-3.16c-2.948 1.404-5.972 2.679-9.083 3.99l1.359 3.225zM179.6 205.359l.35-3.482c-6.412-.645-13.1-1.321-19.996-1.182l.071 3.5.07 3.499c6.406-.13 12.679.497 19.155 1.148l.35-3.483zm-19.575-1.164l-.205-3.494c-1.127.066-2.273.041-3.575.011l-.082 3.499-.081 3.499c1.255.029 2.687.064 4.148-.021l-.205-3.494zm-3.862.016l.082-3.499c-3.154-.074-7.375-.249-11.383 2.066l1.751 3.031 1.75 3.03c2.053-1.186 4.279-1.21 7.719-1.129l.081-3.499zm-9.55 1.598l-3.257 1.282c.594 1.509 1.611 2.572 2.869 3.191 1.077.53 2.169.629 2.527.671l.411-3.476.411-3.476c-.24-.028-.324-.04-.386-.053-.046-.009.016-.002.127.053a1.39 1.39 0 0 1 .395.298c.122.134.161.233.159.227l-3.256 1.283zm14.402 2.816l-.294 3.487 3.27.278.298-3.487.299-3.487-3.28-.279-.293 3.488zm17.556 1.368l-.202 3.494 1.5.095.23-3.492.231-3.493-1.556-.098-.203 3.494zm1.528.097l-.23 3.492c3.241.214 7.215.51 11.195-.626l-.961-3.366-.96-3.365c-2.621.748-5.371.6-8.813.372l-.231 3.493zm10.004-.5l.969 3.364.011-.004-.967-3.363-.969-3.363-.012.003.968 3.363zm.013-.003l.96 3.366c.266-.076 1.276-.331 2.157-.925 1.148-.773 2.128-2.128 2.112-4.005l-3.5.03-3.5.029c-.002-.303.072-.712.308-1.124a2.21 2.21 0 0 1 .671-.736c.152-.103.245-.13.189-.109a5.69 5.69 0 0 1-.359.108l.962 3.366zm1.729-1.534l3.5-.03c-.014-1.628-.789-2.867-1.763-3.655-.758-.612-1.644-.937-1.873-1.029l-1.303 3.248-1.304 3.249c.193.077.254.103.293.122.032.015-.068-.028-.214-.146-.239-.197-.435-.441-.576-.718-.191-.368-.257-.73-.26-1.012l3.5-.029zm-2.967-1.85l.25-3.491c-3.036-.218-6.073-.523-9.178-.835l-.35 3.482-.35 3.483 9.377.852.251-3.491zM61.319 316.217l1.623-3.1-16.975-8.949-1.637 3.094-1.637 3.094 17.003 8.962 1.623-3.101zM263.373 158.5l3.406.807.014-.062-3.405-.807-3.406-.807-.015.062 3.406.807zm.031-.129l3.411.783.012-.052-3.411-.783-3.412-.782-.012.052 3.412.782zm-43.618 208.538l3.483-.35-1.293-11.273-3.474.423-3.474.422 1.275 11.128 3.483-.35zm-1.285-11.212l3.474-.422-1.517-13.661-3.486.314-3.486.313c.419 4.662.984 9.302 1.54 13.879l3.475-.423zm-28.398-149.234l-1.386 3.214c.146.063.289.12.383.158l1.304-3.248 1.304-3.248-.219-.09-1.386 3.214zm.301.124l-1.368 3.222h.001l1.369-3.222 1.368-3.221-.002-.001-1.368 3.222zm-11.833 3.406l.203-3.494c-4.709-.273-9.418-.676-14.183-1.083l-.298 3.487-.298 3.488 14.374 1.096.202-3.494zm-29.324-2.506l.412-3.475-.083-.01-.413 3.475-.413 3.476.083.01.414-3.476zm19.367 21.322l.873 3.389 2.827-.721-.85-3.395-.85-3.395-2.874.733.874 3.389zm2.85-.727l.916 3.378 5.891-1.544-.873-3.389-.872-3.39-5.978 1.567.916 3.378zm5.934-1.555l.873 3.389c4.529-1.166 9.132-2.349 13.663-3.866l-1.112-3.319-1.111-3.319c-4.255 1.425-8.615 2.549-13.185 3.725l.872 3.39zm13.424-3.796l1.111 3.319.209-.07-1.105-3.321-1.105-3.321-.221.074 1.111 3.319zm.215-.072l1.105 3.321c1.255-.417 4.83-1.387 6.002-5.168l-3.343-1.037-3.343-1.036c-.009.031-.005.007.025-.03.024-.03.021-.013-.062.04-.093.058-.247.139-.51.244-.271.108-.569.209-.979.345l1.105 3.321zm3.764-2.884l3.165-1.496c-.571-1.207-1.511-2.108-2.733-2.562-.973-.362-1.94-.339-2.151-.342l-.045 3.5-.045 3.499.207.005a1.67 1.67 0 0 1-.406-.102c-.244-.09-.511-.242-.749-.466-.168-.153-.306-.336-.407-.54l3.164-1.496zm-1.764-.9l.045-3.5-.175-.003-.025-.001-.332 3.484-.333 3.485c.327.031.637.033.775.034l.045-3.499zm-.487-.02l.332-3.484c-2.132-.203-4.165.101-5.719.321l.491 3.466.491 3.465c1.689-.239 2.901-.395 4.072-.283l.333-3.485zm-4.896.303l-.491-3.466-1.528.204.4 3.477.4 3.477c.594-.069 1.179-.152 1.71-.227l-.491-3.465zm-28.743 9.532l-1.896-2.942c-.054.035-.114.072-.208.13l1.843 2.976 1.842 2.976.316-.198-1.897-2.942zm-.261.164l-1.843-2.976c-.293.181-1.271.744-2.012 1.693-.905 1.161-1.279 2.602-1.074 4.172l3.47-.451 3.471-.452c.003.02.019.177-.043.417-.064.248-.181.462-.303.618-.109.139-.191.195-.159.171.046-.034.116-.08.335-.216l-1.842-2.976zm-1.459 2.438l.485 3.466c4.141-.579 8.045-1.589 11.811-2.56l-.873-3.389-.874-3.389c-3.825.986-7.349 1.89-11.033 2.405l.484 3.467zm135.979-11.333l-1.918 2.928c.667.436 1.328.781 1.796 1.026l1.626-3.099 1.626-3.099c-.503-.265-.872-.461-1.212-.684l-1.918 2.928zm1.504.855l-1.626 3.099.508.27c.147.081.26.146.35.203.191.119.206.152.155.098-.073-.079-.189-.241-.257-.463-.064-.21-.036-.312-.049-.217l3.472.442 3.472.442c.247-1.934-.279-3.648-1.515-4.975-.966-1.037-2.267-1.675-2.883-1.998l-1.627 3.099zm2.553 3.432l-2.307-2.631c-.008.007.082-.072.27-.13s.345-.058.424-.049c.058.006.034.012-.114-.042a4.19 4.19 0 0 1-.269-.108l-.386-.171-1.441 3.189-1.441 3.19c.482.218 1.626.77 2.931.904 1.572.163 3.209-.265 4.641-1.52l-2.308-2.632zm-3.823.058l1.452-3.184a23.52 23.52 0 0 0-.671-.295l-1.341 3.233-1.341 3.233.449.198 1.452-3.185zm3.823-19.895l-1.44 3.19c.577.26.457.401.202-.068-.069-.126-.73-1.373.099-2.837.899-1.588 2.461-1.574 2.621-1.568l-.13 3.498-.13 3.498c.749.027 2.675-.115 3.731-1.98.984-1.74.271-3.381-.043-3.958-.746-1.371-2.13-2.36-3.469-2.965l-1.441 3.19zm1.352 2.215l.231-3.492-12.605-.833-.231 3.492-.231 3.493 12.605.832.231-3.492zM44.33 307.262l1.621-3.102-.008-.004-1.621 3.103-1.621 3.101.008.004 1.621-3.102zm163.865-68.189l-1.436-3.192-.001.001 1.435 3.192 1.435 3.192.002-.001-1.435-3.192zm10.307 116.636l3.477-.403-.001-.01-3.477.403-3.477.403.001.01 3.477-.403zm-.001-.01l3.454-.567-.001-.001-3.453.566-3.454.567v.002l3.454-.567zm-54.208-146.796l.256-3.49-.004-.001-.256 3.491-.255 3.491h.004l.255-3.491zm106.572 2.663l-1.031 3.346c7.478 2.302 17.194 6.124 21.902 8.239l1.434-3.192 1.435-3.193c-4.936-2.217-14.923-6.146-22.711-8.545l-1.029 3.345zm0 0l1.438 3.191c1.113-.502 2.126-1.418 2.657-2.799l-3.266-1.257-3.267-1.257c.086-.223.231-.461.439-.673.203-.205.409-.327.559-.395l1.44 3.19zm21.979 12.492l1.332-3.237c-6.574-2.703-16.313-6.302-23.689-7.976l-.774 3.413-.775 3.413c6.79 1.542 16.094 4.959 22.575 7.624l1.331-3.237zm-23.36-6.133l3.313 1.127c.269-.789.646-2.122.334-3.544l-3.418.75-3.419.749c-.028-.123-.043-.248-.045-.375 0-.081.007-.129.008-.134s-.003.017-.017.071-.036.129-.069.228l3.313 1.128zm4.976-17.292l-.072 3.499c3.605.074 7.897.442 11.874 1.062 4.05.632 7.48 1.482 9.525 2.405l1.44-3.19 1.441-3.19c-2.931-1.323-7.12-2.285-11.327-2.941-4.241-.657-8.52-1.039-12.81-1.144l-.071 3.499zm0 0l1.868 2.96c.609-.376 1.146-.857 1.587-1.422.5-.649.816-1.348 1.034-2.036l-3.337-1.056-3.338-1.055c-.04.128-.028.035.097-.127.06-.078.122-.14.174-.185s.072-.055.047-.039l1.868 2.96zm11.514 5.158l.13-3.497-12.872-.336-.111 3.499-.111 3.498 12.834.334.13-3.498zm-12.853-.334l-3.497.139c.024.617-.22 1.476-.764 2.781l3.231 1.346 3.231 1.346c.542-1.3 1.388-3.439 1.296-5.752l-3.497.14zM80.875 68.369l-3.5.011c.021 6.612-.546 11.566-4.356 15.256l2.435 2.514 2.435 2.514c6.115-5.924 6.506-13.706 6.485-20.307l-3.5.011.001.001zM75.454 86.15l-2.435-2.514a14.2 14.2 0 0 1-1.105.963l2.163 2.751 2.163 2.751c.574-.451 1.124-.93 1.649-1.437l-2.435-2.514zm198.543-62.275l3.129-1.568c-1.448-2.891-3.541-5.852-6.773-7.278-3.464-1.528-7.271-.901-11.155 1.347l1.752 3.029 1.754 3.029c2.679-1.55 4.069-1.334 4.824-1.001.987.435 2.136 1.608 3.339 4.009l3.13-1.567zm-16.883-2.55l-1.577-3.125c-5.785 2.917-12.112 7.562-18.052 12.302-2.992 2.387-5.931 4.837-8.695 7.151l-7.695 6.384 2.199 2.723 2.2 2.723 7.789-6.463 8.568-7.047c5.885-4.696 11.74-8.952 16.839-11.523l-1.576-3.125zm-33.42 29.692l-1.35 3.229c17.023 7.121 32.033 17.306 45.366 30.115l2.425-2.524 2.425-2.524c-13.902-13.356-29.629-24.043-47.516-31.525l-1.35 3.229zm50.269 29.563l3.482.358c.472-4.583.938-9.288 1.115-14.022l-3.498-.131-3.497-.131c-.168 4.479-.61 8.975-1.083 13.568l3.481.358zm1.099-13.795l3.498.131c.275-7.325.264-18.111.486-25.524l-3.499-.105-3.498-.105-.484 25.472 3.498.13-.001.001zm-1.065-42.91l-3.125 1.576c.704 1.395.984 3.845 1.021 7.148.019 1.606-.015 3.089-.017 4.692-.003 1.501.024 3.072.199 4.435l3.471-.447 3.472-.447c-.112-.872-.145-2.042-.142-3.532l.017-4.781c-.036-3.175-.242-7.192-1.772-10.223l-3.124 1.577v.002zm1.549 17.404l-3.472.44v.004l3.473-.439 3.472-.439v-.004l-3.473.438zm.001.005l-3.471.454.001.004 3.47-.454 3.471-.454-.001-.004-3.47.454zm-1.584 39.296l-3.481-.358-.04.462 3.49.269 3.49.269.023-.284-3.481-.357-.001-.001zm-.031.373l-3.49-.269c-.019.254-.03.371-.044.466-.014.09-.014.035.037-.091.107-.25.265-.475.466-.659a1.96 1.96 0 0 1 .833-.47l.862 3.392.863 3.392c1.835-.467 2.937-1.727 3.463-3.023.419-1.034.473-2.123.5-2.469l-3.49-.269zm-1.336 2.369l-.862-3.392a2.09 2.09 0 0 1 .901-.02c.247.045.483.137.696.269.119.076.164.128.12.084a6.34 6.34 0 0 1-.263-.286l-2.613 2.328-2.614 2.328c.197.221.797.931 1.605 1.447 1.001.639 2.355 1.024 3.894.633l-.863-3.392-.001.001zm-2.021-1.017l2.614-2.327c-.128-.143-.364-.41-.629-.665l-2.425 2.524-2.425 2.524a5.63 5.63 0 0 1 .251.272l2.614-2.328zm-46.881-31.289l1.351-3.229c-.252-.106-.504-.195-.654-.249l-1.184 3.294-1.184 3.294.321.119 1.35-3.229zm-.487-.184l1.184-3.294-.371-.14c-.057-.025.01-.002.127.084a1.97 1.97 0 0 1 .502.556 1.99 1.99 0 0 1 .284.804l-3.478.385-3.479.385a4.96 4.96 0 0 0 2.028 3.511c.809.594 1.731.897 2.019 1.001l1.184-3.294v.002zm-1.752-1.605l3.478-.385c.019.172.012.424-.074.709-.085.279-.213.481-.306.599-.083.105-.133.139-.079.094.113-.089.23-.175.348-.258l-2.037-2.846-2.038-2.846c-.271.194-1.075.738-1.696 1.527a5.11 5.11 0 0 0-1.075 3.791l3.479-.385zm35.659-27.902l1.576 3.125 1.278-.62-1.503-3.161-1.502-3.161-1.425.691 1.576 3.126zm1.351-.656l1.502 3.162c.82-.39 1.791-.85 2.737-1.397l-1.753-3.028-1.753-3.029c-.66.382-1.373.723-2.236 1.133l1.503 3.161v-.002zM223.294 46.76l-2.199-2.723c-.114.089-.23.175-.348.257l2.038 2.846 2.037 2.846c.158-.113.416-.296.672-.503l-2.2-2.723z" fill="#121212"/></g></g><defs><clipPath id="B"><path fill="#fff" transform="translate(0 .416)" d="M0 0h343v379H0z"/></clipPath></defs></svg>