<svg xmlns="http://www.w3.org/2000/svg" width="56" height="56" fill="none" xmlns:v="https://vecta.io/nano"><path d="M55.852 27.865c0 15.111-12.324 27.361-27.527 27.361S.797 42.977.797 27.865 13.121.504 28.324.504s27.527 12.25 27.527 27.361z" fill="#000"/><path d="M28.324 19.446a8.43 8.43 0 0 0-8.419 8.419c0 4.622 3.797 8.419 8.419 8.419s8.419-3.797 8.419-8.419a8.43 8.43 0 0 0-8.419-8.419zm0 9.863c-.784 0-1.444-.66-1.444-1.444s.66-1.444 1.444-1.444 1.444.66 1.444 1.444-.66 1.444-1.444 1.444z" fill="#cceb00"/><path d="M28.324 28.897a1.03 1.03 0 1 0 0-2.063 1.03 1.03 0 1 0 0 2.063z" fill="#282828"/><g fill="#f4f8d8"><path d="M28.324 53.865c-14.568 0-26-11.432-26-26s11.432-26 26-26 26 11.432 26 26-11.432 26-26 26zm0-51.175C14.21 2.691 3.15 13.751 3.15 27.865S14.21 53.04 28.324 53.04s25.175-11.06 25.175-25.175S42.439 2.691 28.324 2.691zm0 34.213a9.04 9.04 0 0 1-9.038-9.038 9.04 9.04 0 0 1 9.038-9.038 9.04 9.04 0 0 1 9.038 9.038 9.04 9.04 0 0 1-9.038 9.038zm0-17.251a8.213 8.213 0 1 0 0 16.425 8.213 8.213 0 1 0 0-16.425zm-11.927 8.626c-.248 0-.413-.165-.413-.413a12.35 12.35 0 0 1 12.34-12.34c.248 0 .413.165.413.413s-.165.413-.413.413A11.52 11.52 0 0 0 16.81 27.865c0 .248-.206.413-.413.413zm11.927 11.927c-.248 0-.413-.165-.413-.413s.165-.413.413-.413a11.52 11.52 0 0 0 11.514-11.514c0-.248.165-.413.413-.413s.413.165.413.413a12.35 12.35 0 0 1-12.34 12.34zm-15.27-11.927c-.248 0-.413-.165-.413-.413 0-8.667 7.057-15.683 15.683-15.683.248 0 .413.165.413.413s-.165.413-.413.413c-8.213 0-14.857 6.686-14.857 14.857 0 .248-.206.413-.413.413zm15.27 15.27c-.248 0-.413-.165-.413-.413s.165-.413.413-.413c8.213 0 14.857-6.686 14.857-14.857 0-.248.165-.413.413-.413s.413.165.413.413a15.68 15.68 0 0 1-15.683 15.683zM9.753 28.278c-.248 0-.413-.165-.413-.413 0-10.441 8.502-18.984 18.984-18.984.248 0 .413.165.413.413s-.165.413-.413.413c-9.987 0-18.159 8.13-18.159 18.159 0 .248-.165.413-.413.413z"/><path d="M28.324 46.849c-.248 0-.413-.165-.413-.413s.165-.413.413-.413c9.987 0 18.159-8.13 18.159-18.159 0-.248.165-.413.413-.413s.413.165.413.413c0 10.441-8.543 18.984-18.984 18.984zM6.492 28.278c-.248 0-.413-.165-.413-.413 0-12.257 9.987-22.244 22.244-22.244.248 0 .413.165.413.413s-.165.413-.413.413c-11.803 0-21.419 9.616-21.419 21.419 0 .248-.165.413-.413.413zM28.324 50.11c-.248 0-.413-.165-.413-.413s.165-.413.413-.413c11.803 0 21.419-9.616 21.419-21.419 0-.248.165-.413.413-.413s.413.165.413.413c0 12.257-9.987 22.244-22.244 22.244zm0-20.594c-.908 0-1.651-.743-1.651-1.651s.743-1.651 1.651-1.651 1.651.743 1.651 1.651-.743 1.651-1.651 1.651zm0-2.476a.83.83 0 0 0-.825.825.83.83 0 0 0 .825.825.83.83 0 0 0 .825-.825.83.83 0 0 0-.825-.825z"/></g></svg>