<svg xmlns="http://www.w3.org/2000/svg" width="634" height="964" fill="none" xmlns:v="https://vecta.io/nano"><path d="M633.758 964H.191V.473h633.567V964zM319.18 560.017l4.8 13.567c.512 1.429.768 2.539.768 3.328s-.235 1.429-.704 1.92-1.141.736-2.016.736h-1.536v3.168c.512.064 1.099.096 1.76.096 1.984 0 3.499-.363 4.544-1.088 1.024-.704 1.878-1.995 2.56-3.872l6.368-17.855H331.5l-1.344 4.159-2.656 9.184-2.624-9.215-1.344-4.128h-4.352zm126.118-.385c-2.176 0-3.862.449-5.057 1.345-1.194.874-1.792 2.09-1.792 3.647 0 2.731 1.803 4.395 5.408 4.992l1.888.321c1.216.213 2.059.479 2.528.799s.705.779.705 1.376c0 1.323-1.088 1.985-3.264 1.985-1.216 0-2.113-.214-2.689-.641-.554-.427-.885-1.152-.992-2.176h-3.935c.213 3.798 2.73 5.697 7.551 5.697 2.326 0 4.129-.449 5.409-1.345s1.92-2.176 1.92-3.84c-.001-1.408-.459-2.507-1.376-3.296-.896-.789-2.347-1.365-4.352-1.727l-2.08-.321c-.981-.17-1.686-.405-2.112-.704-.427-.32-.64-.757-.64-1.311 0-1.28.96-1.92 2.88-1.92 1.13 0 1.983.213 2.559.639.576.406.885 1.099.928 2.08h3.809c-.15-3.733-2.582-5.6-7.296-5.6zm-199.88 0c-4.714 0-7.189 1.878-7.424 5.633h3.968c.085-.96.384-1.633.896-2.017.512-.405 1.355-.607 2.529-.607 1.088 0 1.855.17 2.303.511.47.32.705.833.705 1.536-.001.576-.182 1.013-.544 1.312-.363.277-.961.469-1.792.576l-2.497.224c-4.223.426-6.335 2.144-6.335 5.152 0 1.557.533 2.774 1.599 3.649 1.088.874 2.539 1.311 4.353 1.311 2.431 0 4.202-.8 5.311-2.399.107 1.002.257 1.674.448 2.015h4.033c-.448-.64-.673-1.685-.673-3.135v-8.801c0-3.307-2.294-4.96-6.88-4.96zm50.142.385v10.943c0 1.899.512 3.371 1.536 4.416 1.045 1.024 2.454 1.536 4.224 1.536 2.197 0 3.925-.928 5.184-2.784v2.4h3.904v-16.511h-4.032v9.248c0 1.301-.363 2.324-1.088 3.071a3.47 3.47 0 0 1-2.592 1.088c-2.069 0-3.104-1.045-3.104-3.136v-10.271h-4.032zm83.952-.385c-4.715 0-7.189 1.878-7.424 5.633h3.968c.085-.96.384-1.633.896-2.017.512-.405 1.355-.607 2.528-.607 1.088 0 1.856.17 2.304.511.469.32.704.833.704 1.536 0 .576-.181 1.013-.544 1.312-.362.277-.96.469-1.792.576l-2.496.224c-4.224.426-6.336 2.144-6.336 5.152 0 1.557.533 2.774 1.6 3.649 1.088.874 2.539 1.311 4.352 1.311 2.432 0 4.203-.8 5.312-2.399.107 1.002.256 1.674.448 2.015h4.032c-.448-.64-.672-1.685-.672-3.135v-8.801c-.001-3.307-2.294-4.96-6.88-4.96zm37.221 0c-2.431 0-4.405.789-5.92 2.368-1.493 1.579-2.239 3.67-2.239 6.272s.757 4.693 2.272 6.272 3.499 2.368 5.952 2.368c1.963 0 3.627-.49 4.992-1.472 1.365-1.002 2.261-2.346 2.688-4.032h-3.873c-.682 1.579-1.94 2.368-3.775 2.368-1.237 0-2.23-.351-2.976-1.055-.726-.726-1.163-1.793-1.312-3.2h12.352v-.96c0-2.667-.737-4.822-2.208-6.464s-3.457-2.465-5.953-2.465zm-160.516-4.416v4.801h-2.561v3.071h2.561v9.345c0 1.471.405 2.548 1.216 3.231.832.661 2.143.992 3.935.992.533 0 1.238-.042 2.112-.128v-3.072h-1.376c-.682 0-1.172-.106-1.471-.319-.277-.214-.416-.587-.416-1.12v-8.929h3.263v-3.071h-3.263v-4.801h-4zm17.875 0v4.801h-2.561v3.071h2.561v9.345c0 1.471.405 2.548 1.216 3.231.832.661 2.143.992 3.935.992.533 0 1.238-.042 2.112-.128v-3.072h-1.376c-.682 0-1.172-.106-1.471-.319-.277-.214-.416-.587-.416-1.12v-8.929h3.263v-3.071h-3.263v-4.801h-4zm116.219 0v4.801h-2.561v3.071h2.561v9.345c0 1.471.405 2.548 1.215 3.231.832.661 2.144.992 3.936.992.533 0 1.238-.042 2.112-.128v-3.072h-1.376c-.682 0-1.173-.106-1.471-.319-.278-.214-.416-.587-.416-1.12v-8.929h5.687v9.345c0 1.471.405 2.548 1.216 3.231.832.661 2.144.992 3.935.992.534 0 1.238-.042 2.113-.128v-3.072h-1.376c-.683 0-1.173-.106-1.472-.319-.277-.214-.416-.587-.416-1.12v-8.929h3.264v-3.071h-3.264v-4.801h-4v4.801h-5.687v-4.801h-4zm-198.038 4.801l5.441 16.511h4.224l2.047-6.784 1.377-4.928 1.408 4.928 2.08 6.784h4.224l5.44-16.511h-4.321l-1.855 6.175-1.632 5.728-1.568-5.76-1.825-6.143h-3.839l-1.825 6.143-1.567 5.76-1.632-5.728-1.856-6.175h-4.321zm27.724-6.273v22.784h4.032v-9.248c0-1.301.352-2.314 1.056-3.04.725-.746 1.6-1.12 2.624-1.12 2.069 0 3.104 1.045 3.104 3.136v10.272h4.033v-10.944c0-1.899-.523-3.36-1.569-4.384-1.024-1.045-2.431-1.568-4.223-1.568-2.091 0-3.766.865-5.025 2.593v-8.481h-4.032zm72.551 6.017c-2.368 0-4.011 1.066-4.928 3.199v-2.943h-3.904v16.511h4.032v-8.383c0-1.515.405-2.656 1.216-3.424.832-.79 2.016-1.185 3.552-1.185h1.024v-3.712c-.299-.042-.629-.063-.992-.063zm21.137-6.017v22.784h4.032v-22.784h-4.032zm49.504 5.888c-2.175 0-3.882 1.024-5.12 3.072-.896-2.048-2.603-3.072-5.12-3.072-2.005 0-3.573.917-4.704 2.752v-2.367h-3.904v16.511h4.032v-9.088c0-1.407.309-2.474.928-3.2.64-.746 1.461-1.12 2.464-1.12 1.92 0 2.88 1.045 2.881 3.136v10.272h4v-9.088c0-1.408.309-2.474.927-3.2.64-.746 1.472-1.12 2.496-1.12 1.899 0 2.848 1.046 2.848 3.136v10.272h4.032v-10.912c0-1.856-.512-3.317-1.536-4.384-1.003-1.066-2.41-1.6-4.224-1.6zm73.14.129c-2.368 0-4.01 1.066-4.928 3.199v-2.943h-3.904v16.511h4.032v-8.383c0-1.515.406-2.656 1.216-3.424.832-.79 2.016-1.185 3.552-1.185h1.024v-3.712c-.298-.042-.629-.063-.992-.063zm18.377 12.191v4.576h4.704v-4.576h-4.704zM248.395 570c0 1.301-.396 2.304-1.185 3.008-.789.682-1.813 1.024-3.071 1.024-.896 0-1.59-.192-2.08-.576-.47-.405-.705-.96-.705-1.664s.224-1.237.672-1.6c.47-.384 1.238-.64 2.304-.768l2.176-.256c.875-.107 1.505-.331 1.889-.672V570zm134.093 0c0 1.301-.395 2.304-1.184 3.008-.79.682-1.813 1.024-3.072 1.024-.896 0-1.589-.192-2.08-.576-.469-.405-.704-.96-.704-1.664s.224-1.237.672-1.6c.469-.384 1.237-.64 2.304-.768l2.176-.256c.874-.107 1.504-.331 1.888-.672V570zm34.214-7.231c1.152 0 2.09.351 2.816 1.055s1.174 1.664 1.344 2.88h-8.288c.384-2.624 1.76-3.935 4.128-3.935zm-200.193-44.137c-2.325 0-4.086.917-5.28 2.752v-2.367h-3.873V541.8h4.033v-8.416c1.173 1.685 2.88 2.528 5.12 2.528 2.261 0 4.064-.789 5.408-2.368 1.322-1.579 1.983-3.669 1.983-6.272 0-2.624-.66-4.726-1.983-6.304-1.344-1.557-3.147-2.336-5.408-2.336zm-66.352 0c-2.176 0-3.862.449-5.056 1.345-1.195.874-1.792 2.09-1.792 3.647 0 2.731 1.803 4.395 5.408 4.992l1.887.321c1.216.213 2.059.479 2.529.799s.704.779.704 1.376c0 1.323-1.088 1.985-3.264 1.985-1.216 0-2.112-.214-2.688-.641-.555-.427-.886-1.152-.992-2.176h-3.936c.213 3.798 2.731 5.697 7.552 5.697 2.325 0 4.128-.449 5.408-1.345s1.92-2.176 1.92-3.84c0-1.408-.459-2.507-1.376-3.296-.896-.789-2.347-1.365-4.352-1.727l-2.08-.321c-.981-.17-1.685-.405-2.112-.704-.427-.32-.64-.757-.64-1.311 0-1.28.96-1.92 2.88-1.92 1.131 0 1.984.213 2.56.639.576.406.885 1.099.928 2.08h3.808c-.149-3.733-2.581-5.6-7.296-5.6zm100.563 0c-2.176 0-3.862.449-5.057 1.345-1.194.874-1.792 2.09-1.792 3.647 0 2.731 1.803 4.395 5.408 4.992l1.888.321c1.216.213 2.059.479 2.528.799s.704.779.704 1.376c0 1.323-1.087 1.985-3.263 1.985-1.216 0-2.113-.214-2.689-.641-.554-.427-.885-1.152-.992-2.176h-3.935c.213 3.798 2.73 5.697 7.551 5.697 2.326 0 4.128-.449 5.408-1.345s1.92-2.176 1.92-3.84c0-1.408-.458-2.507-1.376-3.296-.896-.789-2.346-1.365-4.351-1.727l-2.08-.321c-.982-.17-1.686-.405-2.113-.704a1.55 1.55 0 0 1-.639-1.311c0-1.28.96-1.92 2.88-1.92 1.13 0 1.983.213 2.559.639.576.406.885 1.099.928 2.08h3.809c-.15-3.733-2.582-5.6-7.296-5.6zm105.937 0c-2.176 0-3.862.449-5.056 1.345-1.195.874-1.792 2.09-1.792 3.647 0 2.731 1.803 4.395 5.408 4.992l1.887.321c1.216.213 2.059.479 2.529.799s.704.779.704 1.376c0 1.323-1.088 1.985-3.264 1.985-1.216 0-2.112-.214-2.688-.641-.555-.427-.886-1.152-.992-2.176h-3.936c.213 3.798 2.731 5.697 7.552 5.697 2.325 0 4.128-.449 5.408-1.345s1.92-2.176 1.92-3.84c0-1.408-.459-2.507-1.376-3.296-.896-.789-2.347-1.365-4.352-1.727l-2.08-.321c-.981-.17-1.685-.405-2.112-.704-.427-.32-.64-.757-.64-1.311 0-1.28.96-1.92 2.88-1.92 1.131 0 1.984.213 2.56.639.576.406.885 1.099.928 2.08h3.808c-.149-3.733-2.581-5.6-7.296-5.6zm-171.255 0c-4.714 0-7.189 1.878-7.423 5.633h3.967c.086-.96.385-1.633.897-2.017.512-.405 1.355-.607 2.528-.607 1.088 0 1.856.17 2.304.511.469.32.704.833.704 1.536 0 .576-.182 1.013-.544 1.312-.363.277-.96.469-1.792.576l-2.496.224c-4.224.426-6.336 2.144-6.336 5.152 0 1.557.533 2.774 1.6 3.649 1.088.874 2.539 1.311 4.352 1.311 2.432 0 4.202-.8 5.312-2.399.106 1.002.256 1.674.448 2.015h4.032c-.448-.64-.673-1.685-.673-3.135v-8.801c0-3.307-2.293-4.96-6.88-4.96zm48.441 0c-2.432 0-4.406.789-5.92 2.368-1.493 1.579-2.239 3.67-2.239 6.272s.757 4.693 2.271 6.272 3.499 2.368 5.952 2.368c1.963 0 3.627-.49 4.992-1.472 1.366-1.002 2.261-2.346 2.688-4.032h-3.872c-.683 1.579-1.941 2.368-3.776 2.368-1.237 0-2.229-.351-2.976-1.055-.725-.726-1.162-1.793-1.312-3.2h12.352v-.96c0-2.667-.736-4.822-2.208-6.464s-3.456-2.465-5.952-2.465zm109.384-5.888v8.416c-1.174-1.685-2.87-2.528-5.088-2.528-2.304 0-4.107.779-5.409 2.336-1.344 1.557-2.015 3.659-2.015 6.304 0 2.603.672 4.693 2.015 6.272 1.323 1.579 3.126 2.368 5.409 2.368 2.261 0 4-.896 5.215-2.687v2.303h3.905v-22.784h-4.032zm37.457 5.888c-4.715 0-7.19 1.878-7.424 5.633h3.968c.085-.96.384-1.633.896-2.017.512-.405 1.355-.607 2.528-.607 1.088 0 1.856.17 2.304.511.469.32.704.833.704 1.536 0 .576-.181 1.013-.544 1.312-.362.277-.96.469-1.792.576l-2.496.224c-4.224.426-6.336 2.144-6.336 5.152 0 1.557.533 2.774 1.6 3.649 1.088.874 2.539 1.311 4.352 1.311 2.432 0 4.203-.8 5.312-2.399.107 1.002.256 1.674.448 2.015h4.032c-.448-.64-.672-1.685-.673-3.135v-8.801c0-3.307-2.293-4.96-6.879-4.96zm39.855-5.888v8.416c-1.173-1.685-2.869-2.528-5.088-2.528-2.304 0-4.107.779-5.408 2.336-1.344 1.557-2.016 3.659-2.016 6.304 0 2.603.672 4.693 2.016 6.272 1.323 1.579 3.126 2.368 5.408 2.368 2.261 0 4-.896 5.216-2.687v2.303h3.904v-22.784h-4.032zm14.192 0v22.784h3.873v-2.368c1.194 1.835 2.954 2.752 5.28 2.752 2.261 0 4.064-.789 5.408-2.368 1.322-1.579 1.983-3.669 1.983-6.272 0-2.624-.66-4.726-1.983-6.304-1.344-1.557-3.147-2.336-5.408-2.336-2.24 0-3.947.843-5.12 2.528v-8.416h-4.033zm18.657 6.273v10.943c0 1.899.512 3.371 1.536 4.416 1.045 1.024 2.454 1.536 4.224 1.536 2.198 0 3.925-.928 5.184-2.784v2.4h3.904v-16.511h-4.032v9.248c0 1.301-.363 2.324-1.088 3.071a3.47 3.47 0 0 1-2.592 1.088c-2.069 0-3.104-1.045-3.104-3.136v-10.271h-4.032zm44.464-6.273v8.416c-1.174-1.685-2.87-2.528-5.088-2.528-2.304 0-4.107.779-5.409 2.336-1.344 1.557-2.015 3.659-2.015 6.304 0 2.603.672 4.693 2.015 6.272 1.323 1.579 3.126 2.368 5.409 2.368 2.261 0 4-.896 5.215-2.687v2.303h3.905v-22.784h-4.032zm-236.213 1.472v4.801h-2.561v3.071h2.561v9.345c0 1.471.405 2.548 1.215 3.231.832.661 2.144.992 3.936.992.533 0 1.238-.042 2.112-.128v-3.072h-1.376c-.682 0-1.173-.106-1.471-.319-.278-.214-.416-.587-.416-1.12v-8.929h3.263v-3.071h-3.263v-4.801h-4zm-101.658-1.472v22.784h4.033v-9.248c0-1.301.351-2.314 1.055-3.04.726-.746 1.601-1.12 2.624-1.12 2.07 0 3.105 1.045 3.105 3.136v10.272h4.032v-10.944c0-1.899-.523-3.36-1.568-4.384-1.024-1.045-2.432-1.568-4.224-1.568-2.091 0-3.766.865-5.024 2.593v-8.481h-4.033zm44.207 6.017c-2.367 0-4.01 1.066-4.927 3.199v-2.943h-3.905v16.511h4.033v-8.383c0-1.515.405-2.656 1.215-3.424.832-.79 2.016-1.185 3.552-1.185h1.025v-3.712c-.299-.042-.63-.063-.993-.063zm92.83-.129c-2.176 0-3.883 1.024-5.121 3.072-.896-2.048-2.602-3.072-5.12-3.072-2.005 0-3.573.917-4.704 2.752v-2.367h-3.904v16.511h4.032v-9.088c0-1.407.309-2.474.928-3.2.64-.746 1.461-1.12 2.464-1.12 1.92 0 2.881 1.045 2.881 3.136v10.272h4v-9.088c0-1.408.309-2.474.927-3.2.64-.746 1.473-1.12 2.496-1.12 1.899 0 2.848 1.046 2.848 3.136v10.272h4.032v-10.912c0-1.856-.512-3.317-1.536-4.384-1.002-1.066-2.41-1.6-4.223-1.6zm9.026.385v16.511h4.032v-16.511h-4.032zm16.338-.385c-2.176 0-3.894.917-5.153 2.752v-2.367h-3.904v16.511h4.032v-9.248c0-1.301.352-2.314 1.056-3.04.725-.746 1.6-1.12 2.624-1.12 2.069 0 3.104 1.045 3.105 3.136v10.272h4.032v-10.944c0-1.899-.523-3.36-1.569-4.384-1.023-1.045-2.431-1.568-4.223-1.568zm77.312 0c-2.176 0-3.893.917-5.152 2.752v-2.367h-3.904v16.511h4.032v-9.248c0-1.301.352-2.314 1.056-3.04.725-.746 1.6-1.12 2.624-1.12 2.069 0 3.104 1.045 3.104 3.136v10.272h4.032v-10.944c0-1.899-.523-3.36-1.568-4.384-1.024-1.045-2.432-1.568-4.224-1.568zm71.819.385v16.511h4.032v-16.511h-4.032zm7.281-6.273v22.784h4.032v-22.784h-4.032zM188.379 529c0 1.301-.395 2.304-1.185 3.008-.789.682-1.812 1.024-3.071 1.024-.896 0-1.589-.192-2.08-.576-.469-.405-.704-.96-.704-1.664s.224-1.237.672-1.6c.469-.384 1.237-.64 2.303-.768l2.176-.256c.875-.107 1.505-.331 1.889-.672V529zm195.281 0c0 1.301-.395 2.304-1.184 3.008-.79.682-1.813 1.024-3.072 1.024-.896 0-1.589-.192-2.08-.576-.469-.405-.704-.96-.704-1.664s.224-1.237.672-1.6c.469-.384 1.237-.64 2.304-.768l2.175-.256c.875-.107 1.505-.331 1.889-.672V529zm-168.111-7.04c1.365 0 2.41.449 3.136 1.345.746.874 1.12 2.154 1.12 3.84 0 1.727-.374 3.061-1.12 4-.768.959-1.814 1.439-3.136 1.439-1.344 0-2.379-.459-3.105-1.376-.767-.896-1.151-2.208-1.151-3.936 0-1.706.373-3.019 1.12-3.936s1.792-1.376 3.136-1.376zm123.517 0c1.344 0 2.39.459 3.136 1.376s1.12 2.23 1.12 3.936-.373 3.019-1.12 3.936c-.768.917-1.813 1.376-3.136 1.376s-2.356-.437-3.103-1.312-1.12-2.165-1.12-3.872.373-3.04 1.12-4c.768-.96 1.802-1.44 3.103-1.44zm77.313 0c1.344 0 2.389.459 3.136 1.376s1.12 2.23 1.12 3.936-.374 3.019-1.12 3.936c-.768.917-1.813 1.376-3.136 1.376s-2.357-.437-3.104-1.312-1.12-2.165-1.12-3.872.374-3.04 1.12-4c.768-.96 1.803-1.44 3.104-1.44zm26.545 0c1.365 0 2.41.449 3.136 1.345.746.874 1.12 2.154 1.12 3.84 0 1.727-.374 3.061-1.12 4-.768.959-1.814 1.439-3.136 1.439-1.344 0-2.379-.459-3.105-1.376-.767-.896-1.151-2.208-1.151-3.936 0-1.706.373-3.019 1.12-3.936s1.792-1.376 3.136-1.376zm50.767 0c1.344 0 2.39.459 3.136 1.376s1.12 2.23 1.12 3.936-.373 3.019-1.12 3.936c-.768.917-1.813 1.376-3.136 1.376s-2.356-.437-3.103-1.312-1.12-2.165-1.12-3.872.373-3.04 1.12-4c.768-.96 1.802-1.44 3.103-1.44zm-259.879-.191c1.151 0 2.09.351 2.815 1.055s1.174 1.664 1.345 2.88h-8.288c.384-2.624 1.76-3.935 4.128-3.935zm72.264-8.672v3.775h3.968v-3.775h-3.968zm165.469 0v3.775h3.968v-3.775h-3.968zm-278.81-35.465c-2.176 0-3.862.449-5.056 1.345-1.195.874-1.792 2.09-1.792 3.647 0 2.731 1.803 4.395 5.408 4.992l1.888.321c1.216.213 2.059.479 2.528.799s.704.779.704 1.376c0 1.323-1.088 1.985-3.264 1.985-1.216 0-2.112-.214-2.688-.641-.555-.427-.886-1.152-.992-2.176h-3.936c.213 3.798 2.731 5.697 7.552 5.697 2.325 0 4.128-.449 5.408-1.345s1.92-2.176 1.92-3.84c0-1.408-.459-2.507-1.376-3.296-.896-.789-2.346-1.365-4.351-1.727l-2.081-.321c-.981-.17-1.685-.405-2.112-.704-.426-.32-.639-.757-.64-1.311 0-1.28.96-1.92 2.88-1.92 1.131 0 1.984.213 2.56.639.576.406.885 1.099.928 2.08h3.808c-.149-3.733-2.581-5.6-7.296-5.6zm-45.189 0c-2.432 0-4.405.789-5.92 2.368-1.493 1.579-2.239 3.67-2.239 6.272s.757 4.693 2.271 6.272 3.499 2.368 5.952 2.368c1.963 0 3.627-.49 4.993-1.472 1.365-1.002 2.26-2.346 2.687-4.032h-3.872c-.683 1.579-1.941 2.368-3.775 2.368-1.238 0-2.23-.351-2.977-1.055-.725-.726-1.162-1.793-1.312-3.2h12.352v-.96c0-2.667-.736-4.822-2.208-6.464s-3.456-2.465-5.952-2.465zm18.187 0c-2.431 0-4.405.789-5.92 2.368-1.493 1.579-2.239 3.67-2.239 6.272s.757 4.693 2.272 6.272 3.499 2.368 5.952 2.368c1.963 0 3.627-.49 4.992-1.472 1.365-1.002 2.261-2.346 2.688-4.032h-3.873c-.682 1.579-1.94 2.368-3.775 2.368-1.237 0-2.23-.351-2.976-1.055-.726-.726-1.163-1.793-1.312-3.2h12.352v-.96c0-2.667-.737-4.822-2.208-6.464s-3.457-2.465-5.953-2.465zm94.945 0c-2.517 0-4.544.79-6.08 2.368-1.558 1.557-2.336 3.648-2.336 6.272s.778 4.715 2.336 6.272c1.536 1.579 3.562 2.368 6.08 2.368s4.544-.789 6.08-2.368 2.303-3.669 2.304-6.272c0-2.645-.768-4.747-2.304-6.304s-3.563-2.336-6.08-2.336zm33.646 0c-4.714 0-7.189 1.878-7.424 5.633h3.968c.085-.96.385-1.633.897-2.017.512-.405 1.355-.607 2.528-.607 1.088 0 1.856.17 2.304.511.469.32.704.833.704 1.536 0 .576-.182 1.013-.544 1.312-.363.277-.96.469-1.792.576l-2.496.224c-4.224.426-6.336 2.144-6.336 5.152 0 1.557.533 2.774 1.599 3.649 1.088.874 2.54 1.311 4.353 1.311 2.432 0 4.202-.8 5.311-2.399.107 1.002.257 1.674.449 2.015h4.032c-.448-.64-.673-1.685-.673-3.135v-8.801c0-3.307-2.293-4.96-6.88-4.96zm35.385 0c-2.517 0-4.544.79-6.08 2.368-1.557 1.557-2.336 3.648-2.336 6.272s.779 4.715 2.336 6.272c1.536 1.579 3.563 2.368 6.08 2.368s4.544-.789 6.08-2.368 2.304-3.669 2.304-6.272c0-2.645-.768-4.747-2.304-6.304s-3.563-2.336-6.08-2.336zm79.837 0c-2.432 0-4.405.789-5.92 2.368-1.493 1.579-2.239 3.67-2.239 6.272s.757 4.693 2.271 6.272 3.499 2.368 5.952 2.368c1.963 0 3.627-.49 4.993-1.472 1.365-1.002 2.26-2.346 2.687-4.032h-3.872c-.683 1.579-1.941 2.368-3.775 2.368-1.238 0-2.23-.351-2.977-1.055-.725-.726-1.162-1.793-1.312-3.2h12.352v-.96c0-2.667-.736-4.822-2.208-6.464s-3.456-2.465-5.952-2.465zm65.884-5.888v8.416c-1.174-1.685-2.87-2.528-5.088-2.528-2.304 0-4.107.779-5.408 2.336-1.344 1.557-2.016 3.659-2.016 6.304 0 2.603.672 4.693 2.016 6.272 1.322 1.579 3.125 2.368 5.408 2.368 2.261 0 4-.896 5.216-2.687v2.303h3.904v-22.784h-4.032zm50.71 5.888c-2.432 0-4.406.789-5.92 2.368-1.494 1.579-2.24 3.67-2.24 6.272s.757 4.693 2.272 6.272 3.499 2.368 5.952 2.368c1.963 0 3.627-.49 4.992-1.472 1.366-1.002 2.261-2.346 2.688-4.032h-3.872c-.683 1.579-1.941 2.368-3.776 2.368-1.237 0-2.23-.351-2.976-1.055-.726-.726-1.162-1.793-1.312-3.2H534.3v-.96c0-2.667-.736-4.822-2.208-6.464s-3.456-2.465-5.952-2.465zm-349.142-4.416v4.801h-2.56v3.071h2.56v9.345c0 1.471.405 2.548 1.216 3.231.832.661 2.144.992 3.935.992.534 0 1.238-.042 2.113-.128v-3.072h-1.376c-.683 0-1.173-.106-1.472-.319-.277-.214-.416-.587-.416-1.12v-8.929h3.264v-3.071h-3.264v-4.801h-4zm128.125 0v4.801h-2.561v3.071h2.561v9.345c0 1.471.405 2.548 1.216 3.231.832.661 2.144.992 3.935.992.534 0 1.238-.042 2.113-.128v-3.072h-1.376c-.683 0-1.173-.106-1.472-.319-.277-.214-.416-.587-.416-1.12v-8.929h3.264v-3.071h-3.264v-4.801h-4zm185.844 0v4.801h-2.561v3.071h2.561v9.345c0 1.471.405 2.548 1.216 3.231.832.661 2.143.992 3.935.992.533 0 1.238-.042 2.112-.128v-3.072h-1.376c-.682 0-1.172-.106-1.471-.319-.277-.214-.416-.587-.416-1.12v-8.929h3.263v-3.071h-3.263v-4.801h-4zm-359.871 4.416c-2.176 0-3.883 1.024-5.12 3.072-.896-2.048-2.603-3.072-5.121-3.072-2.005 0-3.573.917-4.704 2.752v-2.367h-3.904v16.511h4.032v-9.088c0-1.407.309-2.474.928-3.2.64-.746 1.461-1.12 2.464-1.12 1.92 0 2.881 1.045 2.881 3.136v10.272h4v-9.088c0-1.408.309-2.474.927-3.2.64-.746 1.473-1.12 2.497-1.12 1.898 0 2.847 1.046 2.847 3.136v10.272h4.032v-10.912c0-1.856-.512-3.317-1.536-4.384-1.002-1.066-2.41-1.6-4.223-1.6zm78.37.385v16.511h4.032v-16.511h-4.032zm16.338-.385c-2.176 0-3.894.917-5.153 2.752v-2.367h-3.904v16.511h4.032v-9.248c0-1.301.352-2.314 1.056-3.04.725-.746 1.6-1.12 2.624-1.12 2.069 0 3.104 1.045 3.104 3.136v10.272h4.033v-10.944c0-1.899-.523-3.36-1.569-4.384-1.024-1.045-2.431-1.568-4.223-1.568zm18.125 0c-2.176 0-3.894.917-5.153 2.752v-2.367h-3.904v16.511h4.032v-9.248c0-1.301.352-2.314 1.056-3.04.725-.746 1.6-1.12 2.624-1.12 2.069 0 3.104 1.045 3.104 3.136v10.272h4.033v-10.944c0-1.899-.523-3.36-1.569-4.384-1.024-1.045-2.431-1.568-4.223-1.568zm25.282.385l6.112 16.511h4.64l6.144-16.511h-4.192l-1.6 4.416-2.591 8.447-2.593-8.416-1.6-4.447h-4.32zm45.536 0v16.511h4.032v-16.511h-4.032zm34.932-.385c-2.176 0-3.894.917-5.153 2.752v-2.367h-3.904v16.511h4.032v-9.248c0-1.301.352-2.314 1.056-3.04.725-.746 1.6-1.12 2.624-1.12 2.069 0 3.104 1.045 3.104 3.136v10.272h4.033v-10.944c0-1.899-.523-3.36-1.569-4.384-1.024-1.045-2.431-1.568-4.223-1.568zm8.652 12.32v4.576h4.704v-4.576h-4.704zm13.008-18.208l6.336 22.784h4.832l2.431-9.471 1.857-8.065 1.855 8.065 2.433 9.471h4.863l6.305-22.784h-4.48l-2.401 9.185-2.079 8.703-1.921-8.736-2.336-9.152h-4.447l-2.336 9.152-1.952 8.705-2.08-8.672-2.368-9.185h-4.512zm62.629-.096c-1.813 0-3.168.459-4.064 1.376-.896.896-1.343 2.145-1.343 3.745v1.248H426v3.071h2.561v13.44h4v-13.44h3.391v-3.071h-3.391v-1.185c0-1.322.692-1.983 2.079-1.983h1.408v-3.105c-.576-.064-1.27-.096-2.08-.096zm4.224 6.369v16.511h4.032v-16.511h-4.032zm16.393-.385c-2.176 0-3.894.917-5.152 2.752v-2.367h-3.905v16.511h4.033v-9.248c0-1.301.351-2.314 1.055-3.04.725-.746 1.6-1.12 2.624-1.12 2.069 0 3.105 1.045 3.105 3.136v10.272h4.032v-10.944c0-1.899-.523-3.36-1.568-4.384-1.024-1.045-2.432-1.568-4.224-1.568zm46.006-5.888v22.784h4.032v-9.248c0-1.301.352-2.314 1.056-3.04.725-.746 1.6-1.12 2.624-1.12 2.069 0 3.104 1.045 3.104 3.136v10.272h4.032v-10.944c0-1.899-.523-3.36-1.568-4.384-1.024-1.045-2.432-1.568-4.224-1.568-2.09 0-3.765.865-5.024 2.593v-8.481h-4.032zM297.301 488c0 1.301-.395 2.304-1.185 3.008-.789.682-1.813 1.024-3.071 1.024-.896 0-1.589-.192-2.08-.576-.469-.405-.704-.96-.704-1.664s.224-1.237.672-1.6c.469-.384 1.237-.64 2.303-.768l2.176-.256c.875-.107 1.505-.331 1.889-.672V488zm-36.623-7.04c1.344 0 2.389.47 3.135 1.408.768.917 1.152 2.219 1.152 3.904s-.384 2.997-1.152 3.936c-.746.917-1.791 1.376-3.135 1.376s-2.4-.459-3.168-1.376c-.747-.917-1.12-2.229-1.12-3.936s.373-3.019 1.12-3.936c.768-.917 1.824-1.376 3.168-1.376zm69.031 0c1.344 0 2.389.47 3.136 1.408.768.917 1.151 2.219 1.151 3.904s-.383 2.997-1.151 3.936c-.747.917-1.792 1.376-3.136 1.376s-2.4-.459-3.168-1.376c-.747-.917-1.12-2.229-1.12-3.936s.373-3.019 1.12-3.936c.768-.917 1.824-1.376 3.168-1.376zm141.561 0c1.343 0 2.389.459 3.135 1.376s1.12 2.23 1.12 3.936-.373 3.019-1.12 3.936c-.768.917-1.813 1.376-3.135 1.376s-2.357-.437-3.104-1.312-1.12-2.165-1.12-3.872.373-3.04 1.12-4c.768-.96 1.802-1.44 3.104-1.44zm-323.755-.191c1.151 0 2.09.351 2.815 1.055s1.174 1.664 1.345 2.88h-8.288c.384-2.624 1.76-3.935 4.128-3.935zm18.187 0c1.152 0 2.09.351 2.816 1.055s1.174 1.664 1.344 2.88h-8.288c.384-2.624 1.76-3.935 4.128-3.935zm243.813 0c1.151 0 2.09.351 2.815 1.055s1.174 1.664 1.345 2.88h-8.288c.384-2.624 1.76-3.935 4.128-3.935zm116.593 0c1.152 0 2.091.351 2.816 1.055s1.174 1.664 1.345 2.88h-8.289c.385-2.624 1.76-3.935 4.128-3.935zm-316.61-8.672v3.775h3.968v-3.775h-3.968zm105.281 0v3.775h3.968v-3.775h-3.968zm123.445 0v3.775h3.968v-3.775h-3.968zm-297.29-35.465c-4.715 0-7.19 1.878-7.424 5.633h3.968c.085-.96.384-1.633.896-2.017.512-.405 1.355-.607 2.528-.607 1.088 0 1.856.17 2.304.511.469.32.704.833.704 1.536 0 .576-.181 1.013-.544 1.312-.362.277-.96.469-1.792.576l-2.496.224c-4.224.426-6.336 2.144-6.336 5.152 0 1.557.533 2.774 1.6 3.649 1.088.874 2.539 1.311 4.352 1.311 2.432 0 4.203-.8 5.312-2.399.107 1.002.256 1.674.448 2.015h4.032c-.448-.64-.672-1.685-.673-3.135v-8.801c0-3.307-2.293-4.96-6.879-4.96zm24.284 0c-2.475 0-4.448.779-5.92 2.336-1.493 1.557-2.239 3.659-2.239 6.304 0 2.624.746 4.715 2.239 6.272 1.514 1.579 3.488 2.368 5.92 2.368 2.133 0 3.904-.586 5.312-1.76 1.408-1.194 2.219-2.784 2.432-4.768h-4.031c-.15 1.024-.566 1.813-1.248 2.368-.662.533-1.484.801-2.465.801-1.237 0-2.218-.449-2.944-1.345-.725-.917-1.087-2.229-1.087-3.936s.351-3.008 1.055-3.904c.725-.917 1.717-1.376 2.976-1.376.96 0 1.76.257 2.4.769s1.056 1.247 1.248 2.207h4.032c-.234-1.941-1.035-3.477-2.4-4.608-1.365-1.152-3.126-1.728-5.28-1.728zm17.232.385v10.943c0 1.899.512 3.371 1.536 4.416 1.046 1.024 2.454 1.536 4.225 1.536 2.197 0 3.925-.928 5.184-2.784v2.4h3.904v-16.511h-4.032v9.248c0 1.301-.363 2.324-1.088 3.071a3.47 3.47 0 0 1-2.592 1.088c-2.069 0-3.105-1.045-3.105-3.136v-10.271h-4.032zm18.125-6.273v22.784h3.872v-2.368c1.195 1.835 2.955 2.752 5.281 2.752 2.261 0 4.064-.789 5.408-2.368 1.322-1.579 1.983-3.669 1.983-6.272 0-2.624-.661-4.726-1.983-6.304-1.344-1.557-3.147-2.336-5.408-2.336-2.24 0-3.947.843-5.121 2.528v-8.416h-4.032zm77.705 5.888c-2.432 0-4.405.789-5.92 2.368-1.493 1.579-2.239 3.67-2.239 6.272s.757 4.693 2.272 6.272 3.498 2.368 5.952 2.368c1.962 0 3.627-.49 4.992-1.472 1.365-1.002 2.261-2.346 2.687-4.032h-3.872c-.682 1.579-1.941 2.368-3.775 2.368-1.237 0-2.23-.351-2.977-1.055-.725-.726-1.162-1.793-1.311-3.2h12.351v-.96c0-2.667-.736-4.822-2.208-6.464s-3.456-2.465-5.952-2.465zm29.438 0c-2.432 0-4.406.789-5.92 2.368-1.493 1.579-2.239 3.67-2.239 6.272s.757 4.693 2.271 6.272 3.499 2.368 5.952 2.368c1.963 0 3.627-.49 4.992-1.472 1.366-1.002 2.261-2.346 2.688-4.032h-3.872c-.683 1.579-1.941 2.368-3.776 2.368-1.237 0-2.229-.351-2.976-1.055-.725-.726-1.162-1.793-1.312-3.2h12.352v-.96c0-2.667-.736-4.822-2.208-6.464s-3.456-2.465-5.952-2.465zm54.187 0c-2.432 0-4.405.789-5.92 2.368-1.493 1.579-2.239 3.67-2.239 6.272s.757 4.693 2.272 6.272 3.498 2.368 5.952 2.368c1.962 0 3.627-.49 4.992-1.472 1.365-1.002 2.261-2.346 2.687-4.032h-3.872c-.682 1.579-1.941 2.368-3.775 2.368-1.237 0-2.23-.351-2.977-1.055-.725-.726-1.162-1.793-1.311-3.2h12.351v-.96c0-2.667-.736-4.822-2.208-6.464s-3.456-2.465-5.952-2.465zm35.997 0c-4.714 0-7.189 1.878-7.423 5.633h3.967c.086-.96.385-1.633.897-2.017.512-.405 1.355-.607 2.528-.607 1.088 0 1.856.17 2.304.511.469.32.704.833.704 1.536 0 .576-.182 1.013-.544 1.312-.363.277-.96.469-1.792.576l-2.496.224c-4.224.426-6.336 2.144-6.336 5.152 0 1.557.533 2.774 1.6 3.649 1.088.874 2.539 1.311 4.352 1.311 2.432 0 4.202-.8 5.312-2.399.106 1.002.256 1.674.448 2.015h4.032c-.448-.64-.673-1.685-.673-3.135v-8.801c0-3.307-2.293-4.96-6.88-4.96zm60.657 0c-4.715 0-7.19 1.878-7.424 5.633h3.968c.085-.96.384-1.633.896-2.017.512-.405 1.355-.607 2.528-.607 1.088 0 1.856.17 2.304.511.469.32.704.833.704 1.536 0 .576-.181 1.013-.544 1.312-.362.277-.96.469-1.792.576l-2.496.224c-4.224.426-6.336 2.144-6.336 5.152 0 1.557.533 2.774 1.6 3.649 1.088.874 2.539 1.311 4.352 1.311 2.432 0 4.203-.8 5.312-2.399.107 1.002.256 1.674.448 2.015h4.032c-.448-.64-.672-1.685-.673-3.135v-8.801c0-3.307-2.293-4.96-6.879-4.96zm24.565 0c-2.432 0-4.405.789-5.92 2.368-1.493 1.579-2.239 3.67-2.239 6.272s.757 4.693 2.271 6.272 3.499 2.368 5.952 2.368c1.963 0 3.627-.49 4.993-1.472 1.365-1.002 2.261-2.346 2.687-4.032h-3.872c-.683 1.579-1.941 2.368-3.775 2.368-1.238 0-2.23-.351-2.977-1.055-.725-.726-1.162-1.793-1.311-3.2h12.351v-.96c0-2.667-.736-4.822-2.208-6.464s-3.456-2.465-5.952-2.465zm-156.392-4.416v4.801h-2.56v3.071h2.56v9.345c0 1.471.406 2.548 1.216 3.231.832.661 2.144.992 3.936.992.533 0 1.237-.042 2.112-.128v-3.072h-1.376c-.682 0-1.173-.106-1.472-.319-.277-.214-.416-.587-.416-1.12v-8.929h3.264v-3.071h-3.264v-4.801h-4zm115 0v4.801h-2.56v3.071h2.56v9.345c0 1.471.406 2.548 1.216 3.231.832.661 2.144.992 3.936.992.533 0 1.237-.042 2.112-.128v-3.072h-1.376c-.682 0-1.173-.106-1.472-.319-.277-.214-.416-.587-.416-1.12v-8.929h3.264v-3.071h-3.264v-4.801h-4zm71.063 0v4.801h-2.561v3.071h2.561v9.345c0 1.471.405 2.548 1.216 3.231.832.661 2.143.992 3.935.992.534 0 1.238-.042 2.113-.128v-3.072h-1.376c-.683 0-1.173-.106-1.472-.319-.277-.214-.416-.587-.416-1.12v-8.929h3.264v-3.071h-3.264v-4.801h-4zm-337.626-1.472v22.784h4.032v-22.784h-4.032zm49.839 6.273l5.44 16.511h4.224l2.048-6.784 1.377-4.928 1.407 4.928 2.08 6.784h4.225l5.439-16.511h-4.32l-1.856 6.175-1.632 5.728-1.568-5.76-1.824-6.143h-3.84l-1.824 6.143-1.568 5.76-1.631-5.728-1.857-6.175h-4.32zm27.723-6.273v22.784h4.033v-9.248c0-1.301.351-2.314 1.055-3.04.726-.746 1.601-1.12 2.624-1.12 2.07 0 3.105 1.045 3.105 3.136v10.272h4.032v-10.944c0-1.899-.523-3.36-1.568-4.384-1.024-1.045-2.432-1.568-4.224-1.568-2.091 0-3.766.865-5.024 2.593v-8.481h-4.033zm45.145 6.017c-2.368 0-4.01 1.066-4.928 3.199v-2.943h-3.904v16.511h4.032v-8.383c0-1.515.406-2.656 1.216-3.424.832-.79 2.016-1.185 3.552-1.185h1.024v-3.712c-.298-.042-.629-.063-.992-.063zm38.48-6.017v22.784h4.033v-9.248c0-1.301.351-2.314 1.055-3.04.726-.746 1.601-1.12 2.624-1.12 2.07 0 3.105 1.045 3.105 3.136v10.272h4.032v-10.944c0-1.899-.523-3.36-1.568-4.384-1.024-1.045-2.432-1.568-4.224-1.568-2.091 0-3.766.865-5.024 2.593v-8.481h-4.033zm52.051 6.017c-2.368 0-4.01 1.066-4.928 3.199v-2.943h-3.904v16.511h4.032v-8.383c0-1.515.406-2.656 1.216-3.424.832-.79 2.016-1.185 3.552-1.185h1.024v-3.712c-.298-.042-.629-.063-.992-.063zm17.101.256l5.44 16.511h4.224l2.048-6.784 1.377-4.928 1.407 4.928 2.08 6.784h4.225l5.439-16.511h-4.32l-1.856 6.175-1.632 5.728-1.568-5.76-1.824-6.143h-3.84l-1.824 6.143-1.568 5.76-1.631-5.728-1.857-6.175h-4.32zm62.911-6.273v22.784h4.032v-22.784h-4.032zm34.525 5.888c-2.176 0-3.893.917-5.152 2.752v-2.367h-3.904v16.511h4.032v-9.248c0-1.301.352-2.314 1.056-3.04.725-.746 1.6-1.12 2.624-1.12 2.069 0 3.104 1.045 3.104 3.136v10.272h4.032v-10.944c0-1.899-.523-3.36-1.568-4.384-1.024-1.045-2.432-1.568-4.224-1.568zM143.91 447c0 1.301-.395 2.304-1.184 3.008-.79.682-1.813 1.024-3.072 1.024-.896 0-1.589-.192-2.08-.576-.469-.405-.704-.96-.704-1.664s.224-1.237.672-1.6c.469-.384 1.237-.64 2.304-.768l2.175-.256c.875-.107 1.505-.331 1.889-.672V447zm256.969 0c0 1.301-.395 2.304-1.185 3.008-.789.682-1.812 1.024-3.071 1.024-.896 0-1.589-.192-2.08-.576-.469-.405-.704-.96-.704-1.664s.224-1.237.672-1.6c.469-.384 1.237-.64 2.303-.768l2.176-.256c.875-.107 1.505-.331 1.889-.672V447zm60.656 0c0 1.301-.395 2.304-1.184 3.008-.79.682-1.813 1.024-3.072 1.024-.896 0-1.589-.192-2.08-.576-.469-.405-.704-.96-.704-1.664s.224-1.237.672-1.6c.469-.384 1.237-.64 2.304-.768l2.175-.256c.875-.107 1.505-.331 1.889-.672V447zm-252.767-7.04c1.365 0 2.41.449 3.135 1.345.747.874 1.12 2.154 1.12 3.84 0 1.727-.373 3.061-1.12 4-.768.959-1.813 1.439-3.135 1.439-1.344 0-2.38-.459-3.105-1.376-.768-.896-1.151-2.208-1.151-3.936 0-1.706.373-3.019 1.12-3.936s1.792-1.376 3.136-1.376zm69.481-.191c1.152 0 2.09.351 2.815 1.055s1.175 1.664 1.345 2.88h-8.288c.384-2.624 1.76-3.935 4.128-3.935zm29.438 0c1.151 0 2.09.351 2.815 1.055s1.174 1.664 1.345 2.88h-8.288c.384-2.624 1.76-3.935 4.128-3.935zm54.187 0c1.152 0 2.09.351 2.815 1.055s1.175 1.664 1.345 2.88h-8.288c.384-2.624 1.76-3.935 4.128-3.935zm121.219 0c1.152 0 2.09.351 2.815 1.055s1.174 1.664 1.345 2.88h-8.288c.384-2.624 1.76-3.935 4.128-3.935zm-4.861-44.137c-2.24 0-4.032.769-5.376 2.305-1.365 1.514-2.047 3.551-2.047 6.111 0 2.538.682 4.565 2.047 6.08 1.366 1.557 3.169 2.336 5.409 2.336 2.175 0 3.861-.821 5.055-2.464v2.08c0 1.301-.351 2.294-1.055 2.977-.683.682-1.686 1.023-3.009 1.023-2.261 0-3.488-.886-3.68-2.656h-3.968c.128 1.792.843 3.2 2.144 4.224 1.323 1.024 3.136 1.537 5.44 1.537 2.603 0 4.608-.641 6.016-1.92 1.429-1.28 2.145-3.041 2.145-5.281v-15.967h-3.905v2.271c-1.152-1.77-2.89-2.656-5.216-2.656zm-302.126-6.4c-3.413 0-6.165 1.088-8.255 3.264-2.091 2.197-3.136 5.078-3.136 8.641s1.045 6.442 3.136 8.639c2.09 2.176 4.842 3.264 8.255 3.264s6.166-1.088 8.256-3.264c2.07-2.154 3.105-5.034 3.105-8.639s-1.035-6.486-3.105-8.641c-2.09-2.176-4.842-3.264-8.256-3.264zm92.332 6.4c-2.176 0-3.861.449-5.056 1.345-1.195.874-1.792 2.09-1.792 3.647 0 2.731 1.803 4.395 5.408 4.992l1.888.321c1.216.213 2.059.479 2.528.799s.704.779.704 1.376c0 1.323-1.088 1.985-3.264 1.985-1.216 0-2.112-.214-2.688-.641-.555-.427-.886-1.152-.992-2.176h-3.936c.214 3.798 2.731 5.697 7.552 5.697 2.325 0 4.128-.449 5.408-1.345s1.92-2.176 1.92-3.84c0-1.408-.459-2.507-1.376-3.296-.896-.789-2.346-1.365-4.351-1.727l-2.08-.321c-.982-.17-1.686-.405-2.113-.704a1.55 1.55 0 0 1-.639-1.311c0-1.28.959-1.92 2.879-1.92 1.131 0 1.984.213 2.56.639.576.406.885 1.099.928 2.08h3.808c-.149-3.733-2.581-5.6-7.296-5.6zm16.407 0c-2.176 0-3.862.449-5.057 1.345-1.194.874-1.792 2.09-1.792 3.647 0 2.731 1.803 4.395 5.408 4.992l1.888.321c1.216.213 2.059.479 2.528.799s.704.779.704 1.376c0 1.323-1.087 1.985-3.263 1.985-1.216 0-2.113-.214-2.689-.641-.554-.427-.885-1.152-.992-2.176h-3.935c.213 3.798 2.73 5.697 7.551 5.697 2.326 0 4.128-.449 5.408-1.345s1.92-2.176 1.92-3.84c0-1.408-.458-2.507-1.376-3.296-.896-.789-2.346-1.365-4.351-1.727l-2.08-.321c-.982-.17-1.686-.405-2.113-.704a1.55 1.55 0 0 1-.639-1.311c0-1.28.96-1.92 2.88-1.92 1.13 0 1.983.213 2.559.639.576.406.885 1.099.928 2.08h3.809c-.15-3.733-2.582-5.6-7.296-5.6zm74.156 0c-2.176 0-3.862.449-5.057 1.345-1.194.874-1.792 2.09-1.792 3.647 0 2.731 1.803 4.395 5.409 4.992l1.887.321c1.216.213 2.059.479 2.529.799s.704.779.704 1.376c0 1.323-1.088 1.985-3.264 1.985-1.216 0-2.112-.214-2.688-.641-.555-.427-.886-1.152-.993-2.176h-3.935c.213 3.798 2.73 5.697 7.552 5.697 2.325 0 4.128-.449 5.408-1.345s1.92-2.176 1.92-3.84c0-1.408-.459-2.507-1.376-3.296-.896-.789-2.347-1.365-4.352-1.727l-2.08-.321c-.981-.17-1.686-.405-2.112-.704-.427-.32-.64-.757-.64-1.311 0-1.28.96-1.92 2.88-1.92 1.13 0 1.984.213 2.56.639.576.406.885 1.099.927 2.08h3.809c-.149-3.733-2.582-5.6-7.296-5.6zm-169.082.385v10.943c0 1.899.512 3.371 1.536 4.416 1.045 1.024 2.454 1.536 4.225 1.536 2.197 0 3.925-.928 5.183-2.784v2.4h3.905v-16.511h-4.033v9.248c0 1.301-.362 2.324-1.088 3.071a3.47 3.47 0 0 1-2.591 1.088c-2.07 0-3.105-1.045-3.105-3.136v-10.271h-4.032zm119.712-.385c-2.517 0-4.544.79-6.08 2.368-1.558 1.557-2.336 3.648-2.336 6.272s.778 4.715 2.336 6.272c1.536 1.579 3.563 2.368 6.08 2.368s4.544-.789 6.08-2.368 2.304-3.669 2.304-6.272c0-2.645-.768-4.747-2.304-6.304s-3.563-2.336-6.08-2.336zm66.1-5.888v22.784h3.873v-2.368c1.194 1.835 2.954 2.752 5.28 2.752 2.261 0 4.064-.789 5.408-2.368 1.322-1.579 1.983-3.669 1.983-6.272 0-2.624-.66-4.726-1.983-6.304-1.344-1.557-3.147-2.336-5.408-2.336-2.24 0-3.947.843-5.12 2.528v-8.416h-4.033zm18.657 6.273v10.943c0 1.899.512 3.371 1.536 4.416 1.045 1.024 2.454 1.536 4.224 1.536 2.198 0 3.925-.928 5.184-2.784v2.4h3.904v-16.511h-4.032v9.248c0 1.301-.363 2.324-1.088 3.071a3.47 3.47 0 0 1-2.592 1.088c-2.069 0-3.104-1.045-3.104-3.136v-10.271h-4.032zm44.464-6.273v8.416c-1.174-1.685-2.87-2.528-5.088-2.528-2.304 0-4.107.779-5.409 2.336-1.344 1.557-2.015 3.659-2.015 6.304 0 2.603.672 4.693 2.015 6.272 1.323 1.579 3.126 2.368 5.409 2.368 2.261 0 4-.896 5.215-2.687v2.303h3.905v-22.784h-4.032zm-221.976 6.017c-2.368 0-4.01 1.066-4.928 3.199v-2.943h-3.904v16.511h4.032v-8.383c0-1.515.406-2.656 1.216-3.424.832-.79 2.016-1.185 3.552-1.185h1.024v-3.712c-.298-.042-.629-.063-.992-.063zm29.11-.129c-2.176 0-3.882 1.024-5.12 3.072-.896-2.048-2.603-3.072-5.12-3.072-2.005 0-3.573.917-4.704 2.752v-2.367h-3.904v16.511h4.032v-9.088c0-1.407.309-2.474.928-3.2.64-.746 1.461-1.12 2.464-1.12 1.919 0 2.88 1.045 2.88 3.136v10.272h4v-9.088c0-1.408.309-2.474.928-3.2.64-.746 1.472-1.12 2.496-1.12 1.899 0 2.848 1.046 2.848 3.136v10.272h4.032v-10.912c0-1.856-.512-3.317-1.536-4.384-1.003-1.066-2.411-1.6-4.224-1.6zm9.027.385v16.511h4.032v-16.511h-4.032zm39.656 0v16.511h4.032v-16.511h-4.032zm34.932-.385c-2.176 0-3.894.917-5.153 2.752v-2.367h-3.904v16.511h4.032v-9.248c0-1.301.352-2.314 1.056-3.04.725-.746 1.6-1.12 2.624-1.12 2.069 0 3.104 1.045 3.104 3.136v10.272h4.033v-10.944c0-1.899-.523-3.36-1.569-4.384-1.024-1.045-2.432-1.568-4.223-1.568zm15.974.385v16.511h4.032v-16.511h-4.032zm66.938 0v16.511h4.032v-16.511h-4.032zm7.281-6.273v22.784h4.032v-22.784h-4.032zm26.344 6.273v16.511h4.032v-16.511h-4.032zm16.338-.385c-2.176 0-3.894.917-5.153 2.752v-2.367h-3.904v16.511h4.032v-9.248c0-1.301.352-2.314 1.056-3.04.725-.746 1.6-1.12 2.624-1.12 2.069 0 3.104 1.045 3.104 3.136v10.272h4.033v-10.944c0-1.899-.523-3.36-1.569-4.384-1.024-1.045-2.432-1.568-4.223-1.568zm-152.845 3.328c1.344 0 2.389.47 3.136 1.408.768.917 1.151 2.219 1.151 3.904s-.384 2.997-1.151 3.936c-.747.917-1.792 1.376-3.136 1.376s-2.4-.459-3.168-1.376c-.747-.917-1.12-2.229-1.12-3.936s.373-3.019 1.12-3.936c.768-.917 1.824-1.376 3.168-1.376zm74.293 0c1.365 0 2.41.449 3.136 1.345.746.874 1.12 2.154 1.12 3.84 0 1.727-.374 3.061-1.12 4-.768.959-1.814 1.439-3.136 1.439-1.344 0-2.379-.459-3.105-1.376-.767-.896-1.151-2.208-1.151-3.936 0-1.706.373-3.019 1.12-3.936s1.792-1.376 3.136-1.376zm50.767 0c1.344 0 2.39.459 3.136 1.376s1.12 2.23 1.12 3.936-.373 3.019-1.12 3.936c-.768.917-1.813 1.376-3.136 1.376s-2.356-.437-3.103-1.312-1.12-2.165-1.12-3.872.373-3.04 1.12-4c.768-.96 1.802-1.44 3.103-1.44zm-258.585-5.92c2.091 0 3.766.725 5.025 2.176 1.237 1.429 1.855 3.403 1.855 5.921s-.618 4.49-1.855 5.92c-1.259 1.45-2.934 2.175-5.025 2.175-2.069 0-3.733-.725-4.992-2.175s-1.887-3.424-1.887-5.92.629-4.471 1.887-5.921 2.923-2.176 4.992-2.176zm303.054 5.92c1.344 0 2.389.449 3.136 1.345s1.12 2.143 1.12 3.743-.373 2.848-1.12 3.744-1.792 1.345-3.136 1.345c-1.301 0-2.335-.449-3.103-1.345-.747-.896-1.12-2.133-1.12-3.712 0-1.6.373-2.848 1.12-3.744.768-.917 1.802-1.376 3.103-1.376zm-224.115-8.863v3.775h3.968v-3.775h-3.968zm39.656 0v3.775h3.968v-3.775h-3.968zm50.906 0v3.775h3.968v-3.775h-3.968zm66.938 0v3.775h3.968v-3.775h-3.968zm33.625 0v3.775h3.968v-3.775h-3.968z" fill="#fff"/></svg>