<svg xmlns="http://www.w3.org/2000/svg" width="1000" height="750" fill="none" xmlns:v="https://vecta.io/nano"><g fill="#fff" clip-path="url(#A)"><path fill-rule="evenodd" d="M0 0h1000v750H0zm640.091 446.495h2.929v-2.88h-2.929zm-12.643-3.969q.267 4.284 5.469 4.284 2.47 0 3.848-.993 1.38-1.016 1.38-2.831 0-1.549-1.017-2.42t-3.315-1.307l-1.307-.218q-1.21-.242-1.766-.629-.557-.411-.557-1.137 0-.8.629-1.234.63-.436 1.791-.436 1.452 0 2.154.532.7.508.774 1.767h2.347q-.12-4.187-5.275-4.187-2.25 0-3.533.993-1.283.967-1.283 2.637 0 3.001 3.969 3.727l1.282.242q1.5.267 2.082.678.58.411.58 1.161 0 1.743-2.758 1.743-1.525 0-2.227-.533t-.847-1.839zm-.987-8.688a6 6 0 0 0-.702-.024q-2.71 0-3.896 2.42v-2.226h-2.323v12.487h2.42v-6.776q0-1.743 1.016-2.662 1.017-.92 2.88-.92h.605zm-9.551 7.212v-.702q0-2.904-1.573-4.767-1.597-1.864-4.357-1.864-2.637 0-4.283 1.791-1.645 1.791-1.645 4.743t1.645 4.744q1.645 1.79 4.332 1.79 2.154 0 3.606-1.089 1.476-1.113 1.984-3.025h-2.444q-.726 2.082-3.098 2.082-1.572 0-2.492-.92-.92-.944-1.089-2.783zm-13.466-5.058v-1.984h-2.517v-3.582h-2.42v3.582h-2.008v1.984h2.008v7.72q0 1.5.847 2.178t2.614.678q.678 0 1.476-.073v-1.936h-1.089q-.774 0-1.113-.242-.315-.266-.315-.823v-7.502zm-7.385 0v-1.984h-2.517v-3.582h-2.42v3.582h-2.008v1.984h2.008v7.72q0 1.5.847 2.178t2.614.678q.678 0 1.476-.073v-1.936h-1.089q-.774 0-1.113-.242-.315-.266-.315-.823v-7.502zm-7.587 8.64h-.677q-.678 0-.678-.63v-6.606q0-3.678-4.937-3.679-5.034 0-5.3 4.187h2.396q.098-1.259.75-1.742.654-.509 2.154-.509 1.38 0 1.96.436.606.411.605 1.355 0 .702-.459 1.089-.437.364-1.404.484l-1.839.194q-4.695.483-4.695 3.872 0 1.742 1.186 2.734 1.209.97 3.267.968 2.807 0 4.065-1.984.121.92.678 1.355.58.41 1.742.412.654 0 1.186-.073zm-15.742-9.705q-1.138-1.21-3.17-1.21-2.541 0-3.872 2.348-1.017-2.348-3.848-2.348-2.323 0-3.606 2.154v-1.863h-2.323v12.487h2.42v-6.849q0-1.814.823-2.807.822-.992 2.105-.992 2.42 0 2.42 2.589v8.059h2.42v-6.849q0-1.84.823-2.807.822-.992 2.105-.992 2.396 0 2.396 2.589v8.059h2.444v-8.373q0-2.008-1.137-3.195m-26.698-.919-1.452 4.283a387 387 0 0 0-1.887 5.978 223 223 0 0 0-1.864-5.978l-1.452-4.283h-2.637l4.622 12.826q-.073.17-.194.484-.096.315-.145.46-.557 1.5-2.178 1.5h-1.21v1.96q.605.073 1.258.073 1.912 0 2.953-.726t1.67-2.517l5.082-14.06zm-13.434 12.487h2.42v-17.23h-2.42zm-5.632-12.487v7.042q0 1.694-.92 2.662-.896.944-2.226.944-2.638 0-2.638-2.614v-8.034h-2.42v8.373q0 2.08 1.161 3.243 1.162 1.161 3.219 1.161 2.493 0 3.92-2.153v1.863h2.324v-12.487zm-10.322-.17a6 6 0 0 0-.702-.024q-2.71 0-3.896 2.42v-2.226h-2.323v12.487h2.42v-6.776q0-1.743 1.016-2.662 1.017-.92 2.88-.92h.605zm-9.346 2.154v-1.984h-2.517v-3.582h-2.42v3.582h-2.008v1.984h2.008v7.72q0 1.5.847 2.178t2.614.678q.678 0 1.476-.073v-1.936h-1.089q-.774 0-1.113-.242-.315-.266-.315-.823v-7.502zm-13.73 0v-1.984h-2.516v-3.582h-2.42v3.582h-2.009v1.984h2.009v7.72q0 1.5.847 2.178.846.678 2.613.678.678 0 1.476-.073v-1.936h-1.089q-.774 0-1.113-.242-.314-.266-.314-.823v-7.502zm-7.587 8.64h-.677q-.678 0-.678-.63v-6.606q0-3.678-4.937-3.679-5.033 0-5.299 4.187h2.395q.097-1.259.751-1.742.653-.509 2.153-.509 1.38 0 1.961.436.605.411.605 1.355 0 .702-.46 1.089-.437.364-1.404.484l-1.839.194q-4.695.483-4.695 3.872 0 1.742 1.186 2.734 1.21.97 3.267.968 2.808 0 4.066-1.984.12.92.677 1.355.58.41 1.743.412.652 0 1.185-.073zm-15.796-9.753q-1.162-1.162-3.219-1.162-2.396 0-3.823 2.009v-6.461h-2.42v17.23h2.42v-7.042q0-1.743.968-2.686.967-.92 2.178-.92 2.637 0 2.637 2.614v8.034h2.42v-8.373q0-2.106-1.161-3.243m-13.771-.871-1.621 5.203a298 298 0 0 0-1.283 4.428 298 298 0 0 0-1.283-4.428l-1.573-5.203h-2.42l-1.597 5.203a97 97 0 0 0-1.258 4.453q-.653-2.348-1.307-4.453l-1.597-5.203h-2.614l4.138 12.487h2.566l1.694-5.493q.363-1.186 1.161-4.018.532 1.936 1.186 4.018l1.718 5.493h2.541l4.138-12.487zm-26.304-4.743v6.437q-1.404-1.985-4.042-1.985-2.613 0-4.162 1.767-1.55 1.767-1.549 4.767 0 3 1.549 4.768 1.55 1.766 4.162 1.766 2.736 0 4.139-2.129v1.839h2.323v-17.23zm-14.784 17.23h2.42v-17.23h-2.42zm-5.637-14.254h2.469v-2.589h-2.469zm.024 14.254h2.42v-12.487h-2.42zm-5.632-12.487v7.042q0 1.694-.92 2.662-.896.944-2.226.944-2.638 0-2.638-2.614v-8.034h-2.42v8.373q0 2.08 1.162 3.243 1.161 1.161 3.218 1.161 2.493 0 3.921-2.153v1.863h2.323v-12.487zm-12.031 1.476q-1.55-1.767-4.162-1.767-2.662 0-4.066 2.033v-6.485h-2.42v17.23h2.323v-1.888q1.404 2.178 4.163 2.178 2.59 0 4.162-1.79 1.55-1.767 1.549-4.744 0-3-1.549-4.767m287.559-36.219v6.437q-1.404-1.985-4.041-1.985-2.614 0-4.163 1.767t-1.549 4.767 1.549 4.768q1.549 1.766 4.163 1.766 2.734 0 4.138-2.129v1.839h2.323v-17.23zm-13.546 5.614q-1.161-1.162-3.219-1.162-2.492 0-3.92 2.154v-1.863h-2.323v12.487h2.42v-7.042q0-1.743.968-2.686.967-.92 2.178-.92 2.638 0 2.638 2.614v8.034h2.419v-8.373q0-2.106-1.161-3.243m-11.546 9.753h-.677q-.678 0-.678-.63v-6.606q0-3.678-4.937-3.679-5.033 0-5.299 4.187h2.395q.097-1.259.751-1.742.653-.509 2.153-.509 1.38 0 1.961.436.605.411.605 1.355 0 .702-.46 1.089-.437.364-1.404.484l-1.839.194q-4.695.483-4.695 3.872 0 1.742 1.186 2.734 1.21.97 3.267.968 2.807 0 4.066-1.984.12.92.677 1.355.58.41 1.743.412.653 0 1.185-.073zm-29.78-2.106q.267 4.284 5.469 4.284 2.468 0 3.848-.993 1.38-1.016 1.379-2.831 0-1.549-1.016-2.42t-3.315-1.307l-1.307-.218q-1.21-.242-1.767-.629-.556-.411-.556-1.137 0-.8.629-1.234.628-.436 1.791-.436 1.452 0 2.153.532.702.508.775 1.767h2.347q-.12-4.187-5.275-4.187-2.251 0-3.533.993-1.284.967-1.283 2.637 0 3.001 3.969 3.727l1.282.242q1.501.267 2.081.678.582.411.581 1.161 0 1.743-2.759 1.743-1.524 0-2.226-.533t-.847-1.839zm-4.787-13.261v6.437q-1.403-1.985-4.041-1.985-2.613 0-4.162 1.767-1.55 1.767-1.549 4.767 0 3.001 1.549 4.768 1.55 1.767 4.162 1.766 2.735 0 4.138-2.129v1.839h2.323v-17.23zm-13.546 5.614q-1.161-1.162-3.218-1.162-2.493 0-3.921 2.154v-1.863h-2.323v12.487h2.42v-7.042q0-1.743.968-2.686.968-.92 2.178-.92 2.638 0 2.638 2.614v8.034h2.42v-8.373q0-2.106-1.162-3.243m-15.098-2.638h2.468v-2.589h-2.468zm.024 14.254h2.42v-12.487h-2.42zm-4.32-11.568q-1.139-1.21-3.171-1.21-2.54 0-3.871 2.348-1.017-2.348-3.848-2.348-2.323 0-3.606 2.154v-1.863h-2.323v12.487h2.42v-6.849q0-1.814.822-2.807.823-.992 2.106-.992 2.42 0 2.42 2.589v8.059h2.42v-6.849q0-1.84.823-2.807.822-.992 2.105-.992 2.396 0 2.396 2.589v8.059h2.444v-8.373q0-2.008-1.137-3.195m-24.62 1.065v-1.984h-2.517v-3.582h-2.42v3.582h-2.008v1.984h2.008v7.72q0 1.5.847 2.178t2.614.678q.677 0 1.476-.073v-1.936h-1.089q-.774 0-1.113-.242-.315-.266-.315-.823v-7.502zm-18.698 6.534q.265 4.284 5.469 4.284 2.468 0 3.848-.993 1.379-1.016 1.379-2.831 0-1.549-1.016-2.42t-3.316-1.307l-1.306-.218q-1.21-.242-1.767-.629-.557-.411-.557-1.137 0-.8.629-1.234.63-.436 1.791-.436 1.452 0 2.154.532.702.508.774 1.767h2.348q-.121-4.187-5.276-4.187-2.25 0-3.533.993-1.283.967-1.283 2.637 0 3.001 3.969 3.727l1.283.242q1.5.267 2.081.678.58.411.581 1.161 0 1.743-2.759 1.743-1.525 0-2.226-.533t-.847-1.839zm-1.713-1.476v-.702q0-2.904-1.573-4.767-1.596-1.864-4.356-1.864-2.637 0-4.283 1.791t-1.646 4.743 1.646 4.744q1.646 1.79 4.332 1.79 2.154 0 3.606-1.089 1.476-1.113 1.984-3.025h-2.444q-.726 2.082-3.098 2.082-1.572 0-2.492-.92-.921-.944-1.089-2.783zm-15.434-5.566q-1.549-1.767-4.163-1.767-2.758 0-4.162 2.178v-1.887h-2.323v17.23h2.42v-6.485q1.402 2.032 4.065 2.032 2.59 0 4.163-1.79 1.548-1.767 1.548-4.744 0-3-1.548-4.767m-12.884-1.646a6 6 0 0 0-.702-.024q-2.71 0-3.896 2.42v-2.226h-2.324v12.487h2.42v-6.776q0-1.743 1.017-2.662 1.015-.92 2.88-.92h.605zm-9.005 10.794h-.677q-.678 0-.678-.63v-6.606q0-3.678-4.937-3.679-5.034 0-5.3 4.187h2.396q.097-1.259.75-1.742.654-.509 2.154-.509 1.38 0 1.96.436.605.411.605 1.355 0 .702-.46 1.089-.435.364-1.403.484l-1.839.194q-4.695.483-4.695 3.872 0 1.742 1.186 2.734 1.209.97 3.267.968 2.807 0 4.065-1.984.122.92.678 1.355.58.41 1.742.412.654 0 1.186-.073zm-15.797-9.753q-1.161-1.162-3.218-1.162-2.396 0-3.824 2.009v-6.461h-2.42v17.23h2.42v-7.042q0-1.743.968-2.686.967-.92 2.178-.92 2.638 0 2.638 2.614v8.034h2.42v-8.373q0-2.106-1.162-3.243m-22.444 7.647q.267 4.284 5.469 4.284 2.47 0 3.848-.993 1.38-1.016 1.38-2.831 0-1.549-1.017-2.42t-3.315-1.307l-1.307-.218q-1.21-.242-1.767-.629-.556-.411-.556-1.137 0-.8.629-1.234.629-.436 1.791-.436 1.452 0 2.154.532.7.508.774 1.767h2.347q-.12-4.187-5.275-4.187-2.251 0-3.533.993-1.284.967-1.283 2.637 0 3.001 3.969 3.727l1.282.242q1.5.267 2.082.678.58.411.58 1.161 0 1.743-2.758 1.743-1.525 0-2.227-.533t-.847-1.839zm-7.159-1.476v-.702q0-2.904-1.573-4.767-1.597-1.864-4.356-1.864-2.638 0-4.283 1.791t-1.646 4.743 1.646 4.744q1.646 1.79 4.331 1.79 2.154 0 3.606-1.089 1.476-1.113 1.985-3.025h-2.445q-.726 2.082-3.097 2.082-1.573 0-2.493-.92-.92-.944-1.089-2.783zm-15.652-6.171q-1.161-1.162-3.218-1.162-2.396 0-3.824 2.009v-6.461h-2.42v17.23h2.42v-7.042q0-1.743.968-2.686.969-.92 2.178-.92 2.638 0 2.638 2.614v8.034h2.42v-8.373q0-2.106-1.162-3.243m-11.887 1.113v-1.984h-2.516v-3.582h-2.42v3.582h-2.009v1.984h2.009v7.72q0 1.5.847 2.178.848.678 2.613.678.678 0 1.476-.073v-1.936h-1.089q-.774 0-1.113-.242-.314-.266-.314-.823v-7.502zm-16.938-6.727v6.437q-1.404-1.985-4.042-1.985-2.613 0-4.162 1.767-1.55 1.767-1.549 4.767 0 3.001 1.549 4.768 1.55 1.766 4.162 1.766 2.735 0 4.139-2.129v1.839h2.323v-17.23zm-13.546 5.614q-1.162-1.162-3.219-1.162-2.493 0-3.92 2.154v-1.863h-2.324v12.487h2.42v-7.042q0-1.743.968-2.686.969-.92 2.178-.92 2.638 0 2.638 2.614v8.034h2.42v-8.373q0-2.106-1.161-3.243m-21.976-2.009v1.138h-2.009v1.984h2.009v10.503h2.42v-10.503h2.614v-1.984h-2.614v-1.138q0-1.645 1.621-1.645h1.089v-1.96a24 24 0 0 0-1.379-.073q-3.751 0-3.751 3.678m6.849-3.218v2.589h2.468v-2.589zm.024 16.843h2.42v-12.487h-2.42zm-15.871-5.445v-.702q0-2.904-1.573-4.767-1.597-1.864-4.356-1.864-2.639 0-4.284 1.791t-1.645 4.743 1.645 4.744q1.645 1.79 4.332 1.79 2.154 0 3.606-1.089 1.476-1.113 1.984-3.025h-2.444q-.726 2.082-3.098 2.082-1.572 0-2.492-.92-.92-.944-1.089-2.783zm-14.529-11.785-2.105 7.816a397 397 0 0 0-1.597 6.365q-1.404-5.76-1.573-6.413l-2.082-7.768h-2.758l-2.082 7.768q-.17.653-1.573 6.413-.507-2.13-1.597-6.365l-2.105-7.816h-2.686l4.84 17.23h2.904l2.178-8.059q.628-2.347 1.5-5.977.872 3.63 1.5 5.977l2.178 8.059h2.904l4.84-17.23zm344.109-12.77h2.928v-2.88h-2.928zm-4.036-11.616q-1.161-1.162-3.218-1.162-2.493 0-3.921 2.154v-1.863h-2.323v12.487h2.42v-7.042q0-1.743.968-2.686.969-.92 2.178-.92 2.638 0 2.638 2.614v8.034h2.42v-8.373q0-2.106-1.162-3.243m-18.251 11.906q2.758 0 4.477-1.79 1.694-1.767 1.694-4.744 0-3-1.694-4.767t-4.477-1.767-4.477 1.767q-1.718 1.791-1.718 4.767 0 2.953 1.718 4.744t4.477 1.79m-11.251-14.544h2.468v-2.589h-2.468zm.024 14.254h2.42v-12.487h-2.42zm-2.425-10.503v-1.984h-2.516v-3.582h-2.42v3.582h-2.009v1.984h2.009v7.72q0 1.5.847 2.178.846.678 2.613.678.678 0 1.476-.073v-1.936h-1.089q-.774 0-1.113-.242-.314-.266-.314-.823v-7.502zm-7.587 8.64h-.677q-.678 0-.678-.63v-6.606q0-3.678-4.937-3.679-5.033 0-5.299 4.187h2.396q.096-1.259.75-1.742.653-.509 2.153-.509 1.38 0 1.961.436.605.411.605 1.355 0 .702-.46 1.089-.435.364-1.404.484l-1.839.194q-4.695.483-4.695 3.872 0 1.742 1.186 2.734 1.21.97 3.267.968 2.808 0 4.066-1.984.12.92.677 1.355.58.41 1.743.412.652 0 1.185-.073zm-15.301-10.624-1.669 4.574q-.436 1.33-.872 2.613-.435 1.259-.677 1.985-.241.725-.315.968-.121-.46-1.839-5.566l-1.694-4.574h-2.614l4.768 12.487h2.686l4.792-12.487zm-16.525 12.777q2.758 0 4.477-1.79 1.694-1.767 1.694-4.744 0-3-1.694-4.767-1.695-1.767-4.477-1.767-2.784 0-4.477 1.767-1.718 1.791-1.718 4.767 0 2.953 1.718 4.744t4.477 1.79m-9.989-11.906q-1.161-1.162-3.219-1.162-2.492 0-3.92 2.154v-1.863h-2.323v12.487h2.42v-7.042q0-1.743.968-2.686.967-.92 2.178-.92 2.638 0 2.638 2.614v8.034h2.42v-8.373q0-2.106-1.162-3.243m-13.837 0q-1.161-1.162-3.218-1.162-2.493 0-3.921 2.154v-1.863h-2.323v12.487h2.42v-7.042q0-1.743.968-2.686.969-.92 2.178-.92 2.638 0 2.638 2.614v8.034h2.42v-8.373q0-2.106-1.162-3.243m-15.098-2.638h2.468v-2.589h-2.468zm.024 14.254h2.42v-12.487h-2.42zm-18.358-3.969q.265 4.284 5.469 4.284 2.468 0 3.848-.993 1.38-1.016 1.379-2.831 0-1.549-1.016-2.42t-3.315-1.307l-1.307-.218q-1.21-.242-1.767-.629-.556-.411-.556-1.137 0-.8.629-1.234.628-.436 1.791-.436 1.45 0 2.153.532.702.508.775 1.767h2.347q-.12-4.187-5.275-4.187-2.25 0-3.534.993-1.282.967-1.282 2.637 0 3.001 3.969 3.727l1.282.242q1.5.267 2.081.678.582.411.581 1.161 0 1.743-2.759 1.743-1.524 0-2.226-.533t-.847-1.839zm-1.507-6.534v-1.984h-2.517v-3.582h-2.42v3.582h-2.008v1.984h2.008v7.72q0 1.5.847 2.178t2.614.678q.678 0 1.476-.073v-1.936h-1.089q-.774 0-1.113-.242-.315-.266-.315-.823v-7.502zm-7.874 5.058v-.702q0-2.904-1.573-4.767-1.598-1.864-4.356-1.864-2.637 0-4.283 1.791t-1.646 4.743 1.646 4.744q1.646 1.79 4.332 1.79 2.154 0 3.605-1.089 1.477-1.113 1.985-3.025h-2.444q-.726 2.082-3.098 2.082-1.574 0-2.493-.92-.92-.944-1.089-2.783zm-13.907 0v-.702q0-2.904-1.573-4.767-1.598-1.864-4.356-1.864-2.639 0-4.284 1.791t-1.645 4.743 1.645 4.744q1.645 1.79 4.332 1.79 2.154 0 3.606-1.089 1.476-1.113 1.984-3.025h-2.444q-.726 2.082-3.097 2.082-1.573 0-2.493-.92-.92-.944-1.089-2.783zm-15.597-6.123q-1.139-1.21-3.171-1.21-2.54 0-3.872 2.348-1.016-2.348-3.847-2.348-2.323 0-3.606 2.154v-1.863h-2.323v12.487h2.42v-6.849q0-1.814.822-2.807.823-.992 2.106-.992 2.42 0 2.42 2.589v8.059h2.42v-6.849q0-1.84.823-2.807.822-.992 2.105-.992 2.396 0 2.396 2.589v8.059h2.444v-8.373q0-2.008-1.137-3.195m-24.62 1.065v-1.984h-2.517v-3.582h-2.42v3.582h-2.009v1.984h2.009v7.72q0 1.5.847 2.178t2.614.678q.676 0 1.476-.073v-1.936h-1.089q-.774 0-1.113-.242-.315-.266-.315-.823v-7.502zm-9.854-1.113q-1.163-1.162-3.219-1.162-2.493 0-3.921 2.154v-1.863h-2.323v12.487h2.42v-7.042q0-1.743.968-2.686.969-.92 2.178-.92 2.638 0 2.638 2.614v8.034h2.42v-8.373q0-2.106-1.161-3.243m-12.093 6.171v-.702q0-2.904-1.573-4.767-1.597-1.864-4.356-1.864-2.637 0-4.283 1.791t-1.646 4.743 1.646 4.744q1.646 1.79 4.331 1.79 2.154 0 3.606-1.089 1.476-1.113 1.985-3.025h-2.445q-.726 2.082-3.097 2.082-1.573 0-2.493-.92-.92-.944-1.089-2.783zm-16.889 5.445h2.42v-17.23h-2.42zm-1.989-1.863h-.678q-.678 0-.677-.63v-6.606q0-3.678-4.937-3.679-5.034 0-5.3 4.187h2.396q.096-1.259.75-1.742.654-.509 2.154-.509 1.379 0 1.96.436.605.411.605 1.355 0 .702-.46 1.089-.435.364-1.403.484l-1.84.194q-4.694.483-4.694 3.872 0 1.742 1.185 2.734 1.21.97 3.267.968 2.808 0 4.066-1.984.122.92.678 1.355.58.41 1.742.412.654 0 1.186-.073zm-13.753-8.64v-1.984h-2.517v-3.582h-2.42v3.582h-2.008v1.984h2.008v7.72q0 1.5.847 2.178t2.614.678q.678 0 1.476-.073v-1.936h-1.089q-.774 0-1.113-.242-.315-.266-.315-.823v-7.502zm-15.826-1.984-1.621 5.203a298 298 0 0 0-1.283 4.428 298 298 0 0 0-1.283-4.428l-1.573-5.203h-2.42l-1.597 5.203a97 97 0 0 0-1.258 4.453q-.654-2.348-1.307-4.453l-1.597-5.203h-2.614l4.138 12.487h2.566l1.694-5.493q.363-1.186 1.161-4.018.532 1.936 1.186 4.018l1.718 5.493h2.541l4.138-12.487zm-16.763 10.624h-.678q-.678 0-.677-.63v-6.606q0-3.678-4.937-3.679-5.034 0-5.3 4.187h2.396q.096-1.259.75-1.742.654-.509 2.154-.509 1.379 0 1.96.436.605.411.605 1.355 0 .702-.46 1.089-.435.364-1.403.484l-1.84.194q-4.695.483-4.694 3.872 0 1.742 1.185 2.734 1.21.97 3.267.968 2.808 0 4.066-1.984.121.92.678 1.355.58.41 1.742.412.654 0 1.186-.073zm-12.855-10.794a6 6 0 0 0-.702-.024q-2.71 0-3.896 2.42v-2.226h-2.323v12.487h2.42v-6.776q0-1.743 1.016-2.662 1.017-.92 2.88-.92h.605zm-14.928 7.212v-.702q0-2.904-1.573-4.767-1.596-1.864-4.356-1.864-2.637 0-4.283 1.791t-1.646 4.743 1.646 4.744q1.645 1.79 4.332 1.79 2.154 0 3.606-1.089 1.476-1.113 1.984-3.025h-2.444q-.726 2.082-3.098 2.082-1.572 0-2.492-.92-.92-.944-1.089-2.783zm-12.851-7.212a6 6 0 0 0-.702-.024q-2.71 0-3.896 2.42v-2.226h-2.323v12.487h2.42v-6.776q0-1.743 1.016-2.662 1.017-.92 2.88-.92h.605zm-9.552 7.212v-.702q0-2.904-1.573-4.767-1.596-1.864-4.356-1.864-2.637 0-4.283 1.791t-1.646 4.743 1.646 4.744q1.645 1.79 4.332 1.79 2.154 0 3.606-1.089 1.476-1.113 1.984-3.025h-2.444q-.726 2.082-3.098 2.082-1.572 0-2.492-.92-.92-.944-1.089-2.783zm-15.651-6.171q-1.163-1.162-3.219-1.162-2.395 0-3.823 2.009v-6.461h-2.42v17.23h2.42v-7.042q0-1.743.968-2.686.967-.92 2.178-.92 2.637 0 2.637 2.614v8.034h2.421v-8.373q0-2.106-1.162-3.243m-13.771-.871-1.621 5.203a298 298 0 0 0-1.283 4.428 287 287 0 0 0-1.282-4.428l-1.573-5.203h-2.42l-1.598 5.203a97 97 0 0 0-1.258 4.453q-.654-2.348-1.307-4.453l-1.597-5.203h-2.614l4.139 12.487h2.565l1.694-5.493q.363-1.186 1.161-4.018.533 1.936 1.186 4.018l1.718 5.493h2.541l4.139-12.487zm330.553-28.524q-1.548-1.767-4.162-1.767-2.662 0-4.066 2.033v-6.485h-2.42v17.23h2.323v-1.888q1.404 2.178 4.163 2.178 2.589 0 4.162-1.79 1.55-1.767 1.549-4.744 0-3-1.549-4.767m-16.281-1.476v7.042q0 1.694-.919 2.662-.895.944-2.227.944-2.637 0-2.637-2.614v-8.034h-2.42v8.373q0 2.08 1.161 3.243 1.162 1.161 3.219 1.161 2.492 0 3.92-2.153v1.863h2.323v-12.487zm-13.816 12.487h2.42v-17.23h-2.42zm-12.275-1.5q1.646 1.79 4.307 1.79 2.251 0 3.776-1.282t1.815-3.461h-2.469q-.217 1.283-1.065 1.96-.846.678-2.057.678-1.572 0-2.516-1.137-.92-1.162-.92-3.292 0-2.128.92-3.267.944-1.161 2.516-1.161 1.186 0 2.009.653.848.654 1.089 1.888h2.468q-.29-2.13-1.79-3.388-1.477-1.259-3.776-1.259-2.685 0-4.307 1.767-1.646 1.791-1.646 4.767 0 2.953 1.646 4.744m-8.524-.363h-.678q-.678 0-.678-.63v-6.606q0-3.678-4.936-3.679-5.034 0-5.3 4.187h2.396q.096-1.259.75-1.742.653-.509 2.154-.509 1.379 0 1.96.436.605.411.605 1.355 0 .702-.46 1.089-.435.364-1.403.484l-1.84.194q-4.694.483-4.694 3.872 0 1.742 1.185 2.734 1.21.97 3.267.968 2.808 0 4.066-1.984.121.92.677 1.355.582.41 1.743.412.654 0 1.186-.073zm-22.336-10.624v1.766q-1.403-2.057-4.138-2.057-2.589 0-4.138 1.767-1.573 1.791-1.573 4.695t1.573 4.695q1.55 1.766 4.162 1.766 2.59 0 4.018-1.936v1.38q0 3.484-3.509 3.484-2.832 0-3.122-2.202h-2.42q.193 1.936 1.621 3.049 1.452 1.114 3.896 1.114 2.856 0 4.405-1.477 1.548-1.452 1.549-4.017v-12.027zm-13.642.871q-1.163-1.162-3.219-1.162-2.493 0-3.92 2.154v-1.863h-2.324v12.487h2.42v-7.042q0-1.743.968-2.686.969-.92 2.178-.92 2.638 0 2.638 2.614v8.034h2.42v-8.373q0-2.106-1.161-3.243m-15.099-2.638h2.468v-2.589h-2.468zm.024 14.254h2.42v-12.487h-2.42zm-5.634-17.23v6.437q-1.402-1.985-4.041-1.985-2.613 0-4.163 1.767-1.548 1.767-1.548 4.767t1.548 4.768q1.55 1.766 4.163 1.766 2.734 0 4.138-2.129v1.839h2.323v-17.23zm-14.784 17.23h2.42v-17.23h-2.42zm-5.636-14.254h2.468v-2.589h-2.468zm.024 14.254h2.42v-12.487h-2.42zm-5.633-12.487v7.042q0 1.694-.92 2.662-.896.944-2.226.944-2.638 0-2.638-2.614v-8.034h-2.42v8.373q0 2.08 1.162 3.243 1.161 1.161 3.219 1.161 2.492 0 3.92-2.153v1.863h2.323v-12.487zm-12.03 1.476q-1.549-1.767-4.163-1.767-2.663 0-4.065 2.033v-6.485h-2.42v17.23h2.323v-1.888q1.404 2.178 4.162 2.178 2.59 0 4.163-1.79 1.548-1.767 1.548-4.744 0-3-1.548-4.767m-29.006 7.042q.266 4.284 5.469 4.284 2.468 0 3.848-.993 1.379-1.016 1.379-2.831 0-1.549-1.016-2.42t-3.316-1.307l-1.307-.218q-1.21-.242-1.766-.629-.557-.411-.557-1.137 0-.8.629-1.234.63-.436 1.791-.436 1.452 0 2.154.532.702.508.775 1.767h2.347q-.121-4.187-5.276-4.187-2.25 0-3.533.993-1.282.967-1.282 2.637 0 3.001 3.968 3.727l1.283.242q1.5.267 2.081.678.58.411.581 1.161 0 1.743-2.759 1.743-1.524 0-2.226-.533t-.847-1.839zm-4.79-10.285h2.469v-2.589h-2.469zm.024 14.254h2.42v-12.487h-2.42zm-9.75-11.616q-1.161-1.162-3.219-1.162-2.492 0-3.92 2.154v-1.863h-2.323v12.487h2.42v-7.042q0-1.743.968-2.686.967-.92 2.178-.92 2.637 0 2.638 2.614v8.034h2.42v-8.373q0-2.106-1.162-3.243m-18.252 11.906q2.76 0 4.477-1.79 1.695-1.767 1.695-4.744 0-3-1.695-4.767-1.693-1.767-4.477-1.767-2.782 0-4.477 1.767-1.718 1.791-1.718 4.767 0 2.953 1.718 4.744 1.719 1.79 4.477 1.79m-11.25-14.544h2.468v-2.589h-2.468zm.024 14.254h2.42v-12.487h-2.42zm-12.982-3.969q.266 4.284 5.469 4.284 2.47 0 3.848-.993 1.379-1.016 1.379-2.831 0-1.549-1.016-2.42t-3.316-1.307l-1.306-.218q-1.21-.242-1.767-.629-.557-.411-.557-1.137 0-.8.63-1.234.629-.436 1.79-.436 1.452 0 2.154.532.702.508.775 1.767h2.347q-.121-4.187-5.276-4.187-2.25 0-3.533.993-1.282.967-1.282 2.637 0 3.001 3.968 3.727l1.283.242q1.5.267 2.081.678.58.411.581 1.161 0 1.743-2.759 1.743-1.524 0-2.226-.533t-.847-1.839zm-12.419 0q.267 4.284 5.469 4.284 2.47 0 3.848-.993 1.38-1.016 1.38-2.831 0-1.549-1.017-2.42-1.015-.871-3.315-1.307l-1.307-.218q-1.21-.242-1.767-.629-.556-.411-.556-1.137 0-.8.629-1.234.629-.436 1.791-.436 1.452 0 2.154.532.702.508.774 1.767h2.347q-.12-4.187-5.275-4.187-2.251 0-3.533.993-1.283.967-1.283 2.637 0 3.001 3.969 3.727l1.282.242q1.5.267 2.082.678.58.411.58 1.161 0 1.743-2.758 1.743-1.525 0-2.227-.533t-.847-1.839zm-4.789-10.285h2.468v-2.589h-2.468zm.024 14.254h2.42v-12.487h-2.42zm-4.32-11.568q-1.137-1.21-3.17-1.21-2.541 0-3.872 2.348-1.017-2.348-3.848-2.348-2.323 0-3.606 2.154v-1.863h-2.323v12.487h2.42v-6.849q0-1.814.823-2.807.822-.992 2.105-.992 2.42 0 2.42 2.589v8.059h2.42v-6.849q0-1.84.823-2.807.822-.992 2.105-.992 2.396 0 2.396 2.589v8.059h2.444v-8.373q0-2.008-1.137-3.195m-24.62-1.089a6 6 0 0 0-.702-.024q-2.71 0-3.896 2.42v-2.226h-2.323v12.487h2.42v-6.776q0-1.743 1.016-2.662 1.016-.92 2.88-.92h.605zm-12.554.17v7.042q0 1.694-.92 2.662-.895.944-2.226.944-2.638 0-2.638-2.614v-8.034h-2.42v8.373q0 2.08 1.162 3.243 1.161 1.161 3.218 1.161 2.493 0 3.921-2.153v1.863h2.323v-12.487zm-25.214 10.382q2.275 2.492 6.099 2.492 3.774 0 6.098-2.492 2.3-2.493 2.299-6.51t-2.299-6.534q-2.324-2.469-6.098-2.469-3.824 0-6.099 2.469-2.323 2.517-2.323 6.534 0 4.041 2.323 6.51"/><path d="M353.921 352.744q1.548 1.815 4.163 1.815 2.613 0 4.162-1.815 1.55-1.767 1.549-4.864 0-3.098-1.549-4.889-1.573-1.79-4.162-1.79t-4.163 1.79q-1.572 1.84-1.573 4.889 0 3.073 1.573 4.864m6.52 23.006q-1.428 0-2.347.871-.896.873-1.113 2.517h6.897q-.171-1.523-1.089-2.444-.897-.944-2.348-.944m96.958-22.232q.993 1.186 2.686 1.186 1.695 0 2.663-1.186.992-1.185.992-3.267 0-2.079-.992-3.267-.97-1.185-2.663-1.185-1.695 0-2.686 1.185-.992 1.185-.992 3.267t.992 3.267m57.175 0q.968 1.186 2.663 1.186 1.692 0 2.686-1.21.968-1.185.968-3.339 0-2.082-.968-3.219-.97-1.137-2.686-1.137-1.67 0-2.663 1.161-.992 1.21-.992 3.291t.992 3.267m76.017 1.041q1.693 0 2.662-1.162.992-1.185.992-3.218t-.992-3.195q-.969-1.185-2.662-1.185-1.67 0-2.662 1.185t-.992 3.195q0 2.034.992 3.218.993 1.162 2.662 1.162m69.626-1.041q.967 1.186 2.662 1.186 1.693 0 2.686-1.21.968-1.185.968-3.339 0-2.082-.968-3.219-.969-1.137-2.686-1.137-1.67 0-2.662 1.161-.993 1.21-.992 3.291 0 2.082.992 3.267M364.329 405.75q-1.428 0-2.348.871-.897.873-1.113 2.517h6.897q-.171-1.523-1.089-2.444-.895-.944-2.347-.944m20.436 37.768q.967 1.186 2.662 1.186 1.693 0 2.686-1.21.969-1.185.968-3.339 0-2.082-.968-3.219-.967-1.137-2.686-1.137-1.67 0-2.662 1.161-.992 1.21-.992 3.291t.992 3.267m22.777-33.17q0 2.082.992 3.219.993 1.137 2.662 1.137 1.719 0 2.686-1.186.969-1.137.968-3.267 0-2.105-.968-3.291-.967-1.161-2.686-1.161-1.67 0-2.662 1.21t-.992 3.339m15.331 30q0 2.082.992 3.219.993 1.137 2.662 1.137 1.719 0 2.687-1.186.966-1.137.967-3.267 0-2.105-.967-3.291-.97-1.161-2.687-1.161-1.67 0-2.662 1.21-.993 1.21-.992 3.339m30.453-34.598q-1.428 0-2.347.871-.895.873-1.114 2.517h6.897q-.171-1.523-1.089-2.444-.895-.944-2.347-.944m25.346 39.148q1.55 0 2.565-.871 1.017-.872 1.017-2.469v-1.307q-.46.389-1.549.509l-1.743.193q-1.404.171-2.008.678-.605.483-.605 1.379 0 .895.581 1.404.605.484 1.742.484m18.675-30q1.548 0 2.565-.871 1.017-.872 1.016-2.469v-1.307q-.46.389-1.549.509l-1.742.193q-1.404.171-2.008.678-.606.483-.606 1.379 0 .895.581 1.404.604.484 1.743.484m21.912-1.38q.969 1.186 2.662 1.186 1.692 0 2.687-1.21.968-1.185.968-3.339 0-2.082-.968-3.219-.97-1.137-2.687-1.137-1.67 0-2.662 1.161-.993 1.21-.992 3.291 0 2.082.992 3.267m-63.67-28.62q1.55 0 2.566-.871 1.016-.872 1.016-2.469v-1.307q-.46.389-1.549.509l-1.742.193q-1.404.171-2.009.678-.606.483-.605 1.379 0 .895.581 1.404.605.484 1.742.484m-72.745-9.148q-1.428 0-2.347.871-.897.873-1.113 2.517h6.897q-.171-1.523-1.089-2.444-.897-.944-2.348-.944m26.403 9.148q1.55 0 2.566-.871 1.016-.872 1.016-2.469v-1.307q-.46.389-1.549.509l-1.742.193q-1.404.171-2.009.678-.606.483-.605 1.379 0 .895.581 1.404.605.484 1.742.484m66.6-9.148q-1.429 0-2.347.871-.895.873-1.114 2.517h6.897q-.168-1.523-1.089-2.444-.894-.944-2.347-.944m62.164 0q-1.428 0-2.348.871-.895.873-1.113 2.517h6.897q-.171-1.523-1.089-2.444-.895-.944-2.347-.944m13.907 0q-1.428 0-2.347.871-.895.873-1.113 2.517h6.897q-.171-1.523-1.089-2.444-.897-.944-2.348-.944m69.882 7.768q.99 1.186 2.686 1.186 1.692 0 2.662-1.186.992-1.185.992-3.267 0-2.079-.992-3.267-.97-1.185-2.662-1.185-1.695 0-2.686 1.185-.993 1.186-.993 3.267t.993 3.267m27.204 1.38q1.55 0 2.565-.871 1.017-.872 1.017-2.469v-1.307q-.46.389-1.549.509l-1.742.193q-1.404.171-2.009.678-.606.483-.605 1.379 0 .895.581 1.404.605.484 1.742.484m25.861-1.38q.991 1.186 2.686 1.186 1.693 0 2.662-1.186.992-1.185.992-3.267 0-2.079-.992-3.267-.969-1.185-2.662-1.185-1.695 0-2.686 1.185-.993 1.186-.992 3.267 0 2.082.992 3.267m-2.493 26.83q0 2.082.992 3.219.993 1.137 2.662 1.137 1.718 0 2.687-1.186.968-1.137.968-3.267 0-2.105-.968-3.291-.97-1.161-2.687-1.161-1.67 0-2.662 1.21-.993 1.21-.992 3.339m-25.164 4.55q1.55 0 2.565-.871 1.017-.872 1.017-2.469v-1.307q-.46.389-1.549.509l-1.743.193q-1.404.171-2.008.678-.606.483-.605 1.379 0 .895.581 1.404.605.484 1.742.484m-34.494-4.55q0 2.082.992 3.219.991 1.137 2.662 1.137 1.717 0 2.686-1.186.968-1.137.968-3.267 0-2.105-.968-3.291-.969-1.161-2.686-1.161-1.67 0-2.662 1.21-.993 1.209-.992 3.339m-18.941-8.107h-2.468v-2.589h2.468zM552.682 350.348q0 2.082.993 3.219.99 1.137 2.662 1.137 1.717 0 2.686-1.186.968-1.137.968-3.267 0-2.105-.968-3.291-.969-1.161-2.686-1.161-1.67 0-2.662 1.21-.993 1.209-.993 3.339m56.614 4.55q1.55 0 2.566-.871 1.016-.872 1.016-2.469v-1.307q-.46.389-1.549.509l-1.742.193q-1.404.171-2.009.678-.606.483-.605 1.379 0 .895.581 1.404.605.484 1.742.484m-73.247 50.852q-1.428 0-2.347.871-.895.873-1.113 2.517h6.897q-.171-1.523-1.089-2.444-.896-.944-2.348-.944m74.93 30q-1.428 0-2.347.871-.895.873-1.113 2.517h6.897q-.171-1.523-1.089-2.444-.897-.944-2.348-.944m-29.816 9.148q1.548 0 2.565-.871 1.016-.872 1.016-2.469v-1.307q-.459.389-1.548.509l-1.743.193q-1.404.171-2.008.678-.606.483-.605 1.379 0 .895.58 1.404.606.484 1.743.484"/></g><defs><clipPath id="A"><path fill="#fff" d="M0 0h1000v750H0z"/></clipPath></defs></svg>